<?xml version="1.0" encoding="UTF-8"?>
<svg id="_Слой_2" data-name="Слой 2" xmlns="http://www.w3.org/2000/svg" viewBox="0 0 168.04 168.04">
  <defs>
    <style>
      .cls-1 {
        fill: #fff;
      }

      .cls-2 {
        fill: none;
      }

      .cls-3 {
        fill: #e94268;
      }
    </style>
  </defs>
  <g id="_Слой_1-2" data-name="Слой 1">
    <g>
      <rect class="cls-2" width="168.04" height="168.04"/>
      <path class="cls-1" d="M83.67,168.01h.67c33.36,0,52.73-3.36,66.45-16.68,13.99-14.13,17.22-33.62,17.22-66.86v-.94c0-33.22-3.23-52.59-17.22-66.86C137.08,3.36,117.57,0,84.34,0h-.67C50.31,0,30.93,3.36,17.22,16.68,3.23,30.8,0,50.31,0,83.54v.94c0,33.22,3.23,52.59,17.22,66.86,13.59,13.32,33.09,16.68,66.45,16.68Z"/>
      <path class="cls-3" d="M148,82.73c0-.64-.52-1.17-1.16-1.2-22.96-.87-36.94-3.8-46.71-13.58-9.8-9.8-12.72-23.78-13.59-46.8-.02-.64-.55-1.16-1.2-1.16h-2.68c-.64,0-1.17.52-1.2,1.16-.87,23-3.79,37-13.59,46.8-9.79,9.79-23.75,12.71-46.72,13.58-.64.02-1.16.55-1.16,1.2v2.68c0,.64.52,1.17,1.16,1.2,22.96.87,36.94,3.8,46.72,13.58,9.78,9.78,12.7,23.72,13.58,46.65.02.64.55,1.16,1.2,1.16h2.69c.64,0,1.17-.52,1.2-1.16.88-22.92,3.8-36.87,13.58-46.65,9.79-9.79,23.75-12.71,46.72-13.58.64-.02,1.16-.55,1.16-1.2v-2.68h.01Z"/>
    </g>
  </g>
</svg>