<?xml version="1.0" encoding="UTF-8"?>
<svg id="_Слой_2" data-name="Слой 2" xmlns="http://www.w3.org/2000/svg" viewBox="0 0 748.29 682.59">
  <defs>
    <style>
      .cls-1 {
        fill: #f9675d;
      }

      .cls-2 {
        fill: #6b2ee5;
      }

      .cls-3 {
        fill: #fff;
      }

      .cls-4 {
        fill: #1e1e1e;
      }

      .cls-5 {
        fill: #080809;
      }

      .cls-6 {
        fill: #b650f4;
      }

      .cls-7 {
        fill: #fbfbfb;
      }

      .cls-8 {
        fill: #6c38cb;
      }

      .cls-9 {
        fill: #aaff3f;
      }

      .cls-10 {
        fill: #fdfdfd;
      }

      .cls-11 {
        fill: #ff0;
      }
    </style>
  </defs>
  <g id="_Слой_1-2" data-name="Слой 1">
    <g>
      <path class="cls-7" d="M518.78,458.96c.17.34.13.75-.11,1.04-.32.38-.34.93-.29,1.46l.97,13.22c.06.77-.74,1.29-1.44.95-.88-.43-1.87-.77-3.01-.92-.81-.1,1.29-.95,1.71-.26l3.01,11.13s.05.07.08.11l12.52,15.53c7.41,9.19,12.79,19.42,15.94,30.97,4.98,18.25-1.15,35.98-8.76,52.78-3.03,6.68-5.55,13.5-5.92,20.85-.18,3.68,2.7,6.8,5.66,8.79,17.29,11.58,35.29,8.1,45.53,11.25,4.24,1.31,6.39,5.03,5.59,9.27-.65,3.43-3.96,6.17-8.13,5.92-5.34-.32-9.9-2.61-14.64-4.79l-21.35-9.82c-2.61-1.2-5.97.14-7.08,2.26-1.18,2.24-.42,5.01,1.59,7.08,7.17,7.38,19.11,9.35,24.23,18.71,1.65,3.02,2.04,7.47-.99,9.68-4.87,3.54-11.27,2.21-15.78-1.64-8.15-6.96-11.86-20.96-21.04-27.3-2.36-1.63-6.56-1.83-9.03-.46-3.28,1.83-3.86,6.03-2.91,9.34l3.84,13.42c1.04,3.63,1.22,8.06-1.27,11.32-4.37,5.69-14.5,5.96-18.31-.35-4.65-7.71,10.51-26.41,2.33-34.1-5.23-4.92-15.1-.94-21.69,6.07-5.59,5.94-11.28,11.67-18.11,8.07-2.41-1.27-4.98-3.96-4.86-7.47.14-4.27,3.29-7.5,7.07-8.73l13.57-4.4c7.68-2.49,13.28-7.85,15.54-15.75,3.19-11.15,6.18-22.54,6.01-34.42-.15-10.43-4.87-19.86-10.8-28.15-7.96-11.11-16.85-20.85-26.45-30.47-2.71-2.72-5.52-4.88-7.56-8.19-.43-.7-1.57-.93-2.03-.68-.37.2-.74,1.34-.68,1.93.83,8.26,5.64,14.4,10.56,20.62l9.83,12.42c.53.67.02,1.65-.83,1.6-37.98-2.22-74.98-19.55-97.17-49.21-8.89-11.88-14.75-25.1-18.32-39.5-9.88-39.91-5.23-75.89,5.58-115.03,4.66-16.87,10.02-32.61,17.14-48.55l13.09-31.47c4.72-11.35,7.58-22.68,8.41-34.89.03-.51.46-.91.97-.92,17.15-.16,32.69-2.49,47.67-7.84,1.16-.41-3.89,1.11-2.57.74,1.23-.35.7-2.22-.54-1.9l2.24-.47s-.08.02-.12.02l-5.29.7c-.36.05-13.4,4.23-13.59,3.92-.14-.23-.38-.39-.7-.39l-1.38-2.43-3.98-.09c-.28,0-.51-.16-.68-.38-.65-.8-2.61-.86-3.54.13-.18.19-.45.28-.71.27l-13.21-2.28c-.25,0-6.25-.08-6.51-.1l-15.16-.99c-.3-.02-10.1-.68-10.1-.68-.33-.03-3.53-.22-3.85-.25-1.34-.15-3.03-.36-4.45-.24-.43.04-26.21-3.07-37.19-5.69-15.67-3.31-29.9-9.7-42.26-19.25-.13-.1-.24-.19-.32-.2-1.2-.71.17-1.75.73-.8.05.03.13.06.23.14.14.12.3.21.49.25,27.37,5.33,55.22,5.78,83.51,3.26,39.8-3.56,86.96-15.66,118.28-40.68.21-.17.49-.25.76-.21,6,.9,11.06,2.86,16.55,4.88.54.2,1.15-.1,1.3-.66.38-1.44-.11-3.02-1.06-4.03-7.52-8.02-18.6-11.7-29.5-9.77-.59.1-.93.71-.76,1.28.48,1.59,1.63,2.5,3.07,3.51.54.38.57,1.17.06,1.58-7.53,6.12-15.93,10.98-25.07,14.46l-20.49,7.8s-.04.02-.07.02c-37,11.34-75.46,16.2-114.1,13.64-14.01-.93-40.29-3.79-48.74-11.6-13.33-12.31-11.75-32.86-.8-48,12.94-17.89,30.07-27.18,44.09-44.95,15.19-19.25,10.67-39.23,24.01-52.61,9.29-9.31,23.11-11.79,35.88-7.79.7.22.93,1.09.43,1.63-1.72,1.87-2.95,3.87-3.06,6.15-.02.5.33.95.82,1.03.74.12,1.36.07,1.98-.14l20.46-6.91c36.74-12.4,75.73-13.14,111.65,2,19.31,8.14,36.32,20.37,48.45,37.54s19.66,38.26,19.72,59.89c.08,28.91-16.89,55.52-31.31,79.53-12.44,20.71-23.48,44.5-29.1,68.52-.17.72-1.03,1.01-1.6.53-3.23-2.75-6.25-5.31-10.46-6.45-.7-.19-1.35.42-1.24,1.13.47,3.07,2.32,5.78,4.34,8.2,7.92,9.49,14.44,19.33,19.33,30.67l13.87,32.16c1.28,2.97,2.91,5.21,6.38,5.4l38.32,2.11c2.46.14,4.19-1.79,4.58-3.94l2.03-11.2c1.33-7.34,3.18-14.58,7.88-20.19,5.28-6.3,13.65-7.53,19.92-1.94,4.67,4.16,8.61,10.05,9.99,16.37,1.08,4.93-2.96,8.96-6.91,10.76-3.15,1.44-6.44,1.43-8.8-1.31-2.89-3.36-4.54-7.46-5.39-12.02-.15-.82-1.19-1.09-1.73-.46-6.57,7.7-.54,15.49-1.88,20.06l-7.89,26.97c-.09.31-.32.55-.62.66-15.05,5.31-30.09,9.77-46.21,11.63-33.24,3.84-46.16-37.89-65.95-58.47-2.58-2.68-5.54-5.23-9.16-6.03-.82-.18-1.47.71-1.07,1.45l5.55,10.07s.02.04.03.06l20.33,31.67c.11.17.16.37.15.58-1.29,24.66,1.21,49.15,8.67,72.71,2.89,9.13,7.31,16.93,11.43,25.36l1.72,3.53ZM449.23,40.51c9.41,1.81,17.27,6.03,25.91,11.1.86.51,1.87-.45,1.37-1.32-3.92-6.87-10.79-11.2-17.89-14.52-20.58-9.61-46.13-5.27-61.01,11.99-6.49,7.54-11.41,16.74-10.77,26.99.06.99,1.38,1.27,1.86.41,13.11-23.96,31.52-40.22,60.52-34.65ZM467.96,135.1c19.74-16.94,19.7-48.06,1.21-66.83-15.88-16.13-40.85-17.83-58.58-3.08-21.09,17.55-24.1,52.67-3.49,70.55,17.47,15.16,43.09,14.6,60.86-.64ZM304.14,147.5c.12-1.23-.4-2.38-.92-2.77-3.14-2.3-13.45,3.23-14.64,13.62-.2,1.71.57,3.73,1.57,4.26,5.59,2.95,13.01-4.7,13.99-15.11Z"/>
      <path class="cls-7" d="M326.92,631.83c7.42-2.3,17.96-6.44,16.54-11.9-.43-1.64-2.22-2.8-4.28-2.57-14.37,1.63-27.94,5.14-41.27,10.49-5.85,2.35-13.46,1.09-15.47-4.02-1.26-3.2-.31-6.21,2-8.8,2.5-2.8,6.97-4.35,11.13-3.65,12.38,2.08,37.97,3.47,38.48-4.28.09-1.35-1.71-4.26-3.68-4.06-6.27.64-12.16,1.09-18.61.11-4.76-.72-11.77.14-12.39-4.75-.23-1.84.23-3.58,1.49-5.12,6.84-8.33,18.86,3.47,32.74,5.72,4.7.76,10.59,1.72,15.11.76,3.13-1.96,1.28-7.38-.39-9.91-6.8-10.31-12.84-20.25-17.84-31.39-6.52-14.52-6.72-29.96.88-44.01,5.95-10.99,13.68-20.58,23.2-28.57,6.88,12.78,14.24,24.09,24.43,33.32,5.98,5.42,11.39,10.53,18.51,14.54-18.24,6.82-25.76,21.68-21.97,39.82l10.79,35.17c1.07,3.49,3.55,5.72,7.08,7.08l9.62,3.7c4.32,1.66,7.37,7.27,5.61,12.02-2.18,5.88-9.81,7.47-14.44,3.75l-9.52-7.63c-15.61-12.51-35,2.35-47.57,15.93-4.57,4.94-10.47,8.94-17.11,8.96-4.24.02-7.66-2.79-8.59-6.01-2.59-8.95,7.15-12.13,15.53-14.73Z"/>
      <path class="cls-7" d="M288.72,361.85c4.62-11.41,7.71-22.09,8.36-34.5l17.39,1.62c15.97,1.49,21.01-7.34,28.86-18.11l14.8-20.3c6.03-6.65,10.84-14.11,19.2-19.42-7.46,18.44-15.05,35.25-20.95,53.5l-10.68,39.27c-7.94,4.01-16.37,4.94-25.28,4.5-10.61-1.22-20.53-3.68-31.7-6.56Z"/>
      <path class="cls-7" d="M557.21,565.66c7.12-28.27-35.73-77.92-51.45-100.54.95-.39,1.93-.77,2.3-1.36.5-.81.21-1.81.15-2.42l-.81-7.85c.44-.14,1.02-.52.98-1.28,11.67,7.62,59.1,42.47,72.92,44.29-.09,1.94,1.39,3.12,2.45,4.76,6.76,10.41,8.67,22.74,6.8,35.02-1.56,10.26-4.71,19.8-10.97,28"/>
      <g>
        <path class="cls-11" d="M674.49,213.1c-3.03,1.93-9.97.53-11.88-2.28-4.86-7.17-.04-27.72,2.78-38.89-.9-.35-1.61.28-2.07,1.29-5.04,11.35-7.13,23.31-6.07,36.27-10.25-6.53-14.9-18.19-14.29-30.13.77-15.06,9.38-27.77,21.85-35.94l22.57-15.69c9.57-6.65,15.84-15.74,20.57-27.32,8.41,25.9,14.45,52.26,8.56,78.12-1.4,6.16-3.85,11.21-7.06,16.49-4.52,7.45-10.45,13.18-18.41,17.02-3.13,1.51-5.75,3.8-9.95,3.19,4.42-4.66,7.3-9.7,9.73-15.55,1.27-3.06,3.69-6.07,2.47-9.63-4.82,9.29-9.79,17.31-18.81,23.06Z"/>
        <path class="cls-2" d="M589.25,463c-.82,1.42-2.4,2.25-4.11,2.66-1.61-2.17-2.04-4.76-2.02-7.5.12-14.87,2.3-29.12,6.1-43.45l8.06-30.34,13.21-44.33c6.07,3.56,11.13,1.78,17.35-.86-6.52,7.15-8.7,15.43-4.65,23.96-10.51,7.54-9.88,22.41-.92,31.78l-13.61,34.46-19.42,33.62Z"/>
        <path class="cls-7" d="M658.26,289.41l-28.67-9.18,15.03-43.67,7.71-21.25c7.29,4.2,14.57,6.33,22.96,7.2l-17.03,66.89Z"/>
        <path class="cls-7" d="M661.46,344.43c-10.19-2.09-18.89-6.16-28.24-10.38,1.24-3.79,2.77-6.77,3.11-10.9,11.61-5.46,33-1.57,33.32,10.59-.22,4.72-2.72,9.61-8.19,10.69Z"/>
        <path class="cls-8" d="M652.63,312.22c-6.62-.29-12.41,0-18.38,2.8-2.64-5.84-5.53-10.89-10.32-15.29l3.98-12.23,28.68,9.57-3.97,15.15Z"/>
        <path class="cls-7" d="M663,363.55c-4.26,10.92-24.14,3.13-31.64-3.59-4.17-3.74-1.71-10.83,1.5-14.59l27.75,8.68c3.26,1.02,3.41,6.88,2.39,9.5Z"/>
        <path class="cls-7" d="M652.15,378.13c3.6.84,1.76,7.9-.52,9.69-4.73,3.71-10.28,5.64-15.81,3.6-4.37-1.61-7.87-3.87-10.2-7.87s-1.41-11.4,3.06-12.96c7.64,3.68,14.99,5.74,23.46,7.54Z"/>
      </g>
      <path class="cls-7" d="M303.49,65.53c2.92,1.16-1.16,9.8-8.15,11.75-2.02-5.42,4.53-13.19,8.15-11.75Z"/>
      <path class="cls-7" d="M312.95,58.46c-3.89-1.35-7.61-1.11-12.25.13,3.52-4.61,8-7.01,13.54-8.64l-1.29,8.51Z"/>
      <path class="cls-5" d="M467.96,135.1c-17.76,15.24-43.38,15.79-60.86.64-20.61-17.88-17.6-53,3.49-70.55,17.73-14.75,42.69-13.05,58.58,3.08,18.49,18.77,18.54,49.9-1.21,66.83ZM450.82,136.36c13.94-5.57,21.77-18.56,22.76-32.62-.23-12.65-5.28-23.98-14.78-32.16-11.3-9.11-27.77-10.34-39.51-.99,17.96-4.58,34.46,3.69,40.5,20.46,5.62,15.59,1.46,32.65-8.97,45.3ZM423.43,92.6c0-4.28-3.47-7.76-7.76-7.76s-7.76,3.47-7.76,7.76,3.47,7.76,7.76,7.76,7.76-3.47,7.76-7.76Z"/>
      <path class="cls-5" d="M449.23,40.51c-30.11-5.79-48.8,11.96-62,37.42-2.02-11.52,3.23-21.86,10.39-30.17,14.87-17.26,40.43-21.61,61.01-11.99,8.08,3.78,15.85,8.86,19.33,17.5-9.79-5.8-18.31-10.76-28.73-12.76Z"/>
      <path class="cls-5" d="M304.14,147.5c-.98,10.41-8.4,18.06-13.99,15.11-1.01-.53-1.77-2.55-1.57-4.26,1.2-10.39,11.51-15.92,14.64-13.62.53.39,1.04,1.54.92,2.77Z"/>
      <circle class="cls-7" cx="415.67" cy="92.6" r="7.76"/>
      <path class="cls-7" d="M450.82,136.36c10.43-12.65,14.59-29.71,8.97-45.3-6.05-16.77-22.55-25.04-40.5-20.46,11.74-9.35,28.21-8.13,39.51.99,9.5,8.18,14.55,19.51,14.78,32.16-.99,14.06-8.82,27.05-22.76,32.62Z"/>
      <path class="cls-7" d="M222.1,313.02c2.4,6.54,7.28,13.57,13.31,11.49-1.63,8.64-6.26,15.29-12.94,20.22-6.89,1.11-12.81,3.98-18.23,8.33-6.48,6.67-10.43,15.98-9.15,25.26,1.38,9.98,7.41,17.52,16.06,22.17,7.94,4.36,16.5,6.12,25.83,6.8,13.53,8.7,18.42,25.79,12.47,40.84-4.45,10.03-11.63,17.88-20.93,23.69-30.04,18.77-67.04,21.3-101.35,13.49-32.41-7.38-61.29-23.88-83.23-48.86-11.4-12.98-20.21-27.17-26.06-43.53-12.54-35.07-8.25-73.48,10.56-105.5,16.81-28.61,42.08-49.94,72.76-62.59,24.41-10.07,50.64-13.71,76.89-10.11,20.95,2.87,39.49,10.5,57.04,21.94,22.35,14.56,39.52,35.22,47.75,60.78,2.08,6.46,3.61,12.63,4,19.49,1.39,24.37-7.32,48.1-24.95,64.79-7.25,6.86-15.28,12.92-25.28,14.78-4.1-2.89-4.72-10.28-2.13-14.69l7.83-13.34c2.23-3.8,3.21-8.1,1.54-12.6-1.29-3.46-4.09-6.9-8.74-8.58,8.88-9.09,15.24-28.41,6.19-33.62-3.47-2-6.24.26-9.27,1.29-2.63.13-5.66-6.87-2.88-9.02,6.48-5.02,17.6-4.61,23.71,1.17,5.97,5.65,6.44,14.17,8.25,22,3.74-9.02,3.73-21.13-3.71-28.11-7.76-7.29-20.61-7.19-29.58-2.71-5.77,2.88-7.82,9.07-5.75,14.73ZM188.49,288.49c10.8-8.73,14.08-22.9,7.76-35.01-6.6-12.67-20.83-18.71-34.75-16.62-11.5,1.73-20.63,9.68-23.78,19.83-3.54,11.41-.29,22.86,8.4,30.75,11.85,10.76,29.66,11.34,42.38,1.05ZM120.26,301.27c0-17.2-13.94-31.14-31.14-31.14s-31.14,13.94-31.14,31.14,13.94,31.14,31.14,31.14,31.14-13.94,31.14-31.14ZM109.45,400.95c7.08-10.63,5.73-23.59-1.55-33.19-9.46-12.47-26.02-15.53-39.98-8.96-9.1,4.28-15.11,12.25-16.69,21.44-1.73,10.05,1.25,19.85,9.05,26.47,14.98,12.7,38,11.02,49.16-5.75ZM183.48,453.07c7.94-8.14,10.02-18.97,6.62-29.26-6.58-19.9-28.91-28.07-47.12-17.96-8.64,4.79-14.47,13.16-15.58,22.39-1.21,10.1,2.4,19.54,10.16,26.34,13.15,11.51,33.46,11.26,45.91-1.51Z"/>
      <path class="cls-5" d="M183.48,453.07c-12.45,12.77-32.76,13.02-45.91,1.51-7.76-6.79-11.37-16.24-10.16-26.34,1.1-9.23,6.94-17.6,15.58-22.39,18.21-10.11,40.54-1.94,47.12,17.96,3.4,10.29,1.32,21.11-6.62,29.26ZM183.3,432.1c0-13.09-10.61-23.7-23.71-23.7s-23.71,10.61-23.71,23.7,10.61,23.7,23.71,23.7,23.71-10.61,23.71-23.7Z"/>
      <path class="cls-5" d="M120.26,301.27c0,17.2-13.94,31.14-31.14,31.14s-31.14-13.94-31.14-31.14,13.94-31.14,31.14-31.14,31.14,13.94,31.14,31.14ZM113.17,301.22c0-13.32-10.8-24.12-24.12-24.12s-24.12,10.8-24.12,24.12,10.8,24.12,24.12,24.12,24.12-10.8,24.12-24.12Z"/>
      <path class="cls-5" d="M109.45,400.95c-11.17,16.77-34.18,18.45-49.16,5.75-7.8-6.61-10.78-16.42-9.05-26.47,1.58-9.19,7.59-17.15,16.69-21.44,13.95-6.57,30.52-3.51,39.98,8.96,7.27,9.59,8.62,22.56,1.55,33.19ZM106.2,385.13c0-13.14-10.66-23.8-23.8-23.8s-23.8,10.66-23.8,23.8,10.66,23.8,23.8,23.8,23.8-10.66,23.8-23.8Z"/>
      <path class="cls-5" d="M188.49,288.49c-12.72,10.29-30.53,9.71-42.38-1.05-8.69-7.89-11.94-19.34-8.4-30.75,3.15-10.15,12.29-18.09,23.78-19.83,13.92-2.1,28.15,3.95,34.75,16.62,6.31,12.11,3.04,26.28-7.76,35.01ZM182.86,284.39c6.36-4.72,9.95-11.77,9.43-19.22-.49-7-4.05-13.45-10.37-17.58-7.73-5.05-17.95-6.02-26.33-1.96-12.1,5.86-16.09,20.13-9.35,31.48,7.7,12.98,24.23,16.49,36.63,7.29Z"/>
      <circle class="cls-1" cx="159.59" cy="432.1" r="23.7"/>
      <circle class="cls-11" cx="89.05" cy="301.22" r="24.12"/>
      <circle class="cls-9" cx="82.39" cy="385.13" r="23.8"/>
      <path class="cls-6" d="M182.86,284.39c-12.4,9.2-28.93,5.69-36.63-7.29-6.73-11.34-2.75-25.61,9.35-31.48,8.38-4.06,18.6-3.09,26.33,1.96,6.33,4.14,9.88,10.58,10.37,17.58.52,7.45-3.06,14.5-9.43,19.22Z"/>
      <path class="cls-5" d="M554.1,575.68l-9.56,23.88c-.8,1.99-1.01,4.11-.21,6.12.61,1.53,2.57,2.92,4.66,3.85,15.28,6.78,29.98,3.06,39.54,7.11,7.31,3.1,12.02,9.42,11.83,16.91-.19,7.58-4.55,14.28-12.19,16.57-4.94,1.48-9.46.26-14.95-.93,3.4,6.21,3.57,12.1.54,18.03-2.45,4.8-8.13,8.11-14.34,8.62-16.4,1.34-24.29-12.78-31.98-26.07l-.86.36c1.27,4.38,2.83,9.08,2.69,13.89-.35,11.51-9.35,18.93-20.56,18.56-6.08-.2-11.22-1.31-15.28-5.62-3.77-4.01-5.52-9.5-4.75-15.43l5.69-19.61c-5.74,2.34-8.73,7.13-12.83,10.92-7.88,7.29-19.09,9.14-27.62,2.42-4.42-3.49-6.79-8.52-6.87-13.81-.09-5.47,2.76-10.52,7.3-14.24,9.75-7.99,24.24-5.24,28.97-18.66,2.8-7.94,4.6-15.98,5.59-24.37.86-7.24-.23-13.9-3.72-20.29l-3.45-6.33c-17.27-.42-34.01-3.37-50.55-8.61l-23.17-9.88-11.85,5.78c-8.59,4.18-12.34,13.08-10.8,22.8,2.09,13.23,6.64,25.9,11.06,38.64l11.19,4.71c6.95,2.92,11.79,9.74,11.94,17.52.12,6.25-3.32,11.56-7.63,14.67-5.21,3.76-11.5,4.67-17.67,2.74-12.3-3.86-16.13-17.39-29.52-11.42-16.56,7.39-22.06,21.31-36.06,26.26-7.5,2.65-16.02,1.77-21.95-3.62-5.9-5.36-6.67-13.72-3.08-20.99-6.81,2.77-13.81,3.66-20.2,1.36-8.04-2.89-12.42-9.95-11.29-18.42,1.24-9.27,8.84-15.83,18.74-16.6-1.59-7.08.23-13.55,6.09-17.87s13.13-4.01,19.84-1.52l18.37,6.82,1.11-1.05c-15.42-22.83-27.62-47.08-15.79-74.48,6.4-14.83,16.45-27.1,29.55-37.51-11.17-32.33-12.73-67.43-6.42-101.89-9.46,3.2-18.08,3.29-27.3,2.17-10.62-1.62-20.74-4.14-31.27-7.75-8.68,14.73-20.51,26.68-36.58,34.08,15.79,14.92,18.02,37.39,6.95,55.61-18.97,31.21-65.76,42.86-101.42,41.29-50.32-2.22-96.83-27.18-126.95-67.28l-10.12-15.85c-8-14.34-13.09-30.1-15.6-46.45-7.18-46.66,14.4-96.21,49.22-126.76,34.12-29.94,78.26-44.52,123.3-39.8,61.14,6.41,118.2,50.67,123.66,114.04l20.55,1.54c3.9.29,7.03-.72,9.34-3.85l11.93-16.17c14.46-19.6,25.78-33.39,45.65-48.97,3.11-6.91,3.39-15.25,5.21-23.27l-22.96-.93c-20.73-.84-40.71-3.77-60.39-10.29-17.39-5.97-32.18-16.46-42.49-31.52-9.41-6.72-14.33-16.54-15.82-27.97-1.91-15.45,3.1-30.55,13.11-42.44,5.14-6.11,9.84-11.8,15.99-17.12-.36-23.85,13.34-55.55,38.9-56.87,4.69-20.05,20.82-33,41.03-34.85,9.63-.88,18.87,2.78,27.48,5.63,27.63-8.53,51.1-13.57,80.21-10.18,22.58,2.63,44.06,9.05,63.6,20.71,17.91,10.69,31.7,25.21,41.78,43.37,15.82,28.5,19.93,60.07,8.24,90.95-5.82,15.37-14.22,28.84-22.42,43.05l-16.87,29.26c-8.29,16.55-14.39,33.34-17.64,51.92,7.15,9.99,12.04,20.51,16.63,31.65l7.63,18.49,32.21,2.44,2.6-15.65c2.21-13.3,17-29.93,33.52-23.77l29.99-83.7c-18.19-22.76-11.75-53.56,11.29-70.65l22.91-15.32c10.22-6.83,17.62-15.87,21.98-27.35,2.3-6.05,5.16-10.43,10.23-8.75,1.15.38,2.3,1.93,2.96,3.72,7.87,21.44,14.94,48.35,13.62,70.97-1.63,27.78-14.35,54.09-42.34,60.41l-11.35,44.57-11.84,45.42c5.05,2.07,9.1,4.34,12.35,7.97,8.11,9.06,6.11,22.42-3.04,30.62,4.92,11.45,1.75,19.54-8.94,25.36,2.36,8.04-.51,15.08-6.8,19.89-7.21,5.51-16.27,7.64-25.26,3.97-4.85,12.5-8.68,24.61-15.37,35.93l-15.92,26.96c-2.66,4.5-6.16,8.72-10.94,10.56-5.53,2.13-10.61-1.02-12.07-6.6-1.75-6.7-2.04-13.67-1.22-20.89,2.67-23.46,8.08-46.02,15.52-69.14-14.51,5.04-28.56,8.54-43.32,10.16-12.37,1.36-23.92-2.29-33.14-10.24l-7.19-6.2c1.35,27.61,5.73,55.85,19.34,79.05,11.92,20.32,34.9,34.04,58.64,36.61M581.3,496.49c-27.63-2.67-42.87-14.42-45.73-17.48-5.92-6.34-11.86-12.21-16.45-19.35l-2.07-4.24c-4.12-8.43-8.54-16.23-11.43-25.36-7.5-23.66-9.98-48.26-8.66-73.03l-20.52-31.97-6.5-11.8c4.55.15,8.12,3.12,11.16,6.28,19.79,20.58,32.71,62.31,65.95,58.47,16.29-1.88,31.47-6.42,46.69-11.8l8.03-27.45c1.42-4.86-5.49-13.36,3.3-21.53.72,5.32,2.41,10.12,5.7,13.95,2.36,2.74,5.65,2.75,8.8,1.31,3.95-1.8,7.99-5.83,6.91-10.76-1.38-6.32-5.32-12.21-9.99-16.37-6.28-5.59-14.64-4.36-19.92,1.94-4.7,5.61-6.55,12.84-7.88,20.19l-2.03,11.2c-.39,2.15-2.12,4.07-4.58,3.94l-38.32-2.11c-3.47-.19-5.1-2.43-6.38-5.4l-13.87-32.16c-4.89-11.34-11.41-21.19-19.33-30.67-2.33-2.79-4.44-5.97-4.45-9.64,5.5,1.03,8.98,4.39,13.04,7.81,5.5-24.55,16.75-48.93,29.46-70.09,14.42-24.01,31.39-50.62,31.31-79.53-.06-21.63-7.29-42.29-19.72-59.89s-29.14-29.4-48.45-37.54c-35.92-15.14-74.91-14.4-111.65-2l-20.46,6.91c-.83.28-1.66.27-2.78-.04-.23-3.11,1.64-5.71,4.15-8.11-13.18-4.7-27.75-2.41-37.41,7.28-13.34,13.38-8.82,33.36-24.01,52.61-14.02,17.77-31.15,27.05-44.09,44.95-10.94,15.13-12.52,35.69.8,48,8.45,7.81,34.73,10.67,48.74,11.6,38.65,2.56,77.13-2.31,114.14-13.65l20.52-7.81c9.55-3.64,18.3-8.78,26.08-15.29-2.25-1.6-4.07-2.6-4.35-5.36,11.21-2.34,22.73,1.32,30.47,9.58,1.17,1.25,1.65,3.36.64,5.01-5.97-2.18-11.36-4.34-17.86-5.26-31.32,25.2-78.67,37.38-118.62,40.95-28.4,2.54-56.36,2.07-83.83-3.32-.36.44-.57.55-.81.67,12.37,9.55,26.59,15.94,42.26,19.25,11.15,2.66,111,10.58,114.29,9.29l6.11-.81,1.62-.33c.86-.17,1.25,1.02.46,1.4l-1.15.54c-15.25,5.44-31.06,7.75-48.58,7.84-.74,12.55-3.63,24.16-8.47,35.8l-13.09,31.47c-7.11,15.93-12.47,31.68-17.14,48.55-10.81,39.15-15.46,75.12-5.58,115.03,3.56,14.4,9.43,27.62,18.32,39.5,22.61,30.23,60.61,47.64,99.35,49.32l-11.19-14.14c-4.92-6.22-9.73-12.36-10.56-20.62-.06-.59.31-1.73.68-1.93.46-.25,1.6-.02,2.03.68,2.04,3.31,4.85,5.47,7.56,8.19,9.6,9.63,18.49,19.36,26.45,30.47,5.94,8.29,10.66,17.72,10.8,28.15.17,11.87-2.82,23.27-6.01,34.42-2.26,7.9-7.86,13.26-15.54,15.75l-13.57,4.4c-3.78,1.22-6.93,4.46-7.07,8.73-.12,3.52,2.45,6.2,4.86,7.47,6.83,3.6,12.51-2.13,18.11-8.07,6.6-7.01,16.46-10.98,21.69-6.07,8.18,7.68-6.98,26.39-2.33,34.1,3.81,6.32,13.94,6.05,18.31.35,2.49-3.25,2.31-7.68,1.27-11.32l-3.84-13.42c-.95-3.31-.37-7.52,2.91-9.34,2.47-1.38,6.67-1.17,9.03.46,9.18,6.34,12.89,20.34,21.04,27.3,4.51,3.85,10.91,5.18,15.78,1.64,3.03-2.21,2.64-6.66.99-9.68-5.12-9.36-17.06-11.33-24.23-18.71-2.01-2.07-2.77-4.84-1.59-7.08,1.11-2.12,4.46-3.46,7.08-2.26l21.35,9.82c4.75,2.18,9.31,4.47,14.64,4.79,4.17.25,7.48-2.48,8.13-5.92.81-4.24-1.34-7.97-5.59-9.27-10.24-3.15-28.24.33-45.53-11.25-2.96-1.99-5.85-5.11-5.66-8.79.37-7.35,2.89-14.16,5.92-20.85,7.61-16.81,13.74-34.53,8.76-52.78-3.15-11.55-8.53-21.77-15.94-30.97l-12.57-15.58-3.54-5.86c-1.31-2.16,1.19-4.64,3.32-3.28.02.01.03.02.05.03,7.04,4.5,12.81,10.86,18.4,17.45l1.98,1.75c15.72,22.62,24.48,41.65,17.36,69.92M312.95,58.46l1.29-8.51c-5.55,1.63-10.02,4.03-13.54,8.64,4.65-1.24,8.36-1.48,12.25-.13ZM303.49,65.53c-3.62-1.43-10.17,6.33-8.15,11.75,6.99-1.95,11.07-10.59,8.15-11.75ZM674.49,213.1c9.01-5.74,13.98-13.76,18.81-23.06,1.22,3.56-1.2,6.57-2.47,9.63-2.43,5.85-5.31,10.89-9.73,15.55,4.2.61,6.82-1.68,9.95-3.19,7.96-3.84,13.88-9.57,18.41-17.02,3.21-5.28,5.66-10.34,7.06-16.49,5.89-25.85-.15-52.21-8.56-78.12-4.73,11.57-11,20.67-20.57,27.32l-22.57,15.69c-12.47,8.17-21.08,20.88-21.85,35.94-.61,11.93,4.05,23.6,14.29,30.13-1.06-12.96,1.03-24.92,6.07-36.27.45-1.02,1.17-1.65,2.07-1.29-2.82,11.18-7.64,31.73-2.78,38.89,1.91,2.82,8.86,4.21,11.88,2.28ZM285.45,189.12c-.56-.96-1.93.09-.73.8l.73-.8ZM222.1,313.02c-2.07-5.65-.02-11.84,5.75-14.73,8.98-4.48,21.82-4.58,29.58,2.71,7.44,6.99,7.45,19.09,3.71,28.11-1.81-7.83-2.28-16.35-8.25-22-6.11-5.78-17.23-6.19-23.71-1.17-2.77,2.15.25,9.15,2.88,9.02,3.02-1.03,5.79-3.3,9.27-1.29,9.05,5.22,2.69,24.53-6.19,33.62,4.65,1.68,7.45,5.12,8.74,8.58,1.67,4.5.69,8.8-1.54,12.6l-7.83,13.34c-2.59,4.41-1.96,11.8,2.13,14.69,10-1.86,18.03-7.92,25.28-14.78,17.63-16.69,26.34-40.42,24.95-64.79-.39-6.86-1.92-13.03-4-19.49-8.23-25.56-25.4-46.22-47.75-60.78-17.55-11.44-36.09-19.07-57.04-21.94-26.24-3.59-52.48.05-76.89,10.11-30.68,12.65-55.96,33.98-72.76,62.59-18.8,32.02-23.1,70.43-10.56,105.5,5.85,16.36,14.66,30.55,26.06,43.53,21.94,24.98,50.82,41.48,83.23,48.86,34.31,7.81,71.31,5.28,101.35-13.49,9.3-5.81,16.48-13.66,20.93-23.69,5.95-15.04,1.06-32.13-12.47-40.84-9.34-.69-17.89-2.44-25.83-6.8-8.65-4.66-14.67-12.19-16.06-22.17-1.28-9.28,2.67-18.6,9.15-25.26,5.41-4.35,11.34-7.21,18.23-8.33,6.67-4.94,11.3-11.58,12.94-20.22-6.02,2.08-10.91-4.95-13.31-11.49ZM658.26,289.41l17.03-66.89c-8.39-.87-15.67-3-22.96-7.2l-7.71,21.25-15.03,43.67,28.67,9.18ZM288.72,361.85c11.17,2.88,21.09,5.33,31.7,6.56,8.92.44,17.35-.49,25.28-4.5l10.68-39.27c5.9-18.25,13.49-35.05,20.95-53.5-8.36,5.3-13.18,12.76-19.2,19.42l-14.8,20.3c-7.85,10.77-12.89,19.6-28.86,18.11l-17.39-1.62c-.65,12.41-3.73,23.09-8.36,34.5ZM652.63,312.22l3.97-15.15-28.68-9.57-3.98,12.23c4.79,4.4,7.68,9.45,10.32,15.29,5.97-2.8,11.76-3.09,18.38-2.8ZM661.46,344.43c5.47-1.08,7.97-5.97,8.19-10.69-.33-12.17-21.71-16.05-33.32-10.59-.33,4.13-1.86,7.11-3.11,10.9,9.35,4.23,18.05,8.3,28.24,10.38ZM589.25,463l19.42-33.62,13.61-34.46c-8.96-9.37-9.59-24.24.92-31.78-4.05-8.53-1.87-16.81,4.65-23.96-6.23,2.64-11.28,4.43-17.35.86l-13.21,44.33-8.06,30.34c-3.8,14.32-5.99,28.57-6.1,43.45-.02,2.74.41,5.34,2.02,7.5,1.72-.41,3.29-1.24,4.11-2.66ZM663,363.55c1.02-2.62.87-8.48-2.39-9.5l-27.75-8.68c-3.21,3.76-5.67,10.85-1.5,14.59,7.5,6.72,27.37,14.52,31.64,3.59ZM227.77,376.83l6.63-10.9c1.68-2.76,2.71-5.74.86-8.66-1.15-1.82-3.55-3.88-6.78-4.2-14.07-1.37-26.76,11.83-24.17,26.13,1.51,8.31,11.92,14.29,21.37,16.92-2.62-6.96-1.61-13.21,2.09-19.29ZM652.15,378.13c-8.48-1.8-15.82-3.87-23.46-7.54-4.48,1.56-5.48,8.81-3.06,12.96s5.83,6.26,10.2,7.87c5.53,2.04,11.08.11,15.81-3.6,2.28-1.79,4.12-8.85.52-9.69ZM326.92,631.83c-8.38,2.6-18.12,5.78-15.53,14.73.93,3.22,4.35,6.03,8.59,6.01,6.64-.03,12.55-4.03,17.11-8.96,12.57-13.59,31.96-28.44,47.57-15.93l9.52,7.63c4.64,3.72,12.27,2.13,14.44-3.75,1.76-4.76-1.29-10.36-5.61-12.02l-9.62-3.7c-3.53-1.36-6.01-3.59-7.08-7.08l-10.79-35.17c-3.79-18.14,3.73-33.01,21.97-39.82-7.12-4.02-12.53-9.13-18.51-14.54-10.2-9.23-17.56-20.54-24.43-33.32-9.52,7.99-17.25,17.57-23.2,28.57-7.6,14.05-7.4,29.48-.88,44.01,5,11.13,11.04,21.08,17.84,31.39,1.67,2.53,3.52,7.96.39,9.91-4.52.96-10.41,0-15.11-.76-13.87-2.25-25.9-14.05-32.74-5.72-1.27,1.54-1.72,3.29-1.49,5.12.62,4.9,7.63,4.04,12.39,4.75,6.45.97,12.34.53,18.61-.11,1.97-.2,3.77,2.71,3.68,4.06-.51,7.75-26.09,6.36-38.48,4.28-4.17-.7-8.64.85-11.13,3.65-2.31,2.59-3.26,5.6-2,8.8,2.01,5.11,9.62,6.37,15.47,4.02,13.33-5.35,26.9-8.85,41.27-10.49,2.06-.23,3.86.93,4.28,2.57,1.42,5.47-9.12,9.6-16.54,11.9ZM337.11,589.72l-1.29.35c.34.95,1.49.53,1.29-.35ZM526.67,649.25c.24-.51-.03-1.01-.4-1.17-.5-.22-.95.02-1.17.4-.24.42-.02,1.19.88,1.02l.69-.25Z"/>
      <path class="cls-7" d="M253.22,381.24c-8.27,13.59-12.24,6.18-12.97,22.15-.53,11.66,14.39,31.22,8.18,28.7-22.75-9.22-60.5-41.82-64.13-61.8-7.66-42.18,29.8-81.15,71.32-77.1,9.52.93,16.6,7.02,19.99,12.39,5.45,8.63,2.42,17.4-2.53,25.56l-19.86,50.1Z"/>
      <g>
        <g>
          <path class="cls-2" d="M595.25,567.45c-13.49,0-26.43-2.09-38.48-6.22-1.44-.49-2.48-1.76-2.67-3.28-.19-1.51.49-3,1.76-3.84,19.03-12.59,28.86-36.68,23.9-58.59-.33-1.44.17-2.95,1.29-3.91.74-.64,1.67-.97,2.61-.97.49,0,.97.09,1.44.27,7.55,2.92,14.98,4.46,22.72,4.71.6.02,1.19.03,1.78.03,5.28,0,10.4-.77,15.21-2.28,6.35-2,11.84-4.7,16.77-8.25,4.82-3.47,8.84-7.28,12.28-11.64,4.15-5.27,7.47-10.87,10.13-17.11,3.26-7.66,5.21-13.78,6.3-19.85,1.51-8.36,2.43-15.37,1.99-22.42l-1.58-25.26c-.16-2.54-.38-5.12-.6-7.61-.61-6.96-1.24-14.16-.55-21.63,1.08-11.72,4.29-22.1,9.8-31.74,10.15-17.74,26.42-30.43,45.81-35.73,4.04-1.1,7.47-1.84,11.11-1.84,1.65,0,3.27.16,4.82.48,1.59.33,2.82,1.58,3.12,3.17.3,1.59-.39,3.21-1.75,4.1l-14.47,9.44c-9.17,7.3-15.45,17.09-18.18,28.32-2.31,9.52-2.68,17.02-1.16,23.63l5.73,24.87c.03.12.05.24.07.37l.32,2.37c2.58,8.47,4.27,17.76,5.3,29.22.94,10.39.75,20.79-.57,31.81-1.46,12.18-3.72,22.77-7.12,33.34-3.95,12.28-9.07,23.24-15.66,33.51-7.4,11.53-15.78,20.87-25.64,28.55-10.8,8.42-22.88,14.6-35.9,18.37-11.67,3.38-23.52,5.2-36.23,5.55-1.24.04-2.48.05-3.71.05Z"/>
          <path class="cls-4" d="M736.27,294.31c1.33,0,2.67.12,4.02.4l-14.63,9.54c-9.86,7.8-16.77,18.46-19.72,30.62-2,8.26-3.1,17.07-1.17,25.47l5.73,24.87.36,2.7c2.89,9.37,4.35,18.89,5.24,28.72.94,10.42.7,20.51-.56,30.97-1.35,11.22-3.49,21.81-6.96,32.59-3.74,11.64-8.67,22.36-15.22,32.57-6.83,10.64-14.88,19.87-24.74,27.56-10.43,8.13-22.02,14.06-34.55,17.69-11.64,3.37-23.19,5.06-35.22,5.39-1.2.03-2.4.05-3.6.05-12.65,0-25.13-1.87-37.18-6,20.15-13.33,30.93-39.25,25.6-62.81,7.74,3,15.67,4.71,24.04,4.98.64.02,1.28.03,1.91.03,5.59,0,11.1-.79,16.41-2.46,6.42-2.02,12.37-4.83,17.91-8.82,4.89-3.52,9.29-7.61,13.08-12.41,4.38-5.55,7.88-11.49,10.67-18.02,2.87-6.75,5.24-13.43,6.56-20.7,1.43-7.9,2.53-15.6,2.04-23.38l-1.58-25.26c-.6-9.61-2.06-18.89-1.16-28.62,1-10.85,3.9-20.7,9.29-30.12,9.63-16.83,25.21-28.88,43.39-33.86,3.41-.93,6.71-1.7,10.06-1.7M736.27,286.31c-4.33,0-8.41.95-12.17,1.98-20.42,5.59-37.54,18.94-48.22,37.6-5.81,10.14-9.18,21.05-10.31,33.36-.72,7.83-.08,15.2.55,22.34.22,2.47.44,5.03.6,7.52l1.58,25.26c.42,6.64-.47,13.38-1.93,21.45-1.04,5.76-2.91,11.62-6.05,18.99-2.52,5.91-5.66,11.21-9.59,16.21-3.2,4.06-6.95,7.62-11.47,10.87-4.58,3.3-9.69,5.81-15.63,7.68-4.42,1.39-9.13,2.09-14.01,2.09-.55,0-1.1,0-1.66-.03-7.28-.23-14.28-1.69-21.4-4.44-.94-.36-1.92-.54-2.89-.54-1.89,0-3.75.67-5.23,1.94-2.24,1.93-3.23,4.94-2.57,7.82,4.53,19.99-4.81,42.86-22.21,54.37-2.54,1.68-3.91,4.66-3.52,7.69.39,3.02,2.46,5.57,5.34,6.55,12.46,4.27,25.84,6.43,39.77,6.43,1.26,0,2.55-.02,3.82-.05,13.05-.36,25.23-2.23,37.23-5.71,13.51-3.92,26.05-10.33,37.25-19.06,10.22-7.97,18.91-17.63,26.55-29.55,6.78-10.56,12.05-21.83,16.1-34.45,3.48-10.81,5.79-21.65,7.29-34.09,1.35-11.29,1.54-21.97.58-32.64-1.04-11.6-2.75-21.06-5.36-29.71l-.28-2.05c-.03-.25-.08-.49-.13-.73l-5.73-24.87c-1.38-5.97-1.01-12.9,1.14-21.78,2.5-10.3,8.25-19.29,16.64-26.01l14.31-9.33c2.72-1.77,4.09-5.01,3.49-8.19-.6-3.19-3.07-5.69-6.25-6.34-1.82-.37-3.71-.56-5.63-.56h0Z"/>
        </g>
        <path class="cls-10" d="M626.02,497.19c15.02,15.98,18.05,40.74,8.05,60.82-11.64,3.37-23.19,5.06-35.22,5.39,13.48-18.36,17.91-43.29,8.85-63.78,6.24.2,12.4-.57,18.32-2.43Z"/>
        <path class="cls-10" d="M693.37,512.77c-6.83,10.64-14.88,19.87-24.74,27.56,2.38-21.59-6.95-40.69-24.7-51.95,4.89-3.52,9.29-7.61,13.08-12.41,17.42,4.8,31.44,18.68,36.36,36.8Z"/>
        <path class="cls-10" d="M715.54,447.6c-1.35,11.22-3.49,21.81-6.96,32.59-9.16-14.23-24.62-22.27-40.92-22.25,2.87-6.75,5.24-13.43,6.56-20.7,14.22-3.34,30.45.22,41.31,10.36Z"/>
        <path class="cls-10" d="M710.87,387.91c2.89,9.37,4.35,18.89,5.24,28.72-12.21-6.73-26.71-8-39.83-2.77l-1.58-25.26c11.46-5.74,24.71-6.12,36.18-.69Z"/>
        <path class="cls-10" d="M705.94,334.87c-2,8.26-3.1,17.07-1.17,25.47-8.6-3.15-17.56-4.12-26.33-1.47-1.75.53-3.28,1.37-4.92,1.11,1-10.85,3.9-20.7,9.29-30.12,8.13-.68,16.21.6,23.12,5Z"/>
      </g>
      <path class="cls-3" d="M558.03,557.25s18.02-10.07,24.13-32.13c5.02-18.13,3.34-30.1,1.02-30.64-11.06-2.55-38.01-10.73-43.66-12.09-6.38-1.53,22.96,53.34,22.85,51.62-.26-4.21-4.34,23.23-4.34,23.23Z"/>
    </g>
  </g>
</svg>