<?xml version="1.0" encoding="UTF-8"?>
<svg id="_Слой_2" data-name="Слой 2" xmlns="http://www.w3.org/2000/svg" viewBox="0 0 1026.69 896.81">
  <defs>
    <style>
      .cls-1 {
        fill: #6b2ee5;
      }

      .cls-2 {
        fill: #070708;
      }

      .cls-3 {
        fill: #fdfdfd;
      }
    </style>
  </defs>
  <g id="_Слой_1-2" data-name="Слой 1">
    <g>
      <path class="cls-2" d="M741.28,852l5.34,11.32c4.42,9.36,2.07,21.13-6.62,27.57-13.12,9.71-32.29,7.2-42.49-5.48-5.07-6.3-5.52-14.96-2.94-22.18l6.95-19.41c-7.23,2.67-12.62,7.47-18.48,11.99-8.77,6.75-19.81,9.31-30.08,5.09-7.08-2.91-12.37-8.76-13.79-14.87-4.03-17.4,9.35-27.88,26.92-32.96,11.03-3.19,19.41-11.38,21.83-22.51l7.32-33.67c1.09-5.02.3-10.32-2.81-14.38l-6.3-8.24c-33.61-1.14-66.38-8.63-96.69-24.01-15.22,8.53-30.41,21.2-25.64,38.85l11.04,40.83c3.13,11.58,19.31,9.2,28.68,21.28,4.53,5.84,6.34,13.03,4.68,20.24-1.38,5.97-5.79,12.25-12.58,14.85-13.64,5.22-27.97.2-37.56-10.45-3.28-3.64-7.02-7.38-12-8.17-4.44-.71-9,2.02-11.9,5.21l-18.53,20.4c-11.82,13.02-28.33,19.12-43.43,10.45-9.64-5.54-12.67-15.72-8.66-27.15-16.7,8.47-35.01,6.7-42.22-8.71-4.04-11.59.58-23.86,12.19-29.68-6.38-11.37-1.09-24.36,10.63-29.38,18.99-7.68,35.03,8.02,57.15,8.02l-12.49-24.53c-5.23-10.28-10.3-20.17-13.82-31.03-6.76-20.82-4.27-41.66,7.83-59.74l26.54-35.47c-17.47-41.05-18.36-88.78-12.78-133.58l-28-9.73c-5.77-.84-11.77,4.79-16.21,7.25-4.91,2.71-7.4,6.27-9.32,11.13-3.15,7.99-8.14,14.42-15.77,19.38l14.98,10.45c6.18,4.31,7.5,12.9,4.65,20.14l-10.11,25.66-11.01,24.98c-3.47,7.87-13.36,10.46-21.47,8l-35.62-10.8-30.83,31.73,9.12,37.27c1.88,7.67-2.01,15.97-9.46,19.28l-46.99,20.83c-10.09,4.47-20.22,1.03-26.01-8.39l-19.13-31.1-44-.1-17.1,30.41c-4.73,8.42-13.73,14.2-23.23,10.12l-50.87-21.84c-6.08-2.61-9.86-10.15-8.14-16.84l10.3-39.92-31.32-31.83-34.8,9.36c-8.27,2.23-19.8,1.2-23.71-7.93l-20.89-48.75c-4.26-9.94.13-19.86,8.87-25.17l33.01-20.03.2-41c.01-2.57.59-5.6-1.96-7.22l-32.33-20.51c-8.15-5.17-10.15-14.1-6.28-22.63l19.93-43.92c3.63-8,11.84-14,20.66-11.46l36.35,10.47c2.95.85,4.84-.14,6.74-2.29l27.77-31.36-9.92-30.78c-2.97-9.21,1.12-18.76,9.8-23.01,15.49-7.58,31.01-13.81,47.27-19.65,9.1-3.27,19.19-1.55,24.21,7.11l17.55,30.24c.88,1.51,2.47,2.85,4.36,2.84l40.3-.3,19.73-32.8c4.1-6.82,13.04-10.32,20.72-7.69,16.64,5.7,32.2,12.38,48.1,19.71,8.98,4.14,14.69,13.19,11.77,23.08l-9.44,31.88,30.42,33.37,37.27-7.3,11.56-.4c10.2-3.61,20.64-1.23,26.88,7.82,3.33,4.83,6.05,10.06,8.05,15.69l4.65,13.07,26.82-11.26c4.58-1.92,8.29-5.55,12.13-8.93l49.98-43.87c6.07-11.5,8.23-25.44,11.18-38.11-38.38-1.45-74.8-6.66-110.79-17.64-34.07-10.39-56.79-26.2-75.31-56.4-13.24-21.59-12.37-47.1,1.84-68.16,7.61-11.27,16.66-20.83,26.59-30.57-1.62-37.66,14.54-66.05,50.3-77.07,7.09-12.08,14.07-26.39,27.8-33.24,23.38-11.66,42.82-6.59,67.27.69,49.75-17.32,115.38-21.12,163.74-.09,58.69,25.53,98.9,83.36,93.63,148.45-2.01,24.8-10.71,47.01-22.16,68.53l-21.37,36.69c-13.64,23.42-24.12,47.78-30.55,74.25s-8.07,52.24-8.18,79.4c-.2,47.7,6.6,107.91,30.38,149.06,22.51,38.95,70.29,54.21,111.8,41.5,49.94-15.29,69.82-68.58,63.63-118.65-2.35-18.99-8.3-36.07-13.86-54.16l-12.46-40.6c-4.38-19.28-5.1-38.36-.34-57.68,8.27-33.59,29.09-62.18,58.66-79.86,14.01-8.37,40.47-19.79,48.36-7.32,3.73,5.89,1.19,13.08-4.11,17.54-11.79,9.93-22.32,20.65-28.9,34.94-7.49,16.27-8.24,34.1-4.19,51.57,2.67,11.48,7.65,21.63,13.05,32.06l20.8,40.13c27.56,60.54,31.25,135.54,6.68,197.38-14.46,36.4-39.35,65.73-72.29,86.56-21.54,13.63-44.65,22.16-69.5,28.39-26.63,6.68-53.47,8.22-81.31,4.71l-21.32,44.64c-.77,1.61-2.48,4.61-1.35,6.2,17.96,9.65,34.5-1.06,52.46,4.78,14.09,4.59,21.96,20.03,15.34,33.58-4.88,9.99-16.12,13.52-26.61,11.11l-1.91,1.64c9.44,8.16,10.83,23.5.66,32.12-15.56,13.17-39.35,5.71-51.26-12.76l-10.96-16.99-.96.41ZM798,735.07c23,2.32,45.79.24,68.09-5.32,19.32-4.82,37.35-11.58,54.9-20.98,18.9-10.13,35.42-23.48,49.26-39.87,13.07-15.48,22.65-32.71,29.73-51.71,6.79-18.23,10.77-36.68,12.49-56.12,1.6-18.02,1.13-35.26-.86-53.19-1.86-16.73-5.21-32.5-10.6-48.38-5.08-14.97-10.97-29.26-19.12-42.8l-1.59-4.07-18.5-36.65c-6.24-12.37-7.74-26.48-7.57-40.04.25-19.98,7.45-39.03,20.49-54.69l20.09-20.07c-8.05.18-15.04,3.32-22.26,7.05-27.53,14.25-48.22,38.57-57.53,68.19-5.21,16.58-6.24,32.94-3.83,50.17,2.16,15.46,7.96,29.37,12.5,44.11l11.94,38.73c3.68,11.93,4.75,24.3,5.38,37.1.58,11.79-.77,23.03-2.91,34.55-2.07,11.16-5.53,21.64-10.54,31.85-4.33,8.83-9.93,16.76-16.52,23.99-7.46,8.18-16.02,14.68-25.65,20.12-8.86,5.01-18.53,8.41-28.69,10.33-13.62,2.57-27.06,2.74-40.68.85-37.89-5.27-68.28-28.88-83.65-63.74-21.96-49.81-27.3-110.59-25.24-164.96,2.37-62.47,19.65-107.56,51.71-160.27,9.81-16.13,18.12-32.05,24.02-49.95,15.17-45.98.26-97.98-34.4-131.32-20.8-20.01-45.3-33.44-73.84-39.29-43.73-8.96-88.74-4.24-130.37,11.67l-23.67,7.35c-.77.24-2.23-.08-2.49-.53-1.32-2.25,5.32-7.46,10.85-11.75-22.56-7.78-45.09-5.06-57.63,16.32-5.06,8.63-8.59,17.79-11.37,27.53-13.56,47.5-55.24,64.2-75.64,97.22-7.61,12.32-9.45,27.56-2.93,40.7,4.32,8.69,12.66,14.09,21.59,17.44,12.66,4.75,25.08,7.66,38.93,9.25,49.52,5.69,99.31,2.76,147.77-8.77,23.9-5.69,52.26-16.54,71.41-32.41-1.91-1.03-3.28-1.95-3.56-3.43-1.35-7.04,22.41-10.92,37.23,3.17,2.8,2.66,4.7,6.1,2.88,10.1-7.65-3.34-14.03-7.22-22.28-7.94-20.7,21.98-53.09,35.1-82.56,42.37-58.1,14.33-130.85,19.12-189.69,1.57,13,12.63,28.76,19.96,45.47,25.47,52.74,17.4,120.93,21.15,176.36,17.54l41.07-2.67c-20.77,12.79-43.96,17.96-67.84,18.26l-26.67.33c-2.81,18.55-8.31,35.08-15.25,51.89l-14.01,33.97-16.23,42.95c13.88,1.44,27.54,1.92,41.49.17,4.38-1.31,7.32-6.34,11.09-8.73l27.51-25.46c9.33-8.63,20.23-15.54,33.18-16.08l-35.37,34.73-25.27,23.75c-2.8,2.63-6.62,4.1-10.72,4.36-27.55,1.74-54.96.4-81.93-5.68-23.13-5.21-34.68-13.05-42.53-36.34-3.71-11.01-7.49-25.58-18.19-23.49-4.47.87-7.9,4.95-7.95,10.18-.14,12.86,19.13,25,12.69,35.78-3.52,5.88-14.76,3.71-22.84-.33l-18.67-9.34c-4.88-2.44-10.04-4.51-15.66-4.08s-9.69,4.78-10.36,9.47c-.79,5.53,2.74,10.49,8.32,12.56,11.44,4.24,27.79-2.15,43.45,6.3,3.19,1.72,5.35,3.87,5.52,7.18s-1.74,6.67-5.18,8.41c-21.35,10.79-39.89,5.96-47.6,13.18-2.24,2.1-3.42,5.28-3.1,8.01s2.06,5.27,4.7,7.1c6.63,4.58,15.04,2.92,21.47-2.04,10.96-8.44,28.48-17.55,36.07-9.28,9.84,10.72-13.01,17.64-20.57,30.8-2.26,3.94-2.81,8.53-.06,11.78,2.6,3.08,7,4.24,11.27,2.57,7.22-2.84,12.15-9.08,14.93-16.23,4.06-10.47,13.17-16.35,22.49-21.38,8.18-4.42,15.06-5.01,23.97-1.98l41.81,14.21c14.57,4.95,29.24,7.07,44.58,7.41,14.22.31,27.06-2.26,39.69-8.51,14.49-7.16,26.97-16.33,39.96-25.9,8.62-6.36,16.81-12.9,27.54-16.2-1.27,6.44-5.03,11.2-9.34,15.54-13.94,14.02-29.93,25.61-47.08,35.5-33.98,18.97-69.27,13.74-106.09,2.38-7.51,67.51-.07,131.67,51.18,178.09,30.04,27.21,73.61,42.42,113.78,45.56l-26.83-32.5c-3.82-4.63-6.27-10.18-6.99-16.22-.24-1.6.34-3.45,1.77-3.57.89-.07,2.29.56,3.29,1.65l31.99,34.88,25.18,29.78c4.82,5.7,7.38,13.4,6.6,21.16-1.52,15.08-4.93,29.52-10.14,43.48-5.1,13.65-15.58,22.52-29.31,26.65-9.08,2.73-18.61,7.15-18.2,15.19.15,2.96,2.11,5.9,5.05,7.53,5.7,3.16,12.14,2.28,17.21-1.66l10.67-8.3c8.64-6.72,21.39-10.61,26.9-4.33,6.92,7.89.48,20.54-3.69,31.59-2.47,6.54-.9,12.86,5.45,16.19,6.24,3.27,14.75,3.6,19.97-1.88,8.83-9.26-7.66-21.98-5.94-36.87.39-3.38,1.98-6.62,4.49-8,9.65-5.31,21.05,8.49,27.83,19.18,3.28,5.17,6.18,10.25,10.73,14.31,5.56,4.97,12.92,7.83,20.18,6.07,3.78-.92,6.52-3.61,7.52-6.41,6.16-17.27-39.81-22.88-39.52-37.29.15-7.26,12.35-6.66,22.22-3.56l26.59,8.34c5.24,1.64,11.12-.38,13.28-4.85,2.38-4.94.59-11.13-4.54-14.16-14.3-8.45-35.91,6.32-60.28-8.55-5.42-3.3-6.41-11.01-3.83-16.51l16.58-35.27c6.41-13.64,11.4-27.56,11.99-42.84,1.07-27.54-16.88-50.24-32.47-71.43l-19.02-25.86c-.75-1.02-.47-3.04,0-3.71,2.93-4.09,14.64,5.05,21.33,12.35,13.34,14.54,24.37,30.53,33.8,47.96,10.18,18.8,12.7,39.9,6.91,60.92,1.89,1.75,4.5,1.11,7.05,1.37ZM442.15,74.42l4.71-13.62c-7.61,2.4-13.33,6.31-18.4,12.11,5.03-1.3,8.67-.77,13.69,1.51ZM433.23,84.82c-2.56-2.44-9.26-.07-11.13,6.07-.94,3.1-.16,8.26,3.71,8.69,5.61-3.64,11.05-11.3,7.41-14.76ZM332.84,618.94l23.26-23.91c5.91-6.08,11.93-8.78,20.38-6.1l31.03,9.83c4.36,1.38,7.82-1.09,9.45-5.13l18.38-45.45c.93-2.3,1.72-7.66-.99-9.27-7.28-4.32-14.02-10.8-22.14-13.54-7.97-2.69-16.57-4.45-19.55-13.77-3.06-9.61.66-20.01,8.19-26.83,2.75-2.49,6.03-3.65,7.97-7.1l-14.35,9.7c-14.49,9.79-36.65,4.87-41.76-10.55-2.39-7.2-.91-14.25,3.31-20.14,9.81-13.7,30.26-8.22,45.11-14.63l-26.43-1.23c-9.48-.44-18.11-5.04-22.06-14.01-3.78-8.57-2.33-19.95,4.53-26.58,8.88-8.58,21.87-8.53,32.47-3.36l27.27,13.31-7.87-11.81c-4.65-6.97-4.94-15.31-1.96-23.97l-31.67,6.89c-6.75,1.47-11.98-.72-16.54-5.76l-29.85-32.99c-2.78-3.07-1.35-9.29-.25-12.85l8.71-28.2c1.36-4.4-1.43-7.52-5.19-9.33-14.77-7.1-29.71-12.81-44.92-18.92-4.56-1.83-8.02-.38-10.45,3.79l-16.87,28.93c-2.8,4.81-7.34,8.69-13.18,8.68l-40.01-.02c-4.81,0-9.69-2.63-12.05-6.72l-18.31-31.8c-1.03-1.78-4.96-4.75-7.26-3.96-16.8,5.75-32.77,12.39-48.66,20.05-4.18,2.01-5.91,5.89-4.48,10.33l9.75,30.24c1.72,5.33-.7,9.87-4.19,13.7l-25.24,27.7c-4.68,5.13-9.89,9.44-17.45,7.25l-36.9-10.71c-4.29-1.25-7.24,2.03-8.73,5.38l-19.74,44.17c-1.35,3.02-.04,5.75,2.55,7.41l31.08,19.79c4.77,3.04,8.58,6.99,8.55,13.3l-.2,44.75c-.02,4.86-2.75,8.67-6.64,11.02l-33,19.9c-3,1.81-5.13,5.45-3.67,9.02l18.81,45.87c1.95,4.76,5.17,7.5,10.73,6l35.22-9.55c5.42-1.47,10.49.67,14.27,4.51l27.7,28.17c3.92,3.98,6.14,9.31,4.62,14.88l-9.63,35.25c-.58,2.13.16,5.67,2.33,6.62l47.96,20.97c3.13,1.37,6.76-.16,8.38-3.02l16.55-29.24c3.62-6.41,9.26-9.48,16.72-9.45l35.99.14c5.6.02,11.07,1.97,14.08,6.83l20.3,32.64c1.74,2.8,5.83,2.93,8.8,1.61l47.71-21.17c3.03-1.35,3.09-5.5,2.35-8.22l-8.26-30.75c-2.01-7.46.57-13.02,5.97-18.57ZM465.01,409.28c9.75,12.55,31.55,13.31,47.65,16.12,6.86-23.09,16.57-44.2,26.07-67.29l-24.63,22.08c-7.34,6.58-13.79,14.14-22.89,18l-26.19,11.08ZM474.51,847.69c1.5,7.11,13.93,10.76,24.04,3.44,14.14-10.24,18.96-24.43,35.37-33.46,7.55-4.16,16.99-4.65,23.46.93l13.47,11.61c5.95,5.13,15.7,7.96,22.28,2.69,5.76-4.63,3.02-14.29-3.01-17.01l-13.87-6.26c-5.59-2.52-10.74-6.31-12.52-12.45l-12.51-43.29c-4.8-25.12,4.75-37.32,24.84-51.12-26.43-16.47-45.44-37.3-60.22-63.86l-21.65,29.16c-15.16,20.42-10.41,45.08.64,67.11l19.67,39.21c1.96,3.91,1.63,8.43-.77,11.46-6.1,7.73-32.51,1.1-45.6-4.03-9.52-3.73-20.4-4.07-23.87,2.9-1.06,2.12-1.48,5.95.66,7.44,5.03,3.5,11.65,3.23,17.71,3.38l19.24.48c2.16.05,3.73,1.41,4.27,3.3,1.83,6.43-18.65,11.4-33.37,8.74-6.51-1.18-13.4-.82-17.67,4.67-2.46,3.16-3.18,7.52-1.37,10.9,4.57,8.52,15.79,5.69,25.7,1.47,14.47-6.17,28.67-12.41,44-15.91,3.34-.76,6.83.7,7.78,3.05,6.09,15.05-40.15,19.13-36.7,35.45ZM804.61,847.69c-2.85-2.28-.89,2.34-1.95.45l1.95-.45ZM741.56,850.74c-.3-1-1.47-.58-1.26.33l1.26-.33Z"/>
      <path class="cls-3" d="M816.03,628.21c17.37,34.75,9.58,78.91-18.03,106.86-2.55-.26-5.16.38-7.05-1.37,5.8-21.02,3.27-42.12-6.91-60.92-9.44-17.43-20.47-33.42-33.8-47.96-6.7-7.3-18.41-16.44-21.33-12.35-.48.67-.76,2.69,0,3.71l19.02,25.86c15.59,21.19,33.53,43.89,32.47,71.43-.59,15.28-5.58,29.21-11.99,42.84l-16.58,35.27c-2.58,5.5-1.59,13.2,3.83,16.51,24.38,14.87,45.98.1,60.28,8.55,5.13,3.03,6.93,9.22,4.54,14.16-2.16,4.47-8.04,6.5-13.28,4.85l-26.59-8.34c-9.86-3.09-22.07-3.7-22.22,3.56-.29,14.4,45.68,20.02,39.52,37.29-1,2.8-3.73,5.49-7.52,6.41-7.25,1.77-14.61-1.1-20.18-6.07-4.55-4.07-7.45-9.15-10.73-14.31-6.79-10.69-18.18-24.49-27.83-19.18-2.5,1.38-4.1,4.62-4.49,8-1.72,14.89,14.77,27.61,5.94,36.87-5.22,5.47-13.74,5.15-19.97,1.88-6.35-3.33-7.91-9.65-5.45-16.19,4.17-11.05,10.61-23.7,3.69-31.59-5.51-6.28-18.26-2.39-26.9,4.33l-10.67,8.3c-5.07,3.94-11.51,4.82-17.21,1.66-2.94-1.63-4.9-4.58-5.05-7.53-.41-8.04,9.12-12.46,18.2-15.19,13.73-4.13,24.21-13,29.31-26.65,5.21-13.95,8.62-28.39,10.14-43.48.78-7.76-1.78-15.46-6.6-21.16l-25.18-29.78-31.99-34.88c-1-1.09-2.41-1.72-3.29-1.65-1.43.12-2.01,1.96-1.77,3.57.72,6.04,3.17,11.6,6.99,16.22l26.83,32.5c-40.17-3.14-83.74-18.35-113.78-45.56-51.25-46.42-58.69-110.58-51.18-178.09,36.82,11.36,72.11,16.59,106.09-2.38,17.14-9.89,33.14-21.49,47.08-35.5,4.31-4.34,8.07-9.1,9.34-15.54-10.72,3.3-18.91,9.84-27.54,16.2-12.99,9.57-25.47,18.74-39.96,25.9-12.64,6.25-25.47,8.82-39.69,8.51-15.34-.33-30-2.45-44.58-7.41l-41.81-14.21c-8.91-3.03-15.79-2.43-23.97,1.98-9.33,5.04-18.43,10.92-22.49,21.38-2.77,7.14-7.7,13.38-14.93,16.23-4.27,1.68-8.67.52-11.27-2.57-2.75-3.26-2.2-7.84.06-11.78,7.56-13.16,30.41-20.07,20.57-30.8-7.59-8.27-25.11.84-36.07,9.28-6.43,4.96-14.85,6.62-21.47,2.04-2.64-1.83-4.39-4.5-4.7-7.1s.86-5.91,3.1-8.01c7.71-7.23,26.25-2.39,47.6-13.18,3.44-1.74,5.34-5.18,5.18-8.41s-2.32-5.46-5.52-7.18c-15.67-8.45-32.01-2.06-43.45-6.3-5.58-2.07-9.12-7.03-8.32-12.56.67-4.69,4.83-9.05,10.36-9.47s10.77,1.63,15.66,4.08l18.67,9.34c8.08,4.04,19.32,6.22,22.84.33,6.44-10.78-12.83-22.92-12.69-35.78.06-5.23,3.49-9.31,7.95-10.18,10.7-2.09,14.48,12.48,18.19,23.49,7.85,23.29,19.39,31.13,42.53,36.34,26.96,6.08,54.37,7.41,81.93,5.68,4.1-.26,7.92-1.74,10.72-4.36l25.27-23.75,35.37-34.73c-12.95.54-23.85,7.44-33.18,16.08l-27.51,25.46c-3.77,2.39-6.71,7.42-11.09,8.73-13.95,1.75-27.61,1.28-41.49-.17l16.23-42.95,14.01-33.97c6.94-16.82,12.44-33.35,15.25-51.89l26.67-.33c23.89-.29,47.08-5.47,67.84-18.26l-41.07,2.67c-55.43,3.61-123.62-.14-176.36-17.54-16.71-5.51-32.47-12.84-45.47-25.47,58.84,17.54,131.58,12.76,189.69-1.57,29.47-7.27,61.86-20.39,82.56-42.37,8.25.72,14.63,4.59,22.28,7.94,1.82-4-.08-7.44-2.88-10.1-14.82-14.09-38.58-10.2-37.23-3.17.28,1.48,1.65,2.4,3.56,3.43-19.15,15.87-47.51,26.72-71.41,32.41-48.47,11.53-98.25,14.46-147.77,8.77-13.85-1.59-26.27-4.5-38.93-9.25-8.93-3.35-17.28-8.74-21.59-17.44-6.52-13.14-4.68-28.38,2.93-40.7,20.4-33.02,62.08-49.72,75.64-97.22,2.78-9.73,6.31-18.9,11.37-27.53,12.54-21.38,35.07-24.1,57.63-16.32-5.52,4.29-12.16,9.49-10.85,11.75.26.45,1.73.77,2.49.53l23.67-7.35c41.64-15.91,86.64-20.64,130.37-11.67,28.54,5.85,53.04,19.28,73.84,39.29,34.65,33.34,49.56,85.34,34.4,131.32-5.9,17.9-14.21,33.81-24.02,49.95-32.06,52.71-49.35,97.81-51.71,160.27-2.06,54.37,3.28,115.15,25.24,164.96,15.37,34.87,45.75,58.47,83.65,63.74ZM662.43,68.8c-2.14-10.04-10.32-14.75-17.61-20.42-23.35-13.12-52.99-12.67-75.47,2.16-12.97,8.56-22.49,21.55-23.07,37.3,28.31-41.49,77.03-49.66,116.16-19.04ZM668.54,129.05c0-32.1-26.02-58.12-58.12-58.12s-58.12,26.02-58.12,58.12,26.02,58.12,58.12,58.12,58.12-26.02,58.12-58.12ZM432.19,184.9c-4.03-3.28-15.11,3.26-16.76,12.45-.51,2.86.72,6.04,2.46,6.89,8.7,4.27,19.18-15.38,14.3-19.35Z"/>
      <path class="cls-3" d="M474.51,847.69c-3.45-16.31,42.79-20.39,36.7-35.45-.95-2.35-4.44-3.81-7.78-3.05-15.33,3.5-29.52,9.73-44,15.91-9.91,4.23-21.14,7.05-25.7-1.47-1.81-3.38-1.09-7.74,1.37-10.9,4.27-5.49,11.16-5.85,17.67-4.67,14.72,2.66,35.2-2.31,33.37-8.74-.54-1.89-2.11-3.25-4.27-3.3l-19.24-.48c-6.06-.15-12.68.11-17.71-3.38-2.14-1.49-1.72-5.32-.66-7.44,3.47-6.97,14.35-6.63,23.87-2.9,13.09,5.13,39.5,11.76,45.6,4.03,2.4-3.04,2.73-7.55.77-11.46l-19.67-39.21c-11.05-22.04-15.8-46.69-.64-67.11l21.65-29.16c14.78,26.56,33.79,47.39,60.22,63.86-20.08,13.8-29.64,26.01-24.84,51.12l12.51,43.29c1.77,6.14,6.93,9.93,12.52,12.45l13.87,6.26c6.03,2.72,8.77,12.39,3.01,17.01-6.57,5.28-16.33,2.44-22.28-2.69l-13.47-11.61c-6.47-5.58-15.91-5.09-23.46-.93-16.41,9.03-21.23,23.23-35.37,33.46-10.11,7.32-22.54,3.66-24.04-3.44Z"/>
      <g>
        <path class="cls-1" d="M856.71,627.36c22.24,28.64,24.35,69,9.38,102.38-22.3,5.56-45.1,7.64-68.09,5.32,27.61-27.95,35.4-72.11,18.03-106.86,13.61,1.89,27.06,1.73,40.68-.85Z"/>
        <path class="cls-3" d="M885.4,617.03c30.2,19.5,44.28,56.92,35.59,91.73-17.55,9.41-35.58,16.16-54.9,20.98,14.97-33.39,12.85-73.75-9.38-102.38,10.16-1.92,19.83-5.33,28.69-10.33Z"/>
        <path class="cls-1" d="M970.25,668.89c-13.84,16.38-30.36,29.74-49.26,39.87,8.68-34.81-5.4-72.24-35.59-91.73,9.63-5.44,18.19-11.94,25.65-20.12,32.86,11.17,55.03,37.55,59.2,71.98Z"/>
        <path class="cls-3" d="M999.98,617.18c-7.08,19-16.66,36.24-29.73,51.71-4.17-34.43-26.33-60.81-59.2-71.98,6.59-7.23,12.19-15.16,16.52-23.99,29.92,1.24,57.72,17.82,72.4,44.26Z"/>
        <path class="cls-1" d="M1012.47,561.06c-1.73,19.44-5.7,37.89-12.49,56.12-14.69-26.44-42.49-43.02-72.4-44.26,5.01-10.21,8.47-20.69,10.54-31.85,26.32-5.85,54.28,1.13,74.36,19.99Z"/>
        <path class="cls-3" d="M1011.61,507.87c1.99,17.93,2.46,35.17.86,53.19-20.08-18.86-48.04-25.84-74.36-19.99,2.14-11.52,3.49-22.76,2.91-34.55,21.73-10.28,49.27-10.55,70.59,1.35Z"/>
        <path class="cls-1" d="M1001.01,459.49c5.39,15.88,8.74,31.65,10.6,48.38-21.32-11.9-48.86-11.63-70.59-1.35-.63-12.8-1.7-25.17-5.38-37.1,19.24-12.83,43.15-16.04,65.37-9.94Z"/>
        <path class="cls-3" d="M981.89,416.68c8.15,13.55,14.04,27.83,19.12,42.8-22.22-6.1-46.13-2.9-65.37,9.94l-11.94-38.73c16.39-13.03,37.65-18.35,58.19-14.01Z"/>
        <path class="cls-1" d="M961.81,375.97l18.5,36.65,1.59,4.07c-20.54-4.34-41.8.98-58.19,14.01-4.54-14.74-10.34-28.65-12.5-44.11,2.73-.19,4.89-2.03,7.53-3.49,13.17-7.27,28.01-8.96,43.07-7.13Z"/>
        <path class="cls-3" d="M954.23,335.93c-.17,13.56,1.33,27.67,7.57,40.04-15.06-1.83-29.9-.13-43.07,7.13-2.64,1.45-4.79,3.3-7.53,3.49-2.41-17.23-1.38-33.6,3.83-50.17,12.87-3.96,26.41-4.86,39.2-.48Z"/>
        <path class="cls-1" d="M954.23,335.93c-12.79-4.38-26.33-3.48-39.2.48,9.31-29.62,29.99-53.94,57.53-68.19,7.22-3.73,14.21-6.88,22.26-7.05l-20.09,20.07c-13.04,15.66-20.24,34.71-20.49,54.69Z"/>
      </g>
      <path class="cls-3" d="M465.01,409.28l26.19-11.08c9.1-3.85,15.55-11.42,22.89-18l24.63-22.08c-9.5,23.09-19.2,44.2-26.07,67.29-16.1-2.81-37.9-3.57-47.65-16.12Z"/>
      <path class="cls-3" d="M433.23,84.82c3.64,3.46-1.8,11.13-7.41,14.76-3.87-.43-4.66-5.59-3.71-8.69,1.87-6.15,8.56-8.51,11.13-6.07Z"/>
      <path class="cls-3" d="M442.15,74.42c-5.03-2.28-8.66-2.81-13.69-1.51,5.07-5.79,10.8-9.71,18.4-12.11l-4.71,13.62Z"/>
      <path class="cls-2" d="M662.43,68.8c-39.13-30.62-87.85-22.45-116.16,19.04.59-15.75,10.1-28.74,23.07-37.3,22.48-14.83,52.13-15.28,75.47-2.16,7.29,5.67,15.48,10.39,17.61,20.42Z"/>
      <path class="cls-2" d="M432.19,184.9c4.88,3.97-5.6,23.62-14.3,19.35-1.74-.85-2.97-4.03-2.46-6.89,1.65-9.2,12.73-15.73,16.76-12.45Z"/>
      <g>
        <path class="cls-2" d="M668.54,129.05c0,32.1-26.02,58.12-58.12,58.12s-58.12-26.02-58.12-58.12,26.02-58.12,58.12-58.12,58.12,26.02,58.12,58.12ZM618.16,176.24c17.48-2.49,30.18-15.96,35.28-29.6,6.48-17.32,3.3-35.44-7.95-48.7-14.45-17.04-40.62-21.34-59.67-8.83,24.11-5.9,46.4,4.11,55.32,26.35,9.45,23.59-.5,48.58-22.98,60.78ZM594.78,117.46c0-5.81-4.71-10.52-10.52-10.52s-10.52,4.71-10.52,10.52,4.71,10.52,10.52,10.52,10.52-4.71,10.52-10.52Z"/>
        <path class="cls-3" d="M618.16,176.24c22.48-12.2,32.43-37.19,22.98-60.78-8.91-22.25-31.2-32.25-55.32-26.35,19.05-12.51,45.21-8.21,59.67,8.83,11.25,13.27,14.43,31.38,7.95,48.7-5.1,13.64-17.8,27.1-35.28,29.6Z"/>
        <circle class="cls-3" cx="584.26" cy="117.46" r="10.52"/>
      </g>
      <path class="cls-1" d="M332.84,618.94c-5.41,5.56-7.98,11.11-5.97,18.57l8.26,30.75c.73,2.72.68,6.87-2.35,8.22l-47.71,21.17c-2.97,1.32-7.06,1.19-8.8-1.61l-20.3-32.64c-3.02-4.85-8.49-6.8-14.08-6.83l-35.99-.14c-7.47-.03-13.1,3.04-16.72,9.45l-16.55,29.24c-1.62,2.86-5.25,4.39-8.38,3.02l-47.96-20.97c-2.17-.95-2.91-4.49-2.33-6.62l9.63-35.25c1.52-5.57-.7-10.9-4.62-14.88l-27.7-28.17c-3.78-3.84-8.85-5.98-14.27-4.51l-35.22,9.55c-5.56,1.51-8.77-1.24-10.73-6l-18.81-45.87c-1.46-3.56.67-7.2,3.67-9.02l33-19.9c3.89-2.35,6.62-6.16,6.64-11.02l.2-44.75c.03-6.31-3.79-10.26-8.55-13.3l-31.08-19.79c-2.6-1.65-3.9-4.39-2.55-7.41l19.74-44.17c1.5-3.35,4.44-6.63,8.73-5.38l36.9,10.71c7.56,2.2,12.77-2.11,17.45-7.25l25.24-27.7c3.49-3.83,5.91-8.37,4.19-13.7l-9.75-30.24c-1.43-4.44.31-8.31,4.48-10.33,15.89-7.66,31.86-14.3,48.66-20.05,2.3-.79,6.23,2.18,7.26,3.96l18.31,31.8c2.36,4.09,7.24,6.72,12.05,6.72l40.01.02c5.84,0,10.38-3.87,13.18-8.68l16.87-28.93c2.44-4.18,5.89-5.63,10.45-3.79,15.21,6.1,30.16,11.82,44.92,18.92,3.77,1.81,6.55,4.94,5.19,9.33l-8.71,28.2c-1.1,3.56-2.53,9.77.25,12.85l29.85,32.99c4.56,5.04,9.79,7.23,16.54,5.76l31.67-6.89c-2.98,8.67-2.69,17,1.96,23.97l7.87,11.81-27.27-13.31c-10.6-5.17-23.59-5.22-32.47,3.36-6.86,6.63-8.31,18.01-4.53,26.58,3.95,8.97,12.58,13.56,22.06,14.01l26.43,1.23c-14.85,6.42-35.3.93-45.11,14.63-4.22,5.89-5.7,12.94-3.31,20.14,5.11,15.41,27.28,20.34,41.76,10.55l14.35-9.7c-1.94,3.45-5.22,4.61-7.97,7.1-7.53,6.83-11.25,17.22-8.19,26.83,2.97,9.33,11.58,11.08,19.55,13.77,8.12,2.74,14.86,9.22,22.14,13.54,2.71,1.61,1.92,6.97.99,9.27l-18.38,45.45c-1.63,4.04-5.09,6.51-9.45,5.13l-31.03-9.83c-8.45-2.68-14.46.02-20.38,6.1l-23.26,23.91ZM318.88,485.06c0-51.39-41.66-93.05-93.05-93.05s-93.05,41.66-93.05,93.05,41.66,93.05,93.05,93.05,93.05-41.66,93.05-93.05Z"/>
      <path class="cls-2" d="M318.88,485.06c0,51.39-41.66,93.05-93.05,93.05s-93.05-41.66-93.05-93.05,41.66-93.05,93.05-93.05,93.05,41.66,93.05,93.05ZM306.84,485.06c0-44.77-36.29-81.06-81.06-81.06s-81.06,36.29-81.06,81.06,36.29,81.06,81.06,81.06,81.06-36.29,81.06-81.06Z"/>
    </g>
  </g>
</svg>