<?xml version="1.0" encoding="UTF-8"?>
<svg id="_Слой_2" data-name="Слой 2" xmlns="http://www.w3.org/2000/svg" viewBox="0 0 616.51 531.51">
  <defs>
    <style>
      .cls-1 {
        fill: #b650f4;
        stroke: #1e1e1e;
        stroke-miterlimit: 10;
        stroke-width: 4px;
      }

      .cls-2 {
        fill: #f9675d;
      }

      .cls-3 {
        fill: #6b2ee5;
      }

      .cls-4 {
        fill: #fff;
      }

      .cls-5 {
        fill: #1e1e1e;
      }

      .cls-6 {
        fill: #cdc9cf;
      }

      .cls-7 {
        fill: #3f2556;
      }

      .cls-8 {
        fill: #fdfcfd;
      }

      .cls-9 {
        fill: #aaff3f;
      }

      .cls-10 {
        fill: #fdfdfd;
      }

      .cls-11 {
        fill: #ff0;
      }
    </style>
  </defs>
  <g id="_Слой_1-2" data-name="Слой 1">
    <g>
      <path class="cls-8" d="M463.87,341.84l2.99,28.85c-.65.28-1.21,1.15-1.1,1.68.14.72.61,1.75,1.13,2.52l19.44,28.53c5.43,7.97,7.65,17.22,7.65,26.49-2.84-1.12-1.73,7.03-6.09,15.95l-9.5,19.4c-2.16,4.42-2.41,10.37.56,14.39,2.4,3.26,6.29,4.42,9.94,6.53l-1.9,3.29c-.58,1-2.04,1.41-1.95,2.83.23,3.57,4.2,4.87,4.72,7.78l-6.57-3.65c-2.14-1.19-4.28-1.39-6.38-1.77-2.63-.47-7.46-1.33-8.53,2.51-2.29,8.18,6.17,18.39,1.73,24.05-2.38,3.04-9.82,3.65-12.82-.36-1.29-1.72-1.45-4.19-.8-6.55l3.2-11.61c.95-3.43-.5-6.14-1.58-8.86-.7-1.77-.9-3.19-2.85-3.21l-6.03-.05c11.84-19.63,16.53-48.28-.03-63.92l-17.99-17c-1.89-1.79-3.46-3.88-6.08-3.73-2.25-2.48-3.56-5.64-7.27-7.5.89,4.49,2.2,7.82,3.71,11.04-23.14,4.61-49.35-7.35-65.45-24.04-7.92-8.2-10.51-21.41-13.25-32.5.89-.18,1.23-.88,1.17-1.98-.61-12.64-1.13-39.92,2.2-43.5,2.87-3.09,21.73,3.26,39.36,1.96,12.85-.95,25.3-4.14,35.28-12.68,11.2-9.58,20.7-22.72,23.42-36.55,1.03-5.24,4.05-9.47,3.64-15.82-7.94,13.72-17.22,25.95-28.68,35.69-1.54-.46-2.9.18-4.25.92-19.85,10.97-43.21,10.82-65.1,5.31-4.11-1.03-7.16.67-11.02,1.54l-16.82,3.8c-2.82-3.87-3.04-7.57-3.91-11.89-.97-4.84-5.96-8.71-10.54-9.59,2.58-.6,6.1-1.52,7.22-4.32,1.59-3.98-1.48-7.5-4.78-8.74.58-6.14-10.48-8.35-19.08-9-1.7-2.67-.83-5.98,1.13-7.75,2.28-2.05,6.06-2.57,8.45-.7l17.37,13.59c1.94,1.52,6.54,3.43,8.05.79,2.23-3.88-.82-8.6-2.26-12.06.79-1.91,1.84-4.18,3.31-4.57,2.23-.59,3.99-.39,5.81-.34l3.36,16.98c.99,5.01,5.16,11.74,10.88,11.69l33.42-.34c9.15-.09,16.61-5.15,21.13-12.79l13.32-22.5c3.29-5.56,7-9.92,11.54-15.04-7.82,1.52-13.39,6.21-17.27,12.29l-12.39,19.41c-4.45,6.98-10.36,11.36-18.86,11.58l-26.21.68,7.57-23.66,10.75-31.58c16.68-1.43,32.62-6.22,47.89-13.63l26.1-14.93c1.39-.8,2-1.77,1.8-3.28l6.28-2.69c5.57-2.39,10.32-6.11,12.8-12.31l-20.95,7.5c-.14-.96-1.05-1.3-2.02-1.14-17.99,2.88-35.57,3.87-54.02,3.16l-58.04-5.11c-12.29-1.08-23.73-4.37-34.15-8.7,45.3,2.91,103.54-4.61,140.24-32.49l11.67,1.86c-4.24-11.16-12.06-9.06-19.28-5.43,1.44,2.2-1.17-.19,1.05,1.11-8.52,6.21-17.72,10.32-28.13,14.02-33.26,11.83-68.82,16.44-104.08,12.43-10.34-1.18-21-3-29.26-9.03-10.78-7.87-9.64-29.55,5.03-44.09l23-22.81c15.13-15.01,10.87-31.81,21.41-44.57,8.2-9.94,21.34-11.22,32.8-6.76-2.63,2.41-5.49,3.23-6.34,7.08l32.95-11.04c40.89-9.99,89.61,1.28,113.93,36.27,17.22,24.78,18.47,55.6,3.95,81.71l-15.72,28.27c-7.97,14.33-14.06,28.99-17.72,45.13-11.4,50.18-9.4,88.77,2.68,137.49ZM425.67,39.36c-7-11.96-25.63-16.81-40.08-13.23-10.39,2.57-20.65,9.87-25.73,20.95-2.11,4.59-1.46,2.03.27,6.82,6.1-13.53,13.13-15.66,26.71-19.8,13.6-3.79,27.04-.53,38.47,6.7l.36-1.45ZM426.48,40.18h0c.95.07.69.4,0,0ZM432.72,80.1c0-19.54-15.84-35.37-35.38-35.37s-35.38,15.84-35.38,35.37,15.84,35.37,35.38,35.37,35.38-15.84,35.38-35.37ZM293.1,119.89c1.35-1.77.35-4.01-.56-4.72-1.01-.77-2.71-1.14-4.18-.42-4.45,2.19-6.54,8.06-4.55,12.59.55,1.27,2.58,1.16,3.31.46.43-.41.82-1.14,1.5-2.03l4.49-5.88Z"/>
      <path class="cls-8" d="M287.01,166.55c3.49,0,6.31,1.27,10.22,2.3l16.29,4.28-.21,66.77c-4.53-3.29-7.67-6.88-12.7-8.3-8.41-2.37-16.71,2.82-18.31,11.05-1.64,8.43,4.78,14.67,13.4,17.07-5.66.72-9.95-.9-14.41.43,1.03-4.2-.11-8.59-.04-13.14.19-12.47,1.04-24.4.14-37.01-.48-6.71-6.44-12.69-13.37-12.68l-87.81.08c-7.76,0-13.35,7.21-13.34,14.68l.04,72.91c0,8.65,6.95,14.68,15.33,14.67l84.52-.12c6.37,0,11.96-3.94,14.01-9.69.57-1.6,1.05-2.57,2.43-3.26,4.49,1.69,9.56-.08,14.51-.84l10.44-1.62c-5.74,4.68-14.67,5.31-17.57,13.31-2.26,6.22.73,12.76,5.76,15.75,5.41,3.21,11.34,2.8,17.17-1.6l-.06,60.29c-.01,14.5-11.52,23.9-25.55,23.89l-254.52-.1c-13.67,0-25.32-9.56-25.33-23.92l-.07-205.54,279.01.34ZM46.13,197.57c-3.63.66-10.46,4.92-10.56,9.65v82.67c-.01,4.75,7.27,9.92,11.63,9.93l87.93.25c3.53.01,6.39-.51,8.91-2.9l1.02-.97c2.2-2.09,5.09-4.57,5.08-8.31l-.21-78.87c-.01-4.48-5.68-11.39-9.94-11.44l-38.43-.45h-13.31s-2.69.04-2.69.04h-33.9s-3.36,0-3.36,0l-2.16.39ZM145.47,335.13c3.61,0,4.18-4.67,3.56-6.36s-2.15-3.89-4.99-3.89H41.36c-3.7,0-5.65,2.69-5.43,5.58.19,2.54,2,4.81,5.37,4.81l104.17-.14ZM269.41,359.13c8.92-3.17,13.45-9.97,12.58-18.73-.63-6.75-6.49-15.33-14.94-15.31l-85.79.2c-8.92.02-13.93,8.87-14.23,16.23s4.52,17.09,13.13,17.14l89.24.47ZM104.54,358.99c3.55,0,4.76-3.48,4.58-5.47-.2-2.33-1.92-4.81-5-4.81l-63.84.02c-3.19,0-4.59,3.36-4.32,5.65s2.1,4.77,5.31,4.77l63.27-.16Z"/>
      <path class="cls-3" d="M287.01,166.55l-279.01-.34.03-20.07c.2-12.28,8.26-22.4,20.54-24.75l222.09.11c1.16,8.39,3.52,16.75,10.25,21.78,3.37,2.52,7.03,4.19,8.4,8.62,4.47,5.09,9.94,8.94,16.1,11.91,1.24.6,1.68,1.39,1.6,2.75ZM42.59,143.38c0-3.97-3.22-7.2-7.2-7.2s-7.2,3.22-7.2,7.2,3.22,7.2,7.2,7.2,7.2-3.22,7.2-7.2ZM66.78,143.32c0-3.92-3.18-7.11-7.11-7.11s-7.11,3.18-7.11,7.11,3.18,7.11,7.11,7.11,7.11-3.18,7.11-7.11ZM91.14,143.37c0-3.97-3.22-7.19-7.19-7.19s-7.19,3.22-7.19,7.19,3.22,7.19,7.19,7.19,7.19-3.22,7.19-7.19Z"/>
      <path class="cls-6" d="M281.29,260.16c-5.15,2.85-8.12,7.79-7.6,13.85.48,5.61,3.98,10.5,9.51,12.58-1.38.69-1.86,1.67-2.43,3.26-2.05,5.76-7.64,9.68-14.01,9.69l-84.52.12c-8.38.01-15.32-6.02-15.33-14.67l-.04-72.91c0-7.47,5.58-14.67,13.34-14.68l87.81-.08c6.93,0,12.89,5.97,13.37,12.68.9,12.61.04,24.54-.14,37.01-.07,4.55,1.07,8.94.04,13.14ZM252.41,227.16c0-6.43-5.22-11.65-11.65-11.65s-11.65,5.22-11.65,11.65,5.22,11.65,11.65,11.65,11.65-5.22,11.65-11.65ZM266.47,293.43c3.79,0,6.16-2.01,8.16-4.88l-30.76-40.1-18.89,20.98-21.6-25.7-16.65,24.92-12.51,18.77c-.46,2.83,4.69,6.1,7.86,6.09l84.38-.08Z"/>
      <path class="cls-2" d="M269.41,359.13l-89.24-.47c-8.62-.05-13.42-9.92-13.13-17.14s5.31-16.2,14.23-16.23l85.79-.2c8.44-.02,14.31,8.56,14.94,15.31.87,8.75-3.66,15.55-12.58,18.73Z"/>
      <path class="cls-6" d="M145.47,335.13l-104.17.14c-3.37,0-5.18-2.27-5.37-4.81-.22-2.89,1.73-5.58,5.43-5.58h102.68c2.84,0,4.34,2.11,4.99,3.89s.05,6.36-3.56,6.36Z"/>
      <path class="cls-6" d="M104.54,358.99l-63.27.16c-3.21,0-5.03-2.39-5.31-4.77s1.12-5.65,4.32-5.65l63.84-.02c3.08,0,4.8,2.47,5,4.81.17,1.99-1.04,5.46-4.58,5.47Z"/>
      <circle class="cls-9" cx="35.4" cy="143.38" r="7.2"/>
      <circle class="cls-11" cx="83.95" cy="143.37" r="7.19"/>
      <circle class="cls-2" cx="59.67" cy="143.32" r="7.11"/>
      <path class="cls-8" d="M266.47,293.43l-84.38.08c-3.17,0-8.32-3.26-7.86-6.09l12.51-18.77,16.65-24.92,21.6,25.7,18.89-20.98,30.76,40.1c-2,2.87-4.37,4.88-8.16,4.88Z"/>
      <circle class="cls-11" cx="240.75" cy="227.16" r="11.65"/>
      <path class="cls-5" d="M503.46,374.31c41.96,9.48,25.31,74.52-4.18,71.78M499.28,446.09l-8,19.4c-.75,1.82-3.16,6.03-1.12,8.01,9.9,9.62,23.9,5.2,31.49,7.47,7.96,2.38,12.15,9.86,9.45,17.67-2.4,6.94-10.26,10.41-18.8,7.54,2.16,5.91,1.96,10.83-1.36,15-2.9,3.64-7.55,5.82-13.05,5.25s-10.16-3.82-13.47-8.25l-6.53-8.72c.58,5.34,1.9,10.36-.59,14.71-3.11,5.43-8.88,7.75-14.8,7.3-5.15-.39-11.32-3.13-13.47-8.75-2.73-7.14.47-13.85,3.4-21.3-3.84.65-5.57,3.69-7.97,5.87-5.49,5-12.95,6.97-19.74,3.67-4.97-2.41-7.58-7.46-7.31-12.46.29-5.51,3.36-10.52,8.93-12.44l13.63-4.69c5.82-6.66,6.75-15.29,7.96-23.69,1.02-7.05-.69-17.14-6.71-21.03-20.35-.52-39.56-3.19-57.5-13.18-11.24,4.48-18.36,12.54-14.52,24.05,2.65,7.94,4.99,15.44,6.05,23.77l12.66,6.56c5.93,3.07,7.99,9.45,6.45,16.02-1.25,5.36-6.91,9.53-13.44,9.34-13.37-.38-14.85-12.91-25.34-8.91-7.68,2.93-14.25,8.02-19.73,14.29-6.46,7.39-17.12,8.57-24.1,1.52-3.84-3.88-5.28-8.82-3.29-14.85-6.51,1.86-12.52,2.12-17.61-1.14-5.28-3.38-7.02-9.37-5.81-14.7,1.35-5.98,6.92-8.43,11.98-10.47.29-4.39,1.23-9.57,4.62-12.17,3.83-2.93,8.19-4.08,13.05-2.44l14.67,4.93-11.31-21.32c-10.31-24.96,2.43-45.94,22.04-63.72-8.89-23.29-10.75-48.07-6.61-73.78-3.66.02-7.13,1.15-11.55,2.12l-.27,69.47c-.06,16.64-13.34,31.56-30.69,31.55l-261.62-.14C13.52,403.41-.01,388.21,0,372.73l.17-228.77c.01-16.33,14.19-30.11,30.16-30.12l220.22-.17c1.2-9.07,4.28-17.72,10.64-24.33l19.59-20.37c5.75-5.98,11.87-11.83,15.59-19.33l4.76-16.22c3.98-13.57,14.06-24.33,27.94-27.92,9.44-2.44,18.9.67,28.01,3.06,46.46-16.33,101.72-10.41,135.16,27.25,24.04,27.07,28.35,65.48,11.61,97.52l-15.53,27.4c-9.82,17.32-17.19,35.16-21.07,54.89-3.57,18.14-6.02,35.73-5.55,54.47.72,28.73,5.54,56.72,15.32,83.66,4.19,11.53,16.65,18.28,26.44,20.55l-4.18,71.78ZM295.71,152.68c-2.46-1-.57-.23-1.92-.77-.91-.37-1.82-.93-2.79-1.06-2.83-.64-6.38-2.1-10.64-1.53,11.13,10.61,35.55,16.37,51.05,17.39l61.47,4.03c17.65,1.16,35.11-.56,51.06-6.27l11.48-4.11c3.28-1.18,5.65,3.17,2.9,5.31-1.88,1.47-3.99,2.64-6.23,3.6l-6.28,2.69c-16.82,7.21-51.91,7.9-72.64,6.72-.37,9.2-.55,17.46-3.16,25.12l-10.75,31.58-7.57,23.66,26.21-.68c8.5-.22,14.41-4.6,18.86-11.58l12.39-19.41c3.88-6.08,9.45-10.77,17.27-12.29-4.54,5.12-8.25,9.48-11.54,15.04l-13.32,22.5c-4.52,7.64-11.98,12.7-21.13,12.79l-33.42.34c-5.72.06-9.89-6.68-10.88-11.69l-3.36-16.98c-.46-2.3-2.12-4.09-3.82-4.71-2.51-.91-5.61-.39-6.78,1.91-1.49,2.92.54,5.45,1.48,7.7,1.44,3.45,4.49,8.18,2.26,12.06-1.51,2.64-6.12.72-8.05-.79l-17.37-13.59c-2.39-1.87-6.17-1.35-8.45.7-1.96,1.77-2.83,5.08-1.13,7.75,1.04,1.62,2.4,2.75,4.55,3.56l14.53,5.44c3.3,1.23,6.37,4.75,4.78,8.74-1.12,2.8-4.64,3.72-7.22,4.32l-17.47-3.35c-2.02-.39-4.88-.63-6.54.63-2.9,2.21-2.86,6.31-1.41,8.98,1.55,2.86,5.12,4.07,8.73,3.32,9.6-2,22.45-5.43,24.61,1.29,1.06,3.3.84,7.38-2.43,9.02l-10.59,5.31c-3.44,1.72-5.93,4.62-4.9,7.7,1.17,3.53,4.5,5.84,8.27,4.7,7.9-2.38,7.72-11.84,20.2-13.61,5.59-.8,10.26-2.65,15.4-4.58,3.63-1.37,7.74-.23,11.47.58,22.74,4.96,51.22,7.09,66.28-10.07,11.46-9.73,20.74-21.97,28.68-35.69.41,6.35-2.61,10.59-3.64,15.82-7.56,12.76-16.9,24.78-30.03,32.99-26.37,16.5-65.99.88-70.89,3.57-1.66.91-1.57,2.86-1.82,4.79-2.27,17.43-2.84,34.65,1.31,51.39,2.75,11.09,5.34,24.3,13.25,32.5,4.54,10.37,12.21,18.23,21.49,24.98,16.4,11.71,35.87,17.65,57.22,17.8-5.13-6.62-10.07-11.96-13.25-18.74-1.51-3.22-2.82-6.55-3.71-11.04,3.71,1.86,5.02,5.02,7.27,7.5l19.83,21.92c4.88,5.39,9.37,11.15,10.35,18.61,1.72,13.03-.71,26.79-7.65,37.87-2.92,4.66-8.25,5.78-12.6,7.1l-4.84,1.48c-2.24.68-3.98,2.1-4.66,3.87-.83,2.16-.74,4.73,1.31,6.06.33.22.66.85,1.22.95.22.04.65.06.85-.01,2.25,2.09,6.04,1.53,8.52-.62l9.03-7.84c3.44-2.99,7.69-3.49,11.64-1.46,1.08,2.72,2.52,5.43,1.58,8.86l-3.2,11.61c-.65,2.36-.49,4.84.8,6.55,3,4.01,10.44,3.4,12.82.36,4.44-5.66-4.02-15.87-1.73-24.05,1.08-3.84,5.91-2.98,8.53-2.51l11.29,15.83c2.62,3.63,5.36,7.18,9.84,8.19,3.63.82,6.69-.93,7.89-3.7,3.57-8.24-10.08-11.58-16.06-14.9-.52-2.92-4.49-4.21-4.72-7.78-.09-1.42,1.37-1.83,1.95-2.83,12.98-.27,26.54,13.05,34.46,9.58,1.58-.69,2.45-2.24,2.66-4.29,1.28-12.19-17.51-2.75-33.09-11.36-2.69-1.49-6.03-2.8-8.37-5.46-2.6-2.97-2.15-7.52-.68-11.04l8.53-20.4c2.31-5.53,3.47-11.05,3.48-16.6,0-9.27-2.22-18.52-7.65-26.49l-19.44-28.53c-.52-.77-.99-1.8-1.13-2.52-.11-.53.45-1.4,1.1-1.68,1.74,1.42,3.42,3.31,6.37,4.25-1.39-11.83-5.78-22.28-9.36-33.1-12.08-48.72-14.08-87.31-2.68-137.49,3.67-16.14,9.75-30.81,17.72-45.13l15.72-28.27c14.53-26.11,13.27-56.93-3.95-81.71-24.32-34.99-73.04-46.26-113.93-36.27l-32.95,11.04c.85-3.85,3.71-4.67,6.34-7.08-11.47-4.46-24.6-3.18-32.8,6.76-10.54,12.77-6.28,29.57-21.41,44.57l-23,22.81c-14.66,14.55-15.81,36.22-5.03,44.09,8.26,6.03,18.92,7.85,29.26,9.03,35.25,4.02,70.82-.6,104.08-12.43,10.42-3.71,19.62-7.81,28.13-14.02-.27-.16-.53-.29-.78-.4-2.09-.95-1.84-4.01.39-4.57,7.21-1.83,15.27.28,19.81,6.45,1.12,1.53-.23,3.64-2.09,3.25l-10.78-2.27c-36.7,27.88-94.94,35.39-140.24,32.49ZM8,166.2l.07,205.54c0,14.36,11.66,23.92,25.33,23.92l254.52.1c14.03,0,25.53-9.39,25.55-23.89l.06-60.29c-5.83,4.4-11.76,4.81-17.17,1.6-5.03-2.98-8.01-9.52-5.76-15.75,2.9-8,11.83-8.63,17.57-13.31l-10.44,1.62c-4.95.77-10.03,2.53-14.51.84-5.53-2.09-9.03-6.97-9.51-12.58-.52-6.06,2.45-10.99,7.6-13.85,4.46-1.34,8.76.29,14.41-.43-8.62-2.4-15.05-8.65-13.4-17.07,1.6-8.23,9.9-13.42,18.31-11.05,5.03,1.42,8.17,5,12.7,8.3l.21-66.77-16.29-4.28c-3.91-1.03-6.73-2.3-10.22-2.3.08-1.36-.36-2.15-1.6-2.75-6.16-2.97-11.63-6.81-16.1-11.91-1.37-4.43-5.03-6.1-8.4-8.62-6.73-5.02-9.1-13.39-10.25-21.78l-222.09-.11c-12.28,2.35-20.34,12.47-20.54,24.75l-.03,20.07ZM361.06,204.92c2.79-9.33,3.56-17.7,3.79-26.65l-43.11-3.76v50.5c5.34-1.84,9.95-.64,14.48,2.95,7.33-9.09,15.16-16.57,24.84-23.04ZM508.99,384.26c-7.27-.48-14.85-2.86-20.91-6.72l-7.55-4.81c.67,4,.11,8.28,2.29,11.32l8.13,10.8,7.02,14.31c3.16,8.32,5.01,16.98,3.74,25.84-.31,0-.27,2.56.41,2.6,16.22.81,32.49-2.1,46.04-10.27,11.28-6.8,20.94-16.2,29.07-27.01,1.02-1.36.84-3.14.79-4.22,1.29-.28,15.65-29.59,16.65-44.18.92-13.38-1.64-26.85-6.45-39.19-2.9-7.45-16.97-32.08-16.97-32.08l-13.9-20.16c-1.12-1.62,18.4,26.31,16.47,26.16.49-4.06,1.41,100.53-3.34,108.78l-2.2,1.73c-4.51,3.54-27.86-21.32-32.75-18.77-8.09,4.21-17.34,6.49-26.52,5.88M344.24,255.03c3.44-12.88,7.64-23.74,12.18-36.37-7.04,4.93-11.04,11.31-16.24,17.1,1.27,6.69.87,12.55,4.06,19.27ZM325.95,466.38l-13.65-4.93c-2.61-.94-4.56.31-6.01,1.34-1.63,1.17-2.67,5.57-.72,6.17,6.83,2.12,13.71,1.57,20.35,1.65,1.76.02,5.92,1.17,4.53,4.1s-7.13,3.47-9.94,4.26l-18.56-2.33c-4.21-.53-9.38,1.5-9.57,6.01-.18,4.21,4.67,6.99,8.57,5.99l25.1-6.42,8.14-2.38c1.46-.43,3.44-.13,4.09.99,2.05,3.55-4.85,9.43-10.67,11.21l-7.94,2.43c-3.29,1-4.79,4.81-4.15,7.41.87,3.49,3.73,5.57,7.51,5.23,8.47-.75,12.93-15.63,33.09-21.1,6.8-1.84,12.56,1.72,17.16,6.32,3.24,3.24,8.18,4.63,11.2,1.83,1.41-1.31,2.74-2.4,2.8-3.97.07-2.18-.54-4.38-2.46-5.31l-9.41-4.56c-4.1-1.99-7.21-4.82-8.75-8.71-.74-7.12-2.85-14.02-5.13-21.17-4.17-13.09,1.21-25.68,14.53-31.63-12.96-8.53-22.44-19.44-29.89-32.01l-2.56-5.1c-15.27,14.23-26.73,32.34-18.2,52.68l12.95,24.04c1.5,2.79,3.46,4.99,4.12,8.94-5.69.96-11.45.84-16.53-1Z"/>
      <path class="cls-8" d="M346.16,386.81c-.76.17-1.13,1.04-.92,1.94,2.98,12.27,8.27,23.1,14.78,33.9-5.64,10.17-6.21,21.16-2.72,31.83,2.37,7.25,5.47,17.23,9.36,17.14,1.54,3.89,4.65,6.72,8.75,8.71l9.41,4.56c1.92.93,2.54,3.13,2.46,5.31-.05,1.58-1.39,2.66-2.8,3.97-2.03-.36-4.95.33-6.93-1.08l-11.58-8.23c-6.11-2.81-13.49-1.37-19.25,1.7-8.2,4.37-18.23,10.47-19.11,5.49,5.82-1.78,12.72-7.66,10.67-11.21-.65-1.12-2.63-1.42-4.09-.99l-8.14,2.38c-.69-2.14-3.53-3-5.54-3.26,2.81-.78,8.5-1.23,9.94-4.26s-2.77-4.07-4.53-4.1l.03-4.24c5.08,1.83,10.84,1.95,16.53,1-.65-3.96-2.61-6.15-4.12-8.94l-12.95-24.04c-8.53-20.34,2.92-38.45,18.2-52.68l2.56,5.1Z"/>
      <path class="cls-3" d="M535.51,378.38l6.22,8.63c5.53,7.52,8.7,16.24,9.06,25.26.2,5-.81,10.23-2.63,15.07-13.55,8.17-29.82,11.08-46.04,10.27-.68-.03-.72-2.59-.41-2.6,3.66-3.53,4.98-8.39,6.76-12.84,5.08-12.76,3.02-24.24.53-37.9,9.18.61,18.43-1.67,26.52-5.88Z"/>
      <path class="cls-4" d="M445.82,171.97c.2,1.51-.41,2.48-1.8,3.28l-26.1,14.93c-15.28,7.41-31.22,12.2-47.89,13.63,2.61-7.66,2.78-15.92,3.16-25.12,20.74,1.18,55.82.5,72.64-6.72Z"/>
      <path class="cls-4" d="M342.75,352.95c-4.15-16.73-3.58-33.95-1.31-51.39.25-1.94.17-3.88,1.82-4.79,4.9-2.68,44.52,12.93,70.89-3.57,13.13-8.21,22.48-20.23,30.03-32.99-2.72,13.83-12.22,26.96-23.42,36.55-9.99,8.55-22.43,11.73-35.28,12.68-17.63,1.3-36.49-5.05-39.36-1.96-3.33,3.58-2.81,30.86-2.2,43.5.05,1.1-.29,1.8-1.17,1.98Z"/>
      <path class="cls-8" d="M576.07,387.76c-1.82.29-2.42,1.63-3.34,3.07-6.51,10.14-14.63,14.35-21.95,21.43-.36-9.02-3.53-17.74-9.06-25.26l-6.22-8.63c4.89-2.54,8.31-7.41,12.81-10.94l2.2-1.73c11.67,4.96,21.14,9.78,25.55,22.06Z"/>
      <path class="cls-4" d="M307.53,270.17c4.57.88,9.57,4.75,10.54,9.59.86,4.32,1.08,8.02,3.91,11.89l16.82-3.8c3.86-.87,6.91-2.58,11.02-1.54,21.9,5.51,45.25,5.66,65.1-5.31,1.35-.74,2.7-1.39,4.25-.92-15.05,17.16-43.54,15.03-66.28,10.07-3.73-.81-7.84-1.95-11.47-.58-5.14,1.94-9.81,3.79-15.4,4.58-12.48,1.78-12.29,11.24-20.2,13.61-3.77,1.13-7.1-1.17-8.27-4.7-1.02-3.08,1.47-5.98,4.9-7.7l10.59-5.31c3.27-1.64,3.49-5.71,2.43-9.02-2.16-6.72-15.02-3.29-24.61-1.29-3.62.75-7.18-.45-8.73-3.32-1.45-2.67-1.5-6.77,1.41-8.98,1.65-1.26,4.51-1.01,6.54-.63l17.47,3.35Z"/>
      <path class="cls-4" d="M421.46,409.48c3.18,6.78,8.12,12.12,13.25,18.74-21.35-.15-40.82-6.09-57.22-17.8-9.28-6.75-16.95-14.61-21.49-24.98,16.1,16.68,42.31,28.65,65.45,24.04Z"/>
      <path class="cls-4" d="M291,150.85c1.17.38,1.72.65,4.71,1.82,10.42,4.33,21.86,7.62,34.15,8.7l58.04,5.11c18.45.71,36.03-.28,54.02-3.16.97-.16,1.88.18,2.02,1.14-15.94,5.71-33.41,7.43-51.06,6.27l-61.47-4.03c-15.5-1.02-39.92-6.78-51.05-17.39,4.25-.57,7.8.89,10.64,1.53Z"/>
      <path class="cls-4" d="M366.65,471.62c-3.89.09-6.98-9.89-9.36-17.14-3.49-10.67-2.92-21.66,2.72-31.83-6.5-10.81-11.8-21.64-14.78-33.9-.22-.9.16-1.77.92-1.94,7.45,12.56,16.93,23.48,29.89,32.01-13.32,5.95-18.7,18.54-14.53,31.63,2.28,7.15,4.38,14.05,5.13,21.17Z"/>
      <path class="cls-4" d="M458.01,493.85c-3.95-2.03-8.19-1.53-11.64,1.46l-9.03,7.84c-2.48,2.15-6.27,2.71-8.52.62l4.5-1.68c4.92-1.84-.05-8.04,1.63-10.65,4.35-1.33,9.67-2.44,12.6-7.1,6.95-11.08,9.37-24.84,7.65-37.87-.99-7.46-5.47-13.22-10.35-18.61l-19.83-21.92c2.62-.14,4.19,1.94,6.08,3.73l17.99,17c16.56,15.64,11.88,44.29.03,63.92l6.03.05c1.95.02,2.15,1.45,2.85,3.21Z"/>
      <path class="cls-4" d="M576.07,387.76c.97,2.71,1.81,5.34,1.94,8.34.05,1.08.23,2.87-.79,4.22-8.13,10.81-17.79,20.2-29.07,27.01,1.82-4.84,2.83-10.07,2.63-15.07,7.32-7.08,15.44-11.29,21.95-21.43.92-1.44,1.52-2.78,3.34-3.07Z"/>
      <path class="cls-4" d="M493.98,429.91c0,5.55-1.16,11.07-3.48,16.6l-8.53,20.4c-1.47,3.52-1.93,8.08.68,11.04,2.34,2.67,5.68,3.97,8.37,5.46-.35,1.83.9,2.79,2.73,3.55l16.94,7c4.7,1.94,8.85,2.27,13.42.81-.21,2.05-1.08,3.6-2.66,4.29-7.92,3.46-21.48-9.85-34.46-9.58l1.9-3.29c-3.65-2.11-7.53-3.27-9.94-6.53-2.97-4.02-2.72-9.97-.56-14.39l9.5-19.4c4.37-8.92,3.25-17.07,6.09-15.95Z"/>
      <path class="cls-4" d="M384.49,494.17c-3.02,2.8-7.96,1.41-11.2-1.83-4.6-4.6-10.36-8.17-17.16-6.32-20.16,5.47-24.62,20.34-33.09,21.1-3.78.34-6.64-1.74-7.51-5.23-.64-2.59.86-6.4,4.15-7.41l7.94-2.43c.88,4.98,10.91-1.13,19.11-5.49,5.77-3.07,13.14-4.51,19.25-1.7l11.58,8.23c1.98,1.41,4.9.72,6.93,1.08Z"/>
      <path class="cls-4" d="M489.76,500.09c5.99,3.32,19.63,6.67,16.06,14.9-1.2,2.77-4.26,4.52-7.89,3.7-4.47-1.01-7.22-4.56-9.84-8.19l-11.29-15.83c2.1.38,4.24.58,6.38,1.77l6.57,3.65Z"/>
      <path class="cls-4" d="M320.51,478.98c2.01.25,4.85,1.12,5.54,3.26l-25.1,6.42c-3.89,1-8.75-1.78-8.57-5.99.19-4.51,5.37-6.54,9.57-6.01l18.56,2.33Z"/>
      <path class="cls-4" d="M588.2,312.73c4.81,12.34,7.37,25.81,6.45,39.19l-7.19-7.65c.3-11.88-3.35-23.11-6.77-34.3l7.5,2.76Z"/>
      <path class="cls-4" d="M344.24,255.03c-3.19-6.72-2.79-12.59-4.06-19.27,5.19-5.79,9.19-12.16,16.24-17.1-4.53,12.63-8.74,23.49-12.18,36.37Z"/>
      <path class="cls-4" d="M325.95,466.38l-.03,4.24c-6.64-.08-13.52.46-20.35-1.65-1.95-.6-.91-5,.72-6.17,1.44-1.04,3.4-2.29,6.01-1.34l13.65,4.93Z"/>
      <path class="cls-4" d="M524.11,494.78c-4.56,1.46-8.72,1.13-13.42-.81l-16.94-7c-1.83-.76-3.09-1.73-2.73-3.55,15.58,8.61,34.37-.83,33.09,11.36Z"/>
      <path class="cls-4" d="M466.87,370.69l-2.99-28.85c3.59,10.82,7.97,21.27,9.36,33.1-2.95-.93-4.62-2.82-6.37-4.25Z"/>
      <path class="cls-4" d="M488.08,377.54c.47,5.95.31,12.09,2.87,17.32l-8.13-10.8c-2.18-3.04-1.62-7.33-2.29-11.32l7.55,4.81Z"/>
      <path class="cls-4" d="M508.45,422.16c-1.77,4.45-3.1,9.32-6.76,12.84,1.28-8.85-.58-17.52-3.74-25.84,3.2.28,4.32,7.89,10.49,12.99Z"/>
      <path class="cls-8" d="M428.82,503.77c-.2.07-.63.05-.85.01-.34-.39-.73-.73-1.22-.95-2.05-1.33-2.14-3.9-1.31-6.06.68-1.76,2.41-3.18,4.66-3.87l4.84-1.48c-1.68,2.62,3.29,8.81-1.63,10.65l-4.5,1.68Z"/>
      <path class="cls-4" d="M571.24,280.65c-1.75.02-3.44-.92-4.9-.66l-12.26-20.33c-.57-.93-.29-2.01-.21-2.73,1.93.15,2.35,1.94,3.47,3.56l13.9,20.16Z"/>
      <path class="cls-4" d="M309.97,257.11l-14.53-5.44c-2.15-.8-3.51-1.93-4.55-3.56,8.6.65,19.66,2.86,19.08,9Z"/>
      <path class="cls-4" d="M332.77,237.09c-1.83-.06-3.58-.26-5.81.34-1.47.39-2.53,2.66-3.31,4.57-.94-2.25-2.96-4.79-1.48-7.7,1.17-2.3,4.27-2.82,6.78-1.91,1.7.62,3.36,2.41,3.82,4.71Z"/>
      <path class="cls-6" d="M427.97,503.79c-.56-.09-.88-.73-1.22-.95.48.22.88.56,1.22.95Z"/>
      <path class="cls-5" d="M432.72,80.1c0,19.54-15.84,35.37-35.38,35.37s-35.38-15.84-35.38-35.37,15.84-35.37,35.38-35.37,35.38,15.84,35.38,35.37ZM406.19,107.28c10.05-2.3,15.71-10.96,17.75-20.06,2.94-13.12-2.69-26.97-14.75-33.15-8.58-4.39-18.59-3.06-26.45,2.21,11.72-2.9,22.62.2,29.15,10.03,8.89,13.38,6.43,30.75-5.7,40.96ZM387.31,73.57c0-3.34-2.71-6.04-6.05-6.04s-6.05,2.71-6.05,6.04,2.71,6.04,6.05,6.04,6.05-2.71,6.05-6.04Z"/>
      <path class="cls-7" d="M293.1,119.89l-4.49,5.88c-.68.89-1.08,1.62-1.5,2.03-.73.7-2.75.81-3.31-.46-1.98-4.53.11-10.4,4.55-12.59,1.48-.73,3.18-.36,4.18.42.92.71,1.91,2.95.56,4.72Z"/>
      <path class="cls-5" d="M425.31,40.81c-11.42-7.24-24.86-10.5-38.47-6.7-11.2,3.41-19.82,10.69-25.92,20.73-1.15,1.89-4.11.63-3.51-1.5s1.52-4.24,2.45-6.25c5.09-11.08,15.34-18.38,25.73-20.95,14.45-3.58,33.08,1.28,40.08,13.23.27.46-.36,1.41-.36,1.45Z"/>
      <path class="cls-8" d="M406.19,107.28c12.13-10.21,14.6-27.58,5.7-40.96-6.54-9.83-17.43-12.93-29.15-10.03,7.86-5.27,17.87-6.61,26.45-2.21,12.06,6.17,17.69,20.03,14.75,33.15-2.04,9.1-7.71,17.76-17.75,20.06Z"/>
      <circle class="cls-8" cx="381.27" cy="73.57" r="6.04"/>
      <rect class="cls-1" x="37.11" y="195.51" width="112.13" height="105.19" rx="14.3" ry="14.3"/>
      <g>
        <path class="cls-3" d="M510.79,441.73c-3.23,0-6.49-.16-9.68-.48-1.53-.15-2.84-1.17-3.36-2.62-.52-1.45-.17-3.07.92-4.17,12.69-12.84,16.07-32.78,8.22-48.47-.66-1.33-.54-2.92.33-4.12.76-1.05,1.97-1.67,3.25-1.67.18,0,.37.01.55.04,2.83.39,5.66.59,8.4.59,3.52,0,7.06-.33,10.51-.98,4.72-.89,9.1-2.47,13.03-4.68,4.66-2.63,8.5-5.64,11.75-9.2,3.18-3.48,5.65-7.07,7.57-10.98,2.33-4.74,3.92-9.58,4.89-14.79,1.19-6.42,1.62-11.42,1.38-16.24-.33-6.66-.88-12.17-2.5-17.44l-5.93-19.24c-.59-1.92-1.25-3.87-1.88-5.75-1.79-5.31-3.63-10.8-4.47-16.78-1.31-9.39-.64-18.11,2.05-26.67,4.94-15.72,15.79-28.59,30.55-36.22,3.58-1.85,7.82-3.84,12.8-3.95.03,0,.06,0,.09,0,1.6,0,3.05.95,3.68,2.43.64,1.5.3,3.25-.85,4.4l-9.85,9.84c-5.87,7.11-9.03,15.58-9.14,24.52-.1,7.61.96,13.34,3.33,18.03l9.19,18.2c.06.11.11.23.16.35l.67,1.71c3.65,6.12,6.73,13.04,9.68,21.74,2.69,7.93,4.47,16.06,5.45,24.88,1.08,9.74,1.22,18.38.44,27.21-.91,10.27-3.02,19.73-6.44,28.92-3.84,10.31-8.9,19.1-15.46,26.87-7.17,8.5-15.8,15.48-25.63,20.75-8.79,4.71-18.01,8.24-28.19,10.78-8.58,2.14-17.16,3.23-25.51,3.23h0Z"/>
        <path class="cls-5" d="M599.27,201.89h0M599.27,201.89l-9.98,9.97c-6.48,7.78-10.05,17.24-10.18,27.16-.09,6.74.66,13.74,3.76,19.88l9.19,18.2.79,2.02c4.05,6.73,6.98,13.82,9.5,21.26,2.68,7.89,4.34,15.72,5.26,24.03.99,8.91,1.22,17.47.43,26.42-.86,9.66-2.83,18.82-6.21,27.87-3.52,9.44-8.27,18-14.77,25.69-6.87,8.14-15.08,14.77-24.46,19.8-8.72,4.67-17.67,8.03-27.27,10.42-8.07,2.01-16.27,3.11-24.55,3.11-3.08,0-6.18-.15-9.27-.46,13.71-13.88,17.58-35.82,8.95-53.07,3,.42,5.98.63,8.95.63,3.74,0,7.48-.34,11.25-1.05,5.05-.95,9.85-2.65,14.25-5.13,4.78-2.7,9.04-5.93,12.74-9.99,3.27-3.59,6.05-7.53,8.21-11.91,2.49-5.07,4.21-10.28,5.23-15.82,1.06-5.72,1.73-11.3,1.45-17.16-.31-6.36-.85-12.5-2.67-18.43l-5.93-19.24c-2.26-7.32-5.14-14.23-6.21-21.91-1.2-8.56-.69-16.69,1.9-24.92,4.62-14.71,14.9-26.79,28.57-33.87,3.58-1.85,7.06-3.41,11.05-3.5M599.27,193.89s-.06,0-.09,0c-.04,0-.08,0-.12,0-5.82.14-10.55,2.34-14.52,4.4-15.71,8.13-27.26,21.83-32.53,38.57-2.87,9.14-3.59,18.44-2.19,28.43.89,6.35,2.79,12.02,4.64,17.5.65,1.95,1.27,3.78,1.85,5.66l5.93,19.24c1.5,4.87,2.02,10.1,2.33,16.46.22,4.49-.19,9.21-1.32,15.31-.9,4.85-2.39,9.35-4.55,13.75-1.75,3.56-4.02,6.85-6.93,10.05-2.96,3.24-6.48,6-10.77,8.42-3.54,2-7.51,3.43-11.8,4.24-3.21.61-6.49.91-9.77.91-2.56,0-5.2-.19-7.85-.56-.37-.05-.74-.08-1.1-.08-2.55,0-4.98,1.22-6.5,3.33-1.73,2.41-1.99,5.59-.66,8.24,6.98,13.96,3.83,32.42-7.49,43.88-2.17,2.19-2.88,5.43-1.84,8.33,1.04,2.9,3.66,4.94,6.73,5.25,3.32.33,6.71.5,10.08.5,8.68,0,17.59-1.13,26.48-3.35,10.5-2.62,20.03-6.26,29.11-11.13,10.28-5.51,19.3-12.81,26.8-21.69,6.86-8.12,12.14-17.3,16.15-28.05,3.55-9.52,5.73-19.32,6.68-29.96.8-8.98.65-18.14-.45-28.01-1.01-9.1-2.86-17.52-5.64-25.72-3-8.84-6.14-15.92-9.86-22.22l-.55-1.4c-.09-.24-.2-.47-.31-.7l-9.19-18.2c-2.07-4.1-2.99-9.24-2.9-16.18.1-7.95,2.9-15.51,8.11-21.88l9.62-9.62c1.5-1.45,2.43-3.49,2.43-5.74,0-4.41-3.56-7.98-7.96-8,0,0,0,0,0,0,0,0,0,0,0,0,0,0-.02,0-.03,0h0ZM599.27,209.89h0,0Z"/>
      </g>
      <path class="cls-10" d="M544.92,378.64c15,9.68,21.99,28.27,17.68,45.56-8.72,4.67-17.67,8.03-27.27,10.42,7.43-16.58,6.38-36.63-4.66-50.85,5.05-.95,9.85-2.65,14.25-5.13Z"/>
      <path class="cls-10" d="M601.83,378.71c-3.52,9.44-8.27,18-14.77,25.69-2.07-17.1-13.08-30.2-29.4-35.75,3.27-3.59,6.05-7.53,8.21-11.91,14.86.62,28.67,8.85,35.96,21.98Z"/>
      <path class="cls-10" d="M607.61,324.42c.99,8.91,1.22,17.47.43,26.42-9.97-9.37-23.86-12.83-36.93-9.93,1.06-5.72,1.73-11.3,1.45-17.16,10.79-5.11,24.47-5.24,35.06.67Z"/>
      <path class="cls-10" d="M592.85,279.13c4.05,6.73,6.98,13.82,9.5,21.26-11.04-3.03-22.91-1.44-32.47,4.94l-5.93-19.24c8.14-6.47,18.7-9.12,28.9-6.96Z"/>
      <path class="cls-10" d="M579.11,239.02c-.08,6.74.66,13.74,3.76,19.88-7.48-.91-14.85-.07-21.39,3.54-1.31.72-2.38,1.64-3.74,1.73-1.2-8.56-.69-16.69,1.9-24.92,6.39-1.97,13.12-2.42,19.47-.24Z"/>
      <path class="cls-8" d="M508.99,384.26c11.19-1.69,15.19,29.21-7.47,53.01-.87-16.01,1.18-13.21-3.55-28.1l-7.02-14.31c-2.56-5.22-2.4-11.37-2.87-17.32,6.06,3.86,13.63,6.24,20.91,6.72Z"/>
    </g>
  </g>
</svg>