<?xml version="1.0" encoding="UTF-8"?>
<svg id="_Слой_2" data-name="Слой 2" xmlns="http://www.w3.org/2000/svg" viewBox="0 0 1150 905.48">
  <defs>
    <style>
      .cls-1 {
        fill: #622ede;
      }

      .cls-2 {
        fill: #070707;
      }

      .cls-3 {
        fill: #fdfdfd;
      }
    </style>
  </defs>
  <g id="_Слой_1-2" data-name="Слой 1">
    <g>
      <circle class="cls-1" cx="234.38" cy="446.45" r="234.38"/>
      <path class="cls-3" d="M293.85,602.56c-10.86-14.75-32-43.52-43.2-59.36-.85-1.2-2.27-1.85-3.73-1.71-8.56.83-37.45,3.63-37.45,3.63-39.98,3.83-42.98-7.27-60.22-28.23-.79-.96-1.99-1.49-3.24-1.47-81.53,1.17-132.93-89.58-67.77-149.7.59-.55,1.01-1.26,1.2-2.04,6.16-25.49,22.21-51.16,49.86-54.85.86-.12,1.67-.48,2.3-1.08,14.98-14.18,34.86-30.22,56.31-27.26.12.02.24.04.35.06,42.05,9.34,86.7-13.04,124.87,15.2.29.21.61.39.94.51,37.65,14.11,71.74,46.42,81.04,86.49.2.85.66,1.6,1.31,2.17,31.04,27.11,30.13,92.56,5.45,123-.51.63-.82,1.39-.91,2.2-2.92,28.89-29.38,50.33-57.38,54.33-1.9.27-3.38,1.82-3.5,3.73-1.6,24.65-19.77,62.62-45.93,34.77-.12-.13-.23-.26-.33-.4ZM210.38,522.5c14.65-.71,41.86-9.55,51.8,5.78.28.43.63.79,1.03,1.1,8.29,6.41,44.17,75.17,50.07,53.12,3.19-8.02,2.04-39.44,14.83-39.5,20.59.07,52.62-14.94,48.02-39.34-.03-.15-.05-.3-.06-.45-1.29-17.44,23.2-15.37,18.98-38.27-.06-.33-.09-.66-.06-.99,1.46-22.93,7.93-70.34-23.41-66.42-1.43.18-2.92-.36-3.73-1.55-.53-.77-.79-1.74-.29-2.98,18.57-49.61-84.81-108.96-127.55-95.61-8.65,3.41-43.91-5.71-30.02,9.44,4.51,4.3,15.48,22.73,23.51,26.65,3.14,1.53,21.02-7.66,26.82-3.81,14.21,9.45,8.78,18.77,8.43,19.48-7.52,15.46,8.24,38.06,21.2,46.31,33.7,21.45,42.03,40.6,42.29,42.05,1.6,8.85-1.94,17-9.33,21.27-12.65,8.68-25.52-6.8-38.85,1-.26.15-.5.34-.72.55-22.58,20.93-185.08,57.57-73.38,62.15.14,0,.27,0,.41,0ZM194.54,419.49c20.23-7.01,26.53-43.63,35.67-62.76.74-1.55.42-3.4-.8-4.61-36.8-36.49-39.18-81.1-89.58-25.55-.9.99-2.21,1.46-3.54,1.32-22.53-2.31-50.57,36.84-29.82,50.11,1.6,1.02,3.69.7,5.03-.64,23.21-23.23,48.25,32.71,80.7,42.17.76.22,1.58.22,2.33-.04ZM258.45,460.92c10.14-7.51,21.69-18.99,34.8-15.31,2.75.77,5.55-1.34,5.27-4.18-.93-9.58-18.6-24.97-21.42-30.33-.18-.34-.43-.63-.7-.9-11.41-11.23-12.84-32.96-26.53-40.5-2.24-1.23-5.02-.17-5.87,2.24-8.66,24.29-25.36,38.11-17.29,62.15.27.82,1.28,7.91.13,11.87-2.41,8.3-11.7,8.65-20.77,9.64-1.34.15-2.53.92-3.18,2.11l-12.91,23.74c-1.87,3.44,1.69,7.3,5.27,5.69,19.08-8.6,47.14-19.98,62.22-25.66.36-.13.69-.31.99-.54ZM171.41,479.06c26.76-38.88,15.82-46.57-21.94-66.1-.31-.16-.59-.37-.85-.59-10.15-8.96-20.85,8.3-32.91-.29-.15-.11-.32-.21-.49-.29-13.06-6.43-7.48-24.38-22.79-27.85-1.14-.26-2.35,0-3.28.71-36.36,27.48-21.33,86,15.64,104.04.53.26,1.12.39,1.71.4,21.75.61,54.19,19.37,64.44-9.11.12-.32.28-.64.47-.92Z"/>
      <g>
        <path class="cls-2" d="M467.18,488.12c-10.98-4.56-14.71-24.48-3.24-35.7,4.34-4.25,10.38-6.06,16.25-6.82,11.38-1.47,21.78,2.1,33.76,4.7l-14.48-15.19c-6.02-6.31-6.31-16.17-2-23.56,4.2-7.21,12.14-11.38,21.14-10.59s16.15,6.78,20.33,14.71l9.67,18.37c1.77,3.36,6.26,9.05,10.85,7.44l37.95-13.3c12.82-4.49,23.73-11.24,33.49-20.66l33.52-32.37,28.4-24.62c5.12-12.86,9.16-25.5,11.23-39.99-44.35-.37-97.85-5.96-136.86-24.1-13.91-6.46-25.96-15.24-36.48-26.35l-15.1-15.93c-13.48-14.22-17.77-34.09-13.3-53.25,5.49-23.54,22.31-40.24,38.68-57.26-4.43-38.05,12.62-69.74,48.8-80.59,10.41-32.47,41.01-51.06,73.33-43.11l25.24,6.2c69.84-25.61,146.14-21.59,209.14,17.98,23.9,15.01,41.72,36.05,53.16,61.71,17.93,40.23,16.65,82.72-1.02,122.81-5.89,13.36-12.93,25.13-20.41,37.64l-24.69,41.25c-10.29,20.28-17.35,41.55-20.87,64.08-2.17,13.88-2.3,27.45-1.74,41.45.6,15-.75,28.93-2.11,43.75-3.76,40.94-.32,89.57,12.83,128.51,3.64,10.78,7.36,20.91,14.07,30.14,21.78,29.98,60.88,42.56,96.04,31.2,19.06-6.16,33.51-18.85,43.14-36.06,13.55-24.21,14.96-51.73,5.59-77.9l-17.87-40.1c-6.55-14.69-13.6-28.42-17.74-44-12.9-48.54,1.16-101.91,44.96-127.61,13.54-7.94,36.4-15.2,43.1-4.13,6.09,10.04-3.26,17.72-11.85,25.29-24.53,21.64-23.54,52.95-11.27,82.16,6.35,15.12,15.29,28.09,24.1,41.86l21.07,32.95c14.18,26,22.9,53.88,23.91,83.83,1.05,31.02-4.94,61.04-17.61,89.1-17.46,38.66-48.12,68.19-86.85,84.97-37.39,16.2-73.42,19.92-114.6,16.2l-16.32,34.83c-1.46,3.11-2.93,6.19-3.07,10.08,6.79,3.34,14.32,3.51,21.8,2.83l18.98-1.71c15.69-1.41,32.66,6.39,34.5,21.29.99,8.01-1.17,15.37-7.33,20.34-10.89,8.79-23.9,2.48-25.28,5.21-1.21,2.4,9.82,7.94,7.28,22.22-1.13,6.32-5.89,12.6-12.68,15.96-13.2,6.53-28.62,2.22-38.55-8.61l-19-24.49,5.22,15.22c3.33,9.71-1.05,20.09-10.29,25.07-9.12,4.91-20.26,5.39-29.61.94-11.06-5.26-15.85-16.94-12.74-28.54l4.65-17.39c1.03-1.36-.5-2.9-1.65-1.78l-9.99,9.36c-17.27,16.19-40.4,12.68-48.06-1.59-5.64-10.51-1.71-22.93,7.75-29.6,13.1-9.23,25.51-4.71,32.36-18.92,6.35-13.16,10.31-27.42,12.97-42,1.6-8.76-.28-17.47-5.29-24.51-35.71-1.92-69.42-6.57-101.24-22.92-16.31,6.21-33.92,16.3-31.31,34.35,2.43,16.77,6.91,32.8,12.34,48.73,1.67,4.91,5.96,7.27,10.65,8.62,10.02,2.89,19.32,8.63,23.35,18.22,4.65,11.07,1.03,23.03-9.51,28.59-15.16,8-32.46,2.29-42.37-11.34-3.22-4.43-7.73-7.6-12.46-7.74-5.74-.17-10.3,2.72-13.97,7.31-6.85,8.57-13.32,17.01-21.52,24.23-10.88,9.58-25.29,13.11-38.15,6.37-10.17-5.33-15-16.6-9.62-27.75-8.99,4.28-17.3,7.26-26.67,6.01-12.43-1.66-21.03-11.03-21.19-23.44-.13-9.82,4.33-18.23,14.38-22.22-5.69-6.05-6.87-13.94-2.88-21.08,7.3-13.09,24.36-13.76,39.21-8.57,11.12,3.88,21.89,7.1,34.9,7.28-9.42-17.71-17.99-34.26-24.68-52.46-4.37-11.92-6.76-23.76-5.59-36.39,2.08-22.35,21.37-47.11,36.32-64.19l-6.72-14.49-8.36-29.99c-11.27-1.69-19.27-10.38-20.12-21.68-.85-11.18,6.42-21.24,18.05-24.04,2.17-19.46,5.26-37.75,9.45-57.35l-21.11,2.57c-10.45,1.27-20.5,2.38-30.51,5.38-15.64,4.69-26.5,16.77-29.48,32.88-1.34,7.25-3.28,14.17-7.55,20.15-5.27,7.37-13.71,10.14-22.53,8.32-6.6-1.37-12.01-5.71-14.59-11.02-3.24-6.66-1.81-13.47,1.6-19.99.95-1.82,3.06-3.56,1.56-6.54l-12.79,10.52c-7.61,6.26-19.59,6.23-27.53.13-6.14-4.72-9.58-12.04-9.37-19.14.43-14.27,14.04-21.14,28.34-24.7,1.14.55,2.01-.56,1.27-1.17l-10.38,1.07c-6.54.68-12.6.56-18.47-1.88ZM788.66,453.81l9.13-33.32c2.66-9.7,6.92-25.42,11.53-22.82,4.96,2.8-3.75,44.23-7.89,58.63-3.75,13.06-10.78,23.94-20.96,32.95-14.34,12.7-29.44,23.96-45.78,33.89-12.3,7.47-26.1,8.22-39.15,2.49-18.44-8.1-22.21-23.24-32.17-21.37-3.74.71-7.06,3.12-8.77,7.03-1.86,4.26-.44,8.68,3.83,10.67l17.09,7.95c4.22,1.96,8.18,5.76,9.2,10.52,1.09,5.06-2.85,9.52-7.39,11.46-17.4,7.41-34.7,5.19-45.82,9.07-6.25,2.18-9.15,8.58-6.83,14.08,2.53,6.02,8.97,8.17,15.04,5.22l17.44-8.47c7.56-3.67,23.75-7.51,27.09-1.2,4.9,9.23-15.2,25.86-27.13,32.95-5.65,3.36-8.59,8.65-5.22,14.84,1.37,2.51,3.71,4.51,6.11,4.72,2.7.23,5.45-.24,7.28-2.34l13.46-15.49c6.99-8.04,19.17-23.75,26.89-17.99,11.95,8.91-15.42,37.29-4.98,45.23,3.13,2.38,7.19,2,10.68.16,7.88-4.15,8.86-18.09,9.8-28.96,1.29-14.86,7.14-27.78,18.51-37.54,10.74-9.22,23.14-15.43,36.57-20.18,34.26-12.13,59.14-24.23,75.57-58.58,12.23-25.57,18.33-52.59,16.41-81.39-2.16-32.26,2.08-62.96,13.75-93.24,8.17-21.19,19.3-40.1,31.69-59.13,10.6-16.29,19.88-32.21,26.65-50.37,12.74-34.15,11.82-70.36-3.5-103.43-8.73-18.86-21.15-34.7-37.85-47.2-17.52-13.12-36.73-21.98-57.73-28.28-51.28-15.38-91.71-13.35-142.23,3.62-11.05,3.71-35.67,13.03-38.15,10.45-.97-1.01-.81-2.36.24-3.25l9.63-8.29-18.36-3.62c-18.19-2.11-35.17,7.19-43.61,23.61-10.22,19.86-10.52,50.31-36.38,76.45l-29.78,30.11c-18.45,18.65-34.95,41.89-24.14,67.78,4.41,10.57,12.96,17.51,23.83,20.44,63.89,17.24,165.64,7.21,228.12-16.29,16.18-6.08,31.19-13.44,44.04-23.78-3.79-.73-5.62-1.18-6.2-2.87-.64-1.85.79-3.87,2.77-4.83,24.22-11.77,48.7,13.66,42.63,17.1-2.16,1.23-12.84-7.24-23.14-8.03-15.53,13.57-32.55,23.18-51.27,31.21-38.18,16.36-87.9,24.66-129.82,27.87-34.19,2.62-67.17.65-101.36-6.17,5.64,6.53,12.49,10.36,19.61,14.23,33.78,18.36,95.72,26.62,134.2,25.88l37.58-.73,75.59-6.51c-29.38,16.41-64.03,20.66-96.75,21.56-2.82,24.22-12.45,45.56-22.48,67.34l-22.69,49.24c-9.35,22.63-16.92,44.87-22.16,69.83,12.08-8.25,25.97-5.57,34.35,5.44,10.71,14.06,27.16,20.14,42.75,10.48s29.79-20.33,43.53-32.25c8.31-7.21,14.05-15.55,17.07-26.57ZM583.76,75.55l2.29-9.09c-6.52,2.68-11.11,6.33-15.73,10.76,4.57-1.61,8.27-2.47,13.44-1.67ZM566.16,104.66l7.92-9.74c1.04-1.28.85-3.39-.02-4.42-.66-.78-2.06-1.7-3.75-1.69-3.6.02-6.48,2.46-7.87,5.01-1.63,2.98-2.14,5.99-.64,9.21.69,1.47,2.95,3.36,4.36,1.62ZM1024.29,406.29c.48,17.17,4.2,34.21,11.37,49.79l10.84,23.56,11.86,23.76c6,12.01,9.46,25.22,11.32,38.54,1.82,13.07,1.17,26.23-1.85,39.08-2.28,9.71-6.28,19.03-11.22,27.75-5.28,9.33-12.7,17.71-20.81,24.7-9.15,7.89-20.25,13.21-31.89,16.25-12.92,3.38-26.45,4.11-39.71,2.74-22.9-2.37-43.97-12.45-60.5-29.03-9.2-9.23-15.29-19.86-19.9-32.2-12.28-32.83-18.06-66.73-18.79-102.85-15.89,38.09-43.78,56.37-82.03,69.19-25.22,8.59-46.7,18.15-49.24,46.93-1.68,19.09-4.46,42.1-26.29,42.46-10.27.17-19.26-5.55-21.41-15.7-1.15-5.42.88-9.84,1.52-16.47l-10.84,12.4c-4.26,4.87-9.76,7.31-17.03,8.43,20.6,41.53,58.49,70.78,101.3,85.5,20.59,7.08,41.37,10.62,62.54,12.24l.83-1.1-20.02-21.44c-7.46-7.99-17.81-24.49-13.42-26.08,1.04-.37,2.52.27,3.41,1.13l35.67,34.15c16.82,16.1,29.23,33.41,24.46,57-3.93,19.45-9.32,42.61-24.1,54.67-10.03,8.18-25.09,5.81-30.01,16-1.4,2.9-1.64,6.36-.03,9.26,3.65,6.56,17.55,7.93,28-2.29,8.39-8.2,17.86-18.23,27.45-12.11,9.54,6.09,5.15,19.04,1.36,30.02-1.81,5.22-2.43,11.45,1.6,15.58,6.79,6.95,21.66,5.49,24.84-1.87,3.9-9-13.62-29.48-3.98-38.86,5.5-5.35,15.25-2.31,20.42,4.52l18.02,23.82c5.05,6.68,13.33,10.16,21.28,8.27,4.46-1.06,7.95-3.63,8.95-7.24,5.26-18.93-48.14-26.67-40.16-40.81,1.15-2.03,4.25-4.1,7.23-3.36l28.04,6.93c10.85,2.68,26.15,7.57,29.95-1.42,1.43-3.39,1.23-7.18-1.3-10.36-2.81-3.54-7.37-6.13-12.01-5.95l-21.85.84c-11.16.43-22.57,1.04-32.58-3.11-31.28-12.98,42.47-67.41,13.87-126.04-5.7-11.68-13.1-21.68-20.67-32.19l-20.5-28.43c-.85-1.18-.96-3.2-.42-3.99,2.49-3.66,15.43,4.11,21.73,12.64l22.5,30.45c7.7,10.42,13,22.12,15.93,34.91,3.38,14.76,1.52,29.4-2.95,43.59l5.63.29c22.94,2.36,46.21.09,69.08-5.22,1.34-.31,2.41-1.28,2.92-2.02,2.11.85,4-.05,6.42-.82,17.2-5.47,33.41-12.78,47.94-22.82,20.44-14.11,37.29-33.04,48.86-55.07,9.33-17.77,15.41-37.17,18.62-56.93,3.17-19.55,2.68-39.66-.97-59.15-3.59-19.17-10.17-38.29-19.82-54.44-.74-1.44-1.09-2.74-1.95-4.05l-19.34-29.57-14.25-22.56c-8.32-13.16-13.97-27.75-17.01-43.05-5.39-27.15,1.45-54.04,23.24-72.6,2.97-2.53,6.68-5.01,8.93-8.37-.67-1.7-3.49-1.49-5.31-1.05-42.61,10.27-64.97,50.89-63.78,93.22ZM522.48,484.48c-.25,6.51-9.77,11.75-17.69,14.77l-19.47,7.42c-5.62,2.14-7.62,8.52-5.04,13.93,1.99,4.17,7.75,6.29,12.94,4.07,12.3-5.25,31.59-32.1,42.22-24.23,12.57,9.3-8.2,26.05-11.5,38.89-1.13,4.4,2.28,7.98,5.57,9.17,4.23,1.53,8.04-.13,10.83-3.9,2.09-2.82,3.56-7.04,4.09-10.75,3.84-26.8,23.91-46.05,50.67-49.38l46.85-5.83c4.35-17.13,9-33.09,16.11-48.97l23.72-53-42.85,40.84c-9.59,9.14-19.91,16.16-32.4,20.68l-38.74,14.03c-10.55,3.82-20.46.34-27.13-8.51-10.44-13.85-11.33-29.09-23.14-30.09-4.21-.35-8.22,1.91-9.49,5.4s-.26,7.28,2.45,10.12l16.99,17.79c3.16,3.3,4.08,7.93,1.98,11.51s-6.4,5.51-11.03,4.66l-22.85-4.2c-10.02-1.84-21.95-.76-24.56,6.32-1.28,3.46-1.44,6.96.79,9.55s6.3,2.83,9.74,2.37l21.95-2.92c8.14-1.08,19.26,3.26,18.99,10.23ZM519,520.98l-.5.5.5.5.5-.5-.5-.5ZM670.59,541.64c-3.68-3.03-7.5-3.84-11.23-5.59-5.44-1.85-9.55-4.88-13.72-8.85l-2.56,19.11c9.73-.76,18.27-1.67,27.51-4.67ZM645.74,597.22c6.69-4.78,13.78-8.17,19.52-14.59l-20.67,9.2,1.16,5.39ZM687.67,614.29c1.12.25,1.52-.63,1.7-.91s.27-1.12-.51-1.44c-.34-.14-.82,2.43-1.19,2.34ZM625.04,849.2c-8.32,3.49-13.69,10.14-10.82,17.01.96,2.3,3.41,4.18,6.62,5.33,19.55,7.03,36.19-26.04,49.08-35.29,10.76-7.72,24.83-6.64,33.86,3.03l8.25,8.83c6.04,6.47,16.44,8.54,23.89,3.16,4.64-3.35,4.11-9.86,1.12-14.34-7.5-11.24-26.3-6.02-33.52-26.41-5.6-15.82-9.97-31.67-12.66-48.29-2.97-22.2,10.2-36.3,30.76-45.13-27.84-15.88-51.72-37.28-68.11-65.67-9.59,10.88-17.25,22.12-24.21,34.31-6.7,11.75-8.09,24.71-4.7,37.9,2.79,12.5,7.85,23.83,13.51,35.32l17.48,35.46c6.17,12.51-24.02,11.29-43.34,5.43l-16.87-5.11c-5.22-1.58-10.71-1.31-15.17,1.66-3.57,2.38-4.41,7.04-1.51,10.06,3.42,3.56,7.9,4.37,12.7,4.64l28.78,1.62c2.55.14,4.91,2.36,4.91,4.46,0,1.72-1.89,3.69-4.17,4.14-13.67,2.66-27.41,2.72-41.33,3.45-7.25.38-12.11,5.76-11.58,12.42.48,6.05,5.67,10.51,12.5,10.32,6.33-.17,12.07-2.41,17.97-4.8l42.56-17.29c3.41-1.39,7.42-.15,8.78,2.37,4.55,8.46-13.64,16.72-24.81,21.41ZM824.96,732.55l-.82.86c.7,1.06,1.95-.18.82-.86ZM951.86,855.16l-.65.02.65.02h.67l.65-.02-.65-.02h-.67Z"/>
        <path class="cls-3" d="M788.62,453.81c-3.02,11.02-8.76,19.36-17.07,26.57-13.75,11.91-28.03,22.65-43.53,32.25s-32.04,3.58-42.75-10.48c-8.38-11.01-22.27-13.69-34.35-5.44,5.24-24.96,12.81-47.2,22.16-69.83l22.69-49.24c10.03-21.78,19.66-43.12,22.48-67.34,32.72-.9,67.37-5.16,96.75-21.56l-75.59,6.51-37.58.73c-38.48.75-100.43-7.52-134.2-25.88-7.12-3.87-13.96-7.7-19.61-14.23,34.2,6.82,67.17,8.79,101.36,6.17,41.92-3.21,91.64-11.51,129.82-27.87,18.72-8.02,35.74-17.64,51.27-31.21,10.3.79,20.98,9.26,23.14,8.03,6.07-3.44-18.41-28.87-42.63-17.1-1.97.96-3.41,2.97-2.77,4.83.58,1.68,2.41,2.14,6.2,2.87-12.85,10.34-27.86,17.7-44.04,23.78-62.48,23.5-164.22,33.53-228.12,16.29-10.86-2.93-19.42-9.87-23.83-20.44-10.8-25.89,5.7-49.13,24.14-67.78l29.78-30.11c25.86-26.15,26.16-56.59,36.38-76.45,8.44-16.41,25.42-25.71,43.61-23.61l18.36,3.62-9.63,8.29c-1.04.9-1.21,2.24-.24,3.25,2.48,2.59,27.1-6.74,38.15-10.45,50.52-16.96,90.94-18.99,142.23-3.62,21,6.3,40.21,15.16,57.73,28.28,16.7,12.51,29.12,28.35,37.85,47.2,15.32,33.07,16.24,69.28,3.5,103.43-6.78,18.16-16.05,34.08-26.65,50.37-12.39,19.03-23.53,37.94-31.69,59.13-11.67,30.29-15.9,60.99-13.75,93.24,1.92,28.8-4.17,55.82-16.41,81.39-16.43,34.36-41.31,46.45-75.57,58.58-13.42,4.75-25.82,10.96-36.57,20.18-11.37,9.76-17.22,22.68-18.51,37.54-.95,10.87-1.92,24.81-9.8,28.96-3.49,1.84-7.55,2.22-10.68-.16-10.44-7.94,16.92-36.31,4.98-45.23-7.72-5.76-19.91,9.95-26.89,17.99l-13.46,15.49c-1.82,2.1-4.58,2.57-7.28,2.34-2.41-.21-4.74-2.21-6.11-4.72-3.37-6.19-.43-11.49,5.22-14.84,11.92-7.09,32.02-23.72,27.13-32.95-3.35-6.31-19.53-2.46-27.09,1.2l-17.44,8.47c-6.07,2.95-12.51.79-15.04-5.22-2.31-5.5.59-11.9,6.83-14.08,11.12-3.88,28.42-1.66,45.82-9.07,4.54-1.93,8.48-6.4,7.39-11.46-1.03-4.76-4.98-8.56-9.2-10.52l-17.09-7.95c-4.27-1.99-5.69-6.4-3.83-10.67,1.71-3.91,5.03-6.33,8.77-7.03,9.96-1.88,13.73,13.27,32.17,21.37,13.05,5.73,26.85,4.98,39.15-2.49,16.34-9.92,31.44-21.19,45.78-33.89,10.18-9.01,17.2-19.89,20.96-32.95,4.14-14.41,12.85-55.84,7.89-58.63-4.61-2.59-8.87,13.12-11.53,22.82l-9.13,33.32ZM763.26,51.51c7.84-.1,15.24,1.39,22.64,3.19,10.98,2.68,18.98,9.64,30.43,13.87-18.88-26.19-53.06-33.95-82.45-23.6-26.47,9.32-46.66,33.37-47.07,62.29,5.66-12.8,11.2-22.82,20.69-31.77,15.25-14.39,34.43-23.71,55.76-23.99ZM820.76,134.48c0-33.67-27.3-60.96-60.97-60.96s-60.97,27.29-60.97,60.96,27.3,60.96,60.97,60.96,60.97-27.29,60.97-60.96ZM567.09,215.46l6.05-12.38c.93-1.9.13-4.32-1.43-5.48-4.13-3.11-15.02,4.21-15.97,13.54-.36,3.52.96,6.44,3.73,7.52,2.54.99,6.04.04,7.62-3.2Z"/>
        <path class="cls-3" d="M964.17,652.46c12.34,34.39,7.52,69.89-20.6,94.69-1.34,1.18-2.49,2.02-2.92,3.64l-5.63-.29c4.47-14.19,6.33-28.83,2.95-43.59-2.93-12.79-8.23-24.49-15.93-34.91l-22.5-30.45c-6.3-8.53-19.24-16.3-21.73-12.64-.54.79-.43,2.81.42,3.99l20.5,28.43c7.58,10.51,14.98,20.51,20.67,32.19,28.6,58.63-45.15,113.06-13.87,126.04,10.01,4.15,21.43,3.54,32.58,3.11l21.85-.84c4.64-.18,9.2,2.41,12.01,5.95,2.53,3.18,2.73,6.97,1.3,10.36-3.8,8.99-19.1,4.1-29.95,1.42l-28.04-6.93c-2.98-.74-6.08,1.33-7.23,3.36-7.98,14.15,45.42,21.88,40.16,40.81-1,3.61-4.49,6.18-8.95,7.24-7.95,1.88-16.23-1.59-21.28-8.27l-18.02-23.82c-5.17-6.83-14.93-9.87-20.42-4.52-9.64,9.38,7.88,29.86,3.98,38.86-3.18,7.36-18.05,8.82-24.84,1.87-4.03-4.13-3.41-10.36-1.6-15.58,3.79-10.98,8.18-23.93-1.36-30.02-9.59-6.12-19.06,3.91-27.45,12.11-10.45,10.22-24.35,8.84-28,2.29-1.62-2.9-1.37-6.36.03-9.26,4.92-10.19,19.99-7.82,30.01-16,14.78-12.06,20.17-35.23,24.1-54.67,4.77-23.59-7.64-40.89-24.46-57l-35.67-34.15c-.89-.85-2.37-1.5-3.41-1.13-4.39,1.58,5.97,18.09,13.42,26.08l20.02,21.44c.31-.1.53.13.6.27,1.12.68-.12,1.92-.82.86-.12-.07-.37-.13-.61-.03-21.17-1.62-41.95-5.16-62.54-12.24-42.81-14.72-80.7-43.97-101.3-85.5,7.27-1.11,12.77-3.56,17.03-8.43l10.84-12.4c-.64,6.63-2.67,11.05-1.52,16.47,2.14,10.15,11.14,15.87,21.41,15.7,21.84-.37,24.61-23.37,26.29-42.46,2.53-28.79,24.02-38.34,49.24-46.93,38.25-12.82,66.14-31.1,82.03-69.19.73,36.12,6.5,70.01,18.79,102.85,4.62,12.34,10.7,22.97,19.9,32.2,16.53,16.57,37.6,26.66,60.5,29.03Z"/>
        <path class="cls-3" d="M625,849.2c11.17-4.69,29.36-12.96,24.81-21.41-1.36-2.53-5.37-3.76-8.78-2.37l-42.56,17.29c-5.9,2.4-11.64,4.63-17.97,4.8-6.83.18-12.02-4.28-12.5-10.32-.53-6.66,4.33-12.04,11.58-12.42,13.92-.73,27.65-.79,41.33-3.45,2.29-.44,4.17-2.42,4.17-4.14,0-2.11-2.36-4.32-4.91-4.46l-28.78-1.62c-4.8-.27-9.28-1.07-12.7-4.64-2.9-3.02-2.05-7.68,1.51-10.06,4.46-2.97,9.95-3.24,15.17-1.66l16.87,5.11c19.32,5.86,49.5,7.08,43.34-5.43l-17.48-35.46c-5.67-11.5-10.73-22.83-13.51-35.32-3.4-13.18-2.01-26.14,4.7-37.9,6.95-12.19,14.61-23.43,24.21-34.31,16.39,28.39,40.27,49.79,68.11,65.67-20.55,8.83-33.72,22.93-30.76,45.13,2.69,16.61,7.06,32.47,12.66,48.29,7.22,20.39,26.02,15.17,33.52,26.41,2.99,4.48,3.52,10.99-1.12,14.34-7.45,5.38-17.85,3.31-23.89-3.16l-8.25-8.83c-9.03-9.67-23.1-10.75-33.86-3.03-12.89,9.25-29.53,42.32-49.08,35.29-3.2-1.15-5.65-3.02-6.62-5.33-2.87-6.87,2.5-13.52,10.82-17.01Z"/>
        <path class="cls-3" d="M522.45,484.48c.27-6.97-10.85-11.32-18.99-10.23l-21.95,2.92c-3.43.46-7.46.27-9.74-2.37s-2.07-6.09-.79-9.55c2.61-7.07,14.54-8.16,24.56-6.32l22.85,4.2c4.62.85,8.88-.99,11.03-4.66s1.18-8.21-1.98-11.51l-16.99-17.79c-2.71-2.84-3.67-6.74-2.45-10.12s5.28-5.76,9.49-5.4c11.81.99,12.7,16.24,23.14,30.09,6.67,8.85,16.58,12.33,27.13,8.51l38.74-14.03c12.49-4.52,22.81-11.55,32.4-20.68l42.85-40.84-23.72,53c-7.11,15.89-11.76,31.85-16.11,48.97l-46.85,5.83c-26.77,3.33-46.83,22.58-50.67,49.38-.53,3.71-2,7.92-4.09,10.75-2.79,3.77-6.6,5.42-10.83,3.9-3.29-1.19-6.7-4.76-5.57-9.17,3.3-12.84,24.07-29.59,11.5-38.89-10.63-7.87-29.92,18.98-42.22,24.23-5.2,2.22-10.95.1-12.94-4.07-2.59-5.42-.58-11.79,5.04-13.93l19.47-7.42c7.92-3.02,17.44-8.26,17.69-14.77Z"/>
        <g>
          <path class="cls-1" d="M1003.88,649.72c26.86,22.92,28.38,65.77,8.78,93.83-.51.74-1.58,1.71-2.92,2.02-22.87,5.3-46.14,7.57-69.08,5.22.43-1.62,1.57-2.46,2.92-3.64,28.12-24.8,32.93-60.3,20.6-94.69,13.26,1.37,26.79.64,39.71-2.74Z"/>
          <path class="cls-3" d="M1035.77,633.47c1.25,2.09,3.04,2.77,4.77,3.87,28.1,17.85,39.05,52.23,26.49,82.58-14.53,10.04-30.74,17.35-47.94,22.82-2.42.77-4.32,1.67-6.42.82,19.6-28.06,18.08-70.91-8.78-93.83,11.64-3.04,22.73-8.37,31.89-16.25Z"/>
          <path class="cls-1" d="M1115.89,664.85c-11.57,22.03-28.43,40.96-48.86,55.07,12.55-30.35,1.6-64.74-26.49-82.58-1.73-1.1-3.52-1.78-4.77-3.87,8.11-6.99,15.53-15.37,20.81-24.7,28.53,5.48,53.55,24.76,58.29,54.23.15.93.69,1.59,1.03,1.84Z"/>
          <path class="cls-3" d="M1134.51,607.92c-3.21,19.75-9.29,39.15-18.62,56.93-.34-.25-.88-.91-1.03-1.84-4.74-29.48-29.76-48.75-58.29-54.23,4.94-8.73,8.94-18.04,11.22-27.75,25.48-5.1,52.08,5.26,66.72,26.9Z"/>
          <path class="cls-1" d="M1133.54,548.77c3.65,19.49,4.15,39.61.97,59.15-14.64-21.64-41.24-32-66.72-26.9,3.02-12.84,3.68-26.01,1.85-39.08,20.45-10.26,46.34-7.82,63.9,6.82Z"/>
          <path class="cls-1" d="M1078.18,438.15l14.25,22.56,19.34,29.57c.86,1.31,1.21,2.61,1.95,4.05-19.21-8.21-40.32-4.69-55.4,9.07l-11.86-23.76-10.84-23.56c10.59-12.85,26.37-18.61,42.55-17.93Z"/>
          <path class="cls-3" d="M1113.73,494.33c9.64,16.15,16.23,35.27,19.82,54.44-17.56-14.65-43.44-17.08-63.9-6.82-1.86-13.32-5.32-26.53-11.32-38.54,15.08-13.77,36.19-17.29,55.4-9.07Z"/>
          <path class="cls-1" d="M1061.17,395.1c-13.45-2.88-26.94,1.81-36.91,11.2-1.19-42.32,21.17-82.95,63.78-93.22,1.82-.44,4.63-.65,5.31,1.05-2.25,3.37-5.96,5.85-8.93,8.37-21.8,18.56-28.63,45.45-23.24,72.6Z"/>
          <path class="cls-3" d="M1061.17,395.1c3.04,15.3,8.69,29.89,17.01,43.05-16.18-.68-31.96,5.09-42.55,17.93-7.17-15.57-10.89-32.62-11.37-49.79,9.97-9.39,23.46-14.08,36.91-11.2Z"/>
          <path class="cls-3" d="M1065.34,348.14c-3.6,9.01-4.49,13.13-5.64,23.25-8.21-5.83-20.77-3.67-30.65-.55,4.21-15,14.32-29.37,15.56-30,8.38-1.52,14.69,1.25,20.74,7.31Z"/>
        </g>
        <path class="cls-3" d="M670.56,541.64c-9.24,3.01-17.78,3.91-27.51,4.67l2.56-19.11c4.17,3.97,8.27,7,13.72,8.85,3.72,1.74,7.54,2.56,11.23,5.59Z"/>
        <path class="cls-3" d="M566.12,104.66c-1.41,1.74-3.67-.15-4.36-1.62-1.51-3.23-1-6.23.64-9.21,1.39-2.54,4.27-4.99,7.87-5.01,1.69,0,3.09.91,3.75,1.69.87,1.03,1.06,3.14.02,4.42l-7.92,9.74Z"/>
        <path class="cls-3" d="M645.71,597.22l-1.16-5.39,20.67-9.2c-5.74,6.42-12.82,9.8-19.52,14.59Z"/>
        <path class="cls-3" d="M583.73,75.55c-5.17-.79-8.87.06-13.44,1.67,4.62-4.43,9.21-8.08,15.73-10.76l-2.29,9.09Z"/>
        <path class="cls-3" d="M687.64,614.29c.38.08.85-2.48,1.19-2.34.78.32.69,1.15.51,1.44s-.58,1.15-1.7.91Z"/>
        <polygon class="cls-3" points="951.83 855.16 952.5 855.16 953.15 855.18 952.5 855.2 951.83 855.2 951.17 855.18 951.83 855.16"/>
        <rect class="cls-3" x="518.62" y="521.13" width=".71" height=".71" transform="translate(-216.74 519.78) rotate(-45.01)"/>
        <path class="cls-2" d="M763.26,51.51c-21.34.28-40.51,9.6-55.76,23.99-9.49,8.95-15.02,18.97-20.69,31.77.41-28.92,20.6-52.97,47.07-62.29,29.39-10.35,63.57-2.59,82.45,23.6-11.45-4.23-19.45-11.19-30.43-13.87-7.4-1.81-14.8-3.3-22.64-3.19Z"/>
        <path class="cls-2" d="M567.09,215.46c-1.58,3.24-5.08,4.19-7.62,3.2-2.77-1.08-4.08-4-3.73-7.52.95-9.33,11.84-16.65,15.97-13.54,1.55,1.17,2.35,3.58,1.43,5.48l-6.05,12.38Z"/>
        <g>
          <path class="cls-2" d="M820.76,134.48c0,33.67-27.3,60.96-60.97,60.96s-60.97-27.29-60.97-60.96,27.3-60.96,60.97-60.96,60.97,27.29,60.97,60.96ZM775.24,180.53c10.24-1.1,16.33-8.19,22.9-14.53,14.11-19.06,13.93-45.54-1.64-63.83-15.34-18.02-41.78-21.98-61.56-8.47,18.6-5.21,37.11-.9,49.23,13.82,18.45,22.41,13.98,55.11-8.93,73ZM742.29,124.44c0-5.98-4.85-10.83-10.84-10.83s-10.84,4.85-10.84,10.83,4.85,10.83,10.84,10.83,10.84-4.85,10.84-10.83Z"/>
          <path class="cls-3" d="M775.24,180.53c22.91-17.89,27.39-50.59,8.93-73-12.12-14.72-30.63-19.03-49.23-13.82,19.78-13.52,46.22-9.55,61.56,8.47,15.57,18.28,15.75,44.77,1.64,63.83-6.57,6.33-12.66,13.42-22.9,14.53Z"/>
          <circle class="cls-3" cx="731.46" cy="124.44" r="10.84"/>
        </g>
      </g>
    </g>
  </g>
</svg>