<?xml version="1.0" encoding="UTF-8"?>
<svg id="_Слой_2" data-name="Слой 2" xmlns="http://www.w3.org/2000/svg" viewBox="0 0 712.8 715.17">
  <defs>
    <style>
      .cls-1 {
        fill: #6b2ee5;
      }

      .cls-2 {
        fill: #7a34d2;
      }

      .cls-3 {
        fill: #fff;
      }

      .cls-4 {
        fill: #1e1e1e;
      }

      .cls-5 {
        fill: #6d6d6c;
      }

      .cls-6 {
        fill: #c6c8cb;
      }

      .cls-7 {
        fill: #fdfdfd;
      }

      .cls-8 {
        fill: #ff0;
      }
    </style>
  </defs>
  <g id="_Слой_1-2" data-name="Слой 1">
    <g>
      <path class="cls-3" d="M302.88,403.54c-31.42-3.88-94.88-12.87-126.32-15.4-.22.26,0,.72.52,1.35,1.2,1.27,2.59,3.03,4.3,3.68,2.48.85,4.7-1.24,7.5-1.77,3.22-.72,6.63-.21,9.58,1.25,3.62,1.77,6.67,4.96,8.25,9.06.85,1.99,1.38,5.12,3.74,5.6,19.96,2.23,75.62,10.53,94.45,11.22,1,.05,2-.12,2.47-1.14l.05-.11c.85-2.39.34-5.37.02-7.83-.48-3.11-1.58-5.43-4.57-5.91Z"/>
      <path class="cls-3" d="M283.03,62.29c.78-.16,1.48-.54,2.25-.78l.2-.06c2.58-.5,5.16-1.89,5.74-4.64.13-.56.02-1.04-.39-1.22-2.98-.5-7.64,3.6-9.36,5.23-.51.68.42,1.68,1.55,1.47Z"/>
      <path class="cls-3" d="M230.49,416.81c-8.24-1.56-16.45-1.34-24.64-1.87-.94-.22-1.64-.95-2.07-1.85-.65-1.35-1.35-3.59-2.13-5.69-1.17-2.98-1.72-5.88-3.86-8-3.44-3.64-10.33-2.72-12.44,1.91-1.2,2.62-.65,5.86.2,8.55,4.57,14.72,22.19,23.48,36.1,15.78l.19-.09c2.1-1.27,16.33-7.33,8.64-8.73Z"/>
      <path class="cls-3" d="M332.97,347.19c6.98-25.14,16.37-49.16,25.16-74.28-.21-1.44-2.11.24-2.78.66-4.28,3.14-7.24,7.24-10.88,10.82l-.14.13c-4.04,3.26-7.39,7.65-10.86,11.52-8.12,8.77-18.37,19.43-29.02,25.33-1.22.7-2.95,1.54-3.35,2.69-.28.73-.18,1.61,0,2.45,1.42,6.1,3.42,15.19,5.39,20.31,1.05,3.92,2.28,10.28,3.27,14.29.19.69.42,1.33.83,1.81,1.78,1.62,5.17-1.04,7-1.89,6.1-3.45,12.9-6.85,15.4-13.86Z"/>
      <path class="cls-3" d="M151.8,390.5c1.28.38,2.65.73,3.95.45l.16-.03c2.04-.49,3.59-2.33,5.03-3.72.58-.68-.11-.63-1.12-.75-23.97-2.76-73.29-6.38-94.79-8.84-1.29-.2-3.04-1.09-3.64.04-2.13,3.95-.92,10.01,2.92,12.47,1.74,1.09,3.25,1.46,4.83,1.63,7.26.81,57.3,6.5,64.54,7.29,1.27-.05,1.45-.88,2.5-2.25,3.3-5.39,9.47-8.41,15.62-6.28Z"/>
      <path class="cls-3" d="M273.72,78.03c5.77,1.64,11.51-4.69,13.3-10,.21-.66.34-1.49-.12-1.99-.45-.51-1.36-.55-2.08-.47-3.96.42-7,3.16-9.01,6.33-.77,1.57-3.99,4.45-2.23,6.06l.12.08Z"/>
      <path class="cls-3" d="M155.74,409.94c-2.14-7.9-1.09-13.67-6.21-13.98-3.44-.31-6.52,2.33-7.3,5.64-2.12,7.77,3.87,14.99,11.71,17.6,2,.6,4.07,1.19,5.06.54l.06-.06c.59-1.07-.54-2.11-1.07-3.55-.82-1.75-1.66-4.03-2.25-6.19Z"/>
      <path class="cls-3" d="M179.59,411.52c-1.51-4.1.14-8.92-1.98-12.87-4.63-8.26-15.98-6.53-17.17,3.15-1.06,6.85,2.55,13.57,7.19,18.29l.13.14c3.5,4.07,9.21,5.61,14.98,4.92.97-.14,2.13-.43,2.49-1.28.25-.61-.02-1.43-.57-2.36-1.98-3.09-4.04-6.39-5.07-9.97Z"/>
      <path class="cls-1" d="M264.2,209.03c-6.19-16.37-61.61-11.11-78.06-14.88-22.32-1.96-76.28-6.51-85.71-7.35-14.57-1.09-32.85-2.56-47.74-4.18-10.28-.03-30.81-6.47-39.71,1.11-10.4,7.16,24.38,102.23,25.9,115.42,3.97,15.91,11.3,40.46,15.59,56.45.85,2.7,1.41,5.9,2.52,8.26,2.79,5.09,10.91,5.11,16.68,5.63l.2.02c59.38,6.03,166.19,19.48,226.18,26.08,2.15.11,4.75-.37,6.42-1.96,1.31-1.36,1.59-2,1.38-3-4.65-17.9-34.67-145.31-43.64-181.6Z"/>
      <path class="cls-3" d="M638.78,288.53c.77-1.89,1.79-3.88,1.71-5.88-.29-2.91-1.85-5.62-2.06-8.62-.6-3.86.01-7.83-.72-11.4-1.32-5.65-4.89-12.18-3.43-17.14,1.18-6.1,7.65-10.57,9.78-16.35,5.46-13.75,4.01-39.02-10.98-42.08-2.91-.6-6.03-.11-7.88,1.68-7.49,10.21,1.08,25.23-.51,36.79-.98,13.78-9.78,17.7-13.25,28.29-1.21,3.41-2.74,7.24-3.29,10.77-.49,3.4.05,7.21-.32,11-.56,14.04-45.26,35.39-57.84,42.26-8.69,5.32-12.78-2.26-18.14-7.85-5.53-5.7-12.2-12.28-17.72-17.36-9.78-8.78-20.83-15.58-33.22-20.3-2.42-.99-5.21-2.1-6.82-4.18-3.17-4.16,1.85-8.7,6.3-7.27,3.29.59,7.87,2.49,10.67,2.73,2.27.38,3.12-1.84,3.56-3.75,8.35-31.43,26.87-61.42,42.04-90.08,33.33-64.26-8.02-144.28-79.6-155.26-21.68-4.17-43.84-2.2-65.23,2.98-12.81,3.1-25.41,7.39-37.5,12.25-1.31.26-2.91,1.43-4.01.34-.88-2.07,2.41-4.74.99-6.97-.59-.94-1.74-1.47-2.81-1.84-6.39-1.96-13.37-2.57-19.9-1.16-27.25,4.66-22.13,40.67-32.13,59.01-11.62,25.15-43.11,38.86-50.79,66.01-5.37,17.95,6.81,35.8,25.19,38.49,20.33,4.61,42.47,7.69,63.06,6.61,39.46-1.85,92.1-11.69,122.86-38.41.75-.72,1.42-1.44,1.8-2.38.88-2.1-.34-5.01,1.66-6.54,7.39-3.84,20.09-.2,24.53,5.15,1.85,2.14,2.05,6.01-.87,7.26-4.24,1.86-9.85-2.94-14.14-.59-10.24,7.31-20.28,15.48-32.66,21.62-8.1,4.03-16.76,7.2-25.08,10.46-41.83,14.71-88.95,15.19-132.51,9.81-3.47-.54-4.42.44-1.3,2.48,31.65,17.83,68.98,21.11,104.52,24.07,10.41.4,21.13.36,31.63-.58,2.29-.26,6.82.71,3.83,3.15-10,4.34-22.19,3.8-32.72,5.29-1.58.19-3.2.7-4.26,1.79-11.9,44.73-30.98,93.13-43.19,138.07-.29,1.71.64,2.18,2.07,2.31,10.16,1.32,35.14,4.72,48.46,6.43,5.49.69,22.76,2.86,29.01,3.64,5.56.23,10.27,3.58,12.01,9.19,1.64,4.8,1.82,15.42-3.22,18.55-7.45,2.67-38.12,6.31-62.59,9.13-12.71,1.47-21.21,2.38-29.21,3.49-.86.17-1.49.12-2.11.6-.67.74-.58,1.97-.62,2.98.13,4.34.2,10.85.38,15.56v.16c1.11,67.71,57.05,133.16,125.87,136.28,1.27-1.5-1.56-3.65-2.44-4.96-5.24-6.44-10.07-13.11-14.63-20.03-2.68-4.43-6.09-10.84-7.36-15.87-.51-2.17-1.42-7.76,1.9-5.79,8.79,7.29,14.83,17.53,22.43,26.33,22.58,23.89,31.42,52.69,22.52,84.79-2.92,9.82-9.96,18.29-20.37,20.45-17.4,2.64-18.18,21.98-.8,18.19,6.34-1.65,10.59-6.86,15.13-10.72,3.56-3.3,10.3-5.09,13.3-.28.83,1.39.91,3.32.66,4.97-1.25,8.02-5.03,15.81-1.29,22.4,4.88,9.16,18.28,7.26,19.29-3.76,1.42-7.1-5.76-16.01-1.73-22.13,3.44-3.96,9.12-1.09,11.37,2.69,4.03,5.59,7.83,12.64,12.21,17.91,14.88,14.33,34.95,1.05,14.95-14.04-5.05-4.64-20.36-9.79-19.17-17.9.66-.82,1.95-.76,3.01-.6,7.21,1.08,19.65,7.35,26.32,11.58,2.71,1.75,5.31,3.71,8.64,4.05,14.79.02,14.87-17.53-1.74-18.11-14.5-2.37-48.6-4.19-42.34-25.72,14.69-59.77,25.06-77.26-12.97-130.93-1.77-2.82-3.76-4.7-3-7.34,5.45-6.46,17.4,22.8,8.58-14.36-6.05-14.36-13.96-27.83-17.99-42.9-7.55-26.28-10.07-53.34-9.46-80.62,1.36-8.76-5.32-12.58-11.29-17.24-3.14-2.85-7-5.17-9.27-8.78-1.75-3.44,2.39-2.57,4.41-1.37,24.5,11.95,46.39,30.08,71.72,39.96,12.96,3.85,23.57-.98,35.97-8.62,15.84-10.12,29.44-22.82,43.07-35.66,2.83-3.6,8.46-7.65,6.79-12.71-1-2.24-4.2-3.96-5.48-6.29-2.98-6.64,5.49-3.16,8.21-1.33,2.97,2.02,24.73,11.06,14.98,1.37-4.49-4.82-5.9-11.23-3.37-17.32Z"/>
      <path class="cls-3" d="M681.87,259.83c-.18-1.07.38-2.13,1.14-3.32,3.05-4.36,3.64-9.97.96-14.61-7.91-15.21-40.11-9.22-40.09,8.67.03,1.77.86,3.81,2.97,3.5,7.49-2.41,16.41-3.01,24.31-2.65,1.33.04,2.76.17,3.99.64,4.76,1.77,3.44,7.94-1.56,8.18-3.98.44-9.12-.23-13.53.77-3.01.6-6.05,1.7-8.57,3.43-5.74,3.88-7.14,10.69-1.75,13.86,3.2,1.89,6.03,1.93,9.94,1.89,4.05.03,10.42-.17,13.95-.02l.17.02c3.81.21,6.46,3.54,3.1,6.5-1.8,1.49-4.27,1.38-8.36,1.72-2.53.19-5.29.38-7.77.57-4.9.5-12.78-.41-13.81,5.91.34,15.93,37.31,15.34,36.59-.13.17-2.92-1.37-6.3-.45-9.08.38-1.21,1.18-2.29,1.94-3.32,3.83-4.92,5.79-11.38.7-17.37-1.3-1.66-3.43-3.04-3.85-5.15Z"/>
      <path class="cls-3" d="M372.68,411.35c8.89-1.08,29.84-3.63,38.33-4.66,3.97-.58,8.35-.14,9.85-4.89.63-2.52.78-6.93-1.62-8.36-22.78,1.07-77.63,8.31-101.82,10.57-1.03.13-2.35.15-2.95.96-.46.65-.57,1.54-.61,2.37-.09,2.13.01,5.69.03,7.73.11.89-.26,2.73,1.01,2.62,5.32-.55,45.17-4.96,57.74-6.33h.05Z"/>
      <path class="cls-3" d="M322.64,383.99l.14.02c6.25.83,19.02,2.83,26.09,3.88.68.12,1.8.33,2.03.8-.45,2.13-8.52,1.47-10.94,1.59-7.48.02-15.06-.79-22.49-1.76-2.71-.2-3.38,2.44-3.38,5.08-.03,1.33.1,3.04,1.01,3.65.89.77,2.46.76,3.79.66,25.71-2.57,63.66-6.63,90.05-10.09.31-.15-.33-.3-1.74-.48-3.94-.48-9.26-1.12-13.29-1.29-4.98.09-8.78-.98-13.54-1.54-14.5-1.05-29.1-3.91-43.49-4.5-3.24-.11-6.58-1.03-9.62-1.38-3.72-.21-7.99-1.02-11.59-1.37-3.39-.22-2.71,2.44-1.02,4.01,2.09,2.04,5.57,2.37,7.99,2.72Z"/>
      <path class="cls-3" d="M375.72,554.42c-1.67-1.4-3.45-2.78-5.03-4.32-5.42-5.06-10.61-11.11-15.64-16.61-5.51-7.63-11.26-15.79-16.19-23.97-1.83-3.46-3.67-1.61-6.03.89-45.81,51.02-15.15,76.66,5.15,129.62-.44,1.01-2.31.38-3.32.1-13.22-4.11-28.12-5.83-41.62-7.98-5.21-.78-10.78-1.4-15.92.42-5.82,2.15-2.5,7.12,4.74,8.35,1.22.21,2.54.33,3.74.39,5.15.2,11.99.37,17.49,1.05,4.11.73,3.58,4.28.35,5.49-7.4,3.29-20.89,1.92-29.98,1.08-1.85-.15-3.66-.19-5.49.19-5.76,1.15-11.98,7.13-9.43,13.16,3.01,5.97,11.27,7.36,17.16,5.49,3.54-1.17,6.62-3.42,9.95-5.17,10.01-5.15,18.88-7.89,28.16-7.16,3.48.44,6.76,2.32,3.79,5.64-1.95,1.85-4.53,2.44-7.1,3.37-5.93,2.37-21.93,4.84-22.94,12.78l-.02.18c-.77,14.71,18.2,9.15,26.03,4.54,8.98-5.39,17.08-12.18,26.43-16.97,6.85-2.94,15.23-5.23,22.35-2.02,3.03,1.35,5.16,3.79,8.01,5.56,5.59,3.74,16.6,4.63,19.95-1.78,4.02-9.08-4.22-11.6-10.81-16.79-2.15-1.74-3.87-4-5.07-6.45-11.28-23.4-17.54-54.08-5.23-76.15,1.53-2.75,3.95-4.8,6.47-6.63,1.09-.74,2.43-2.17,2.3-3.34-.04-1.05-1.34-2.2-2.26-2.95Z"/>
      <path class="cls-3" d="M223.92,424.45l-1.05-7.36-16.72.17c-5.68.06-9.98-2-15.74-5.34-.3,6.43,7.8,10.88,14.58,13.69,8.09,3.36,12.15-1.5,17.08-.17-8.35,4.49-17.64,3.92-25.42-1.87-5.44-4.05-8.93-10.6-10.33-17.42-.87-4.25,1.84-8.21,5.39-8.91s7.71.76,9.03,4.55l4.68,13.43c9.74-.27,18.98.31,28.84,2.22-2.92,3.27-6.63,5.02-10.33,7.01Z"/>
      <path class="cls-3" d="M168.97,420.27c.8-2.82,7.2-.06,11.42-2.62l-3.24-8.43c-8.27.7-5.91-7.61-11.54-11.99-5.79,10.04,1.11,15.05,3.36,22.81-5.7-5.35-9.19-14.16-6.08-22.09,1.81-4.61,7.51-5.53,10.82-3.89,4.84,2.39,5.87,5.92,5.5,11.29-.47,6.83,3.65,13.25,7.56,18.86-2.53,1.84-11.56.61-12.94-.11-1.26-.65-5.41-2.16-4.87-3.82ZM180.42,421.4c-.92,1.25.37,2.1,1.22,1.88.41-.11,1.05.28,1.53-.61.41-.76-.16-1.36-.58-1.47-.44-.12-1.91-.15-2.16.2Z"/>
      <path class="cls-3" d="M223.92,424.45l-1.85.99c-4.93-1.34-8.99,3.52-17.08.17-6.78-2.81-14.88-7.26-14.58-13.69,5.77,3.34,10.07,5.4,15.74,5.34l16.72-.17,1.05,7.36Z"/>
      <path class="cls-3" d="M160.55,420.09c-4.96-.26-9.04-1.76-12.41-4.74-4.67-4.12-6.4-10.38-3.82-16,1-2.19,2.74-2.95,4.49-3.22,9.38-1.41,2.9,10.39,11.74,23.95ZM152.71,404.22l-.5.5.5.5.5-.5-.5-.5ZM152.98,407.89c-1.75-1.58-6.99-1.28-7.85,1.54,3.11.41,6.33.91,6.12,3.62-.2,2.49.44,2.74,1.41,3.48,2.91,2.22,4-1.14.33-8.64Z"/>
      <path class="cls-3" d="M172.26,420.96c-.23.82-1.88,1.24-2.36.44-.22-.37-.52-.99-.92-1.36-2.25-7.76-9.14-12.76-3.36-22.81,5.64,4.38,3.27,12.69,11.54,11.99l3.24,8.43c-4.22,2.56-7.35.49-8.14,3.31Z"/>
      <path class="cls-5" d="M394.31,390.08c-.35-.64-.33-1.18-.21-1.61.24-.82,2.27-1.19,3.73-.24,2.74.64,2.7-2.62.05-2.02-2.93.57-5.68.51-6.9-1l5.1-.56,22.77,2.51-24.52,2.93Z"/>
      <g>
        <path class="cls-5" d="M307.96,418.33c-7.29.68-14.26.64-21.64-.27l-80.15-10.79c-.51-6.77-2.38-9.02-6.96-11.36-6.22-3.19-12.18-3.61-17.17,1.16-1.72-3.71-5.72-6.72-8.3-9.72l85.68,8.52,46.66,8.06c1.84,4.54,2.05,8.42,1.88,14.41Z"/>
        <path class="cls-5" d="M371.4,412.45l-58.54,6.34.28-15.46,74.08-8.43,33.92-4.04c1.22,3.44,1.19,11.7-1.77,14.22-1.15.98-3.2,2-4.67,2.17l-43.3,5.19Z"/>
        <path class="cls-5" d="M156.61,392.45c-3.93-2.15-6.97-1.82-11.38-.1-3.6,1.4-8.17,3.44-10.02,8.23l-70.53-7.21c-4.46-.5-6.49-6.37-7.6-10.79-.59-2.35,1.63-9.61,5.36-10.05l99.7,14.14c-1.72,2.15-3.84,2.15-5.53,5.78Z"/>
        <path class="cls-5" d="M309.31,375.73c1.64-.89,4.66-.04,6.44.27.19.57.83,1.12,1.34,1.24.33.08,1.05.34,1.39.26.85,1.02,2.82,1.37,4.85,1.58l46.57,4.9c6.95.73,13.44.6,19.72,1.11l1.35.11c1.22,1.51,3.97,1.57,6.9,1,2.65-.6,2.7,2.66-.05,2.02-1.45-.95-3.49-.58-3.73.24-.12.44-.14.98.21,1.61l-3.36.37c-.36-1.08-2.14-1.72-3.91-1.55l-31.77,3.08c-5.99.58-11.66,2.33-17.09.55.68-1.04,3.19-1,4.07-.82.6.12,1.7-1.21-.4-1.58.56-.4,1.31-.88,1.33-2.21l-36.61-5.39c.84-5.14,2.26,2.8-1.2-4.34,7.29-2.3.95,1.39,3.96-2.45Z"/>
        <path class="cls-5" d="M341.84,390.13c2.1.37,1,1.71.4,1.58-.88-.18-3.38-.22-4.07.82,5.43,1.78,11.11.03,17.09-.55l31.77-3.08c1.77-.17,3.55.47,3.91,1.55l-64.62,6.85c-8.91.94-18.75,2.68-26.02,2.69.29-3.37,3.19-2.62,6.2-2.94l30.49-3.25-18.64-1.78c-6.05-.58-9.85-3.52-2.97-2.42,9.1,1.45,17.83.93,26.45.54Z"/>
        <path class="cls-5" d="M314.97,388.31c-1.84,0,17.68-4.27,23.35-2.81l-.1,8.35-29.22,6.16c-3,.32,6.26-15.07,5.97-11.7Z"/>
        <path class="cls-5" d="M389.62,385.1c-6.28-.52-12.77-.38-19.72-1.11l-46.57-4.9c-2.03-.21-4-.56-4.85-1.58,6.9-1.67,14.35,1.14,21.47,1.51,10.29.53,19.68,1.86,29.93,3.29,6.77.94,13.9-.05,19.73,2.8Z"/>
        <path class="cls-5" d="M327.12,379.08c-2.28,2.91-5.88-1.51-11.41.23,2.62,5.41,9.96,1.02,9.32,4.91-2.78-.41-6.27-.33-8.95-2.02-1.19-.75-1.68-3.29-1.74-5.05l12.78,1.92Z"/>
      </g>
      <rect class="cls-2" x="97.41" y="369.4" width=".71" height=".71" transform="translate(-232.82 177.43) rotate(-45)"/>
      <path class="cls-3" d="M180.42,421.4c.26-.35,1.72-.31,2.16-.2.42.11.99.71.58,1.47-.48.89-1.12.5-1.53.61-.84.22-2.13-.63-1.22-1.88Z"/>
      <path class="cls-3" d="M152.98,407.89c3.67,7.5,2.58,10.86-.33,8.64-.96-.74-1.6-.98-1.41-3.48.21-2.7-3-3.21-6.12-3.62.86-2.82,6.11-3.12,7.85-1.54Z"/>
      <rect class="cls-6" x="152.36" y="404.37" width=".71" height=".71" transform="translate(-241.45 226.52) rotate(-45)"/>
      <path class="cls-8" d="M191.61,252.34c3.4,1.88,6.39,5.55,9.26,8.33,6.48,6.94,9.82,10.42,16.34,17.19,6.69,7.36,16.91,14.02,5.2,22.59-4.57,3.74-14.95,12.23-21.64,17.72-5.39,3.81-9.5,10.3-16.89,8.87-4.93-1.26-7.98-6.87-3.84-10.61,5.36-5.41,11.41-10.79,17.5-15.73,4.55-4.34,12.8-8.57,5.8-15.06-4.82-5.14-9.74-10.46-14.62-15.68-3.18-3.47-6.54-6.65-7.48-9.45-2.42-6.44,4.56-11.11,10.2-8.24l.17.09Z"/>
      <path class="cls-8" d="M128.65,243.63c6.44,5.51-1.92,14.58-7.12,19.31-7.61,7.67-21.31,13.91-11.76,25.47,4.47,6.78,27.62,21.81,16.44,29.56-12.16,4.32-25.5-13.49-33.83-20.86-14.02-13.29-13.82-20.71.94-33.13,7.82-5.94,24.9-25.67,35.21-20.42l.12.07Z"/>
      <path class="cls-2" d="M124.67,316.26l-1.01-1.01c.34.24.82.64,1.01,1.01Z"/>
      <path class="cls-4" d="M552.71,588.31c-11.4-3.25-13.7,12.19-14.7,14.76-2.29,5.7-6.27,19.17-8.38,25.57-8.51,24.76,33.18,14.92,45.42,24.01,14.56,8.65,7.63,31.46-8.53,33.75-4.09.51-5.14,3.2-4.85,6.83.13,11.94-14.32,19.77-26.4,16.55-12.84-2.45-17.44-19.06-21.13-6.99-8.78,22.53-40.42,11.82-39.53-12.43-.24-5.21-3-2.03-6.53-.29-24.89,13.45-46.51-17.08-21.16-32.56,5.4-2.57,11.92-3.19,16.02-7.82,12.48-13.09,11.66-38.95,5.7-53.54-2.52-6.47-10.69-4.95-16.27-5.93-20.55-2.56-40.05-8.8-57.51-19.96-3.18-2.41-7.28-2.51-10.3.16-21,17.23-10.13,49.67-.25,69.97,3.15,5.94,10.75,8.59,14.25,14.31,5.88,8.76,1.23,21.59-9.08,25.44-8.93,3.69-18.32.54-26.14-4.2-26.02-16.58-47.65,37.17-79.71,15.61-2.88-2.02-4.92-4.81-6.07-8.48-.6-1.72-1.32-3.19-2.63-3.92-1.32-.86-3.35-.74-5-.72-12.3.84-21.13-7.76-22.77-17.19-1.29-7.3,1.75-15.03,10.66-19.22,1.44-.72,3.01-1.62,4.07-2.78,1.6-1.66,2.04-4.03,2.29-6.26,1.66-17.36,29.21-10.61,43.77-8.64,3.02-.01,8.24,2.8,10.34.2.58-1.21-.97-3.98-1.92-5.52-28.27-44.75-22.35-85.11,13.39-122.85.58-1.85.16-3.87-.45-5.71-6.13-18.62-9.07-38.28-9.34-57.77.25-3.25-.7-6.71-4.56-5.98-17.64,1.07-50.1-3.7-68.2-5.64-2.32.04-4.56,1.73-6.31,3.42-14.39,14.55-31.1,15.66-49.28,8.81-14.67,1.44-14.18,1.04-27.91-4.72-12.05-.51-22.73-3.6-27.83-15.7-1.33-3.07-1.35-5.88-5.56-5.68-13.4-1.38-52.71-5.47-60.73-6.29-3.84-.32-8.02-1.22-11.38-3.84-4.64-3.65-6.59-9.67-6.49-16.06-.41-1.78.66-4.8-.04-6.1-6.41-10.03-29.57-99.66-42.39-147-4.56-22.23-18.88-45.04,1-55.15,5.15-1.97,10.97-1.46,16.43-1.06,11.4.91,22.74,1.81,34.16,2.86,22.47,1.86,44.76,3.43,67.22,5.21,35.61,2.62,83.56,9.72,118.84,9.37.84-.28-1.28-2.54-2.14-3.38-14.29-13.98-16.37-36.92-8.02-54.67,3.92-8.28,8.95-15.85,15.41-22.25,2.23-2.26,4.84-4.56,5.95-7.52,1.03-2.6.93-5.72.94-8.56-.36-25.34,11.81-39.76,32.48-51.83,8.93-19.56,19.66-33.13,43.07-33.62,8.78-.16,17.3,1.44,25.28,5.08,3.99,1.49,8.07-.04,11.8-1.56,15.93-6.47,32.41-10.1,49.24-10.44h.2c112.35-7.51,178.86,101.88,116.61,197.32-11.75,21.88-24.74,43.31-31.69,67.33-1.18,3.44.05,6.63,2.87,8.73,9.6,8.34,21.99,20.22,30.86,29.44,2.46,2.99,5.56,3.4,9.21,1.48,16.19-7.58,32.86-15.88,45.28-28.53,2.51-2.47,3.62-5.84,3.74-9.33.52-9.67,3.65-18.84,9.17-26.89,2.2-3.22,4.68-6.56,6.07-10.21,5.94-15.52-8.45-33.89,3.79-47.72,9.52-10.49,29.41-4.19,35.16,8.98,3.58,9.5,4.22,19.4,2.56,29.28-.4,1.59-.55,3.71.04,4.44.79,1.2,3.6.15,5.04-.18,19.56-5.51,37.71,9.04,34.77,28.51-.9,4.15-.25,8.16,1.56,11.93,3.61,8.39.64,15.98-2.61,23.36.22,26.49-19.34,30.07-42.89,29.46-4.42.24-10.44-.26-13.86,1.67-19.12,22.85-50.63,54.32-80.47,62.53-12.64,2.38-25.57-3.02-37.62-9.88-6.08-3.45-11.69-7.11-17.49-10.63-11.48-8.54-7.74,6-7.87,12.25,1.98,40.7,3.58,78.56,38.65,116.18,7.1,7.62,15.5,13.94,24.78,18.67l19.78,10.09-23.87,69.67ZM332.06,442.95c1.1,67.71,57.05,133.16,125.87,136.28,1.27-1.5-1.56-3.65-2.44-4.96-5.24-6.44-10.08-13.11-14.63-20.03-2.68-4.43-6.09-10.84-7.36-15.87-.51-2.17-1.42-7.76,1.9-5.79,8.79,7.29,14.83,17.53,22.43,26.33,22.58,23.89,31.42,52.69,22.52,84.79-2.92,9.82-9.96,18.29-20.37,20.45-17.4,2.64-18.18,21.98-.8,18.19,6.34-1.65,10.59-6.86,15.13-10.72,3.56-3.3,10.3-5.09,13.3-.28.83,1.39.91,3.32.66,4.97-1.25,8.02-5.03,15.81-1.29,22.4,4.88,9.16,18.28,7.26,19.29-3.76,1.42-7.1-5.76-16.01-1.73-22.13,3.44-3.96,9.12-1.09,11.37,2.69,4.03,5.59,7.83,12.64,12.21,17.91,14.88,14.33,34.95,1.05,14.95-14.04-5.05-4.64-20.36-9.79-19.17-17.9.66-.82,1.95-.76,3.01-.6,7.21,1.08,19.65,7.35,26.32,11.58,2.71,1.75,5.31,3.71,8.64,4.05,14.79.02,14.87-17.53-1.74-18.11-14.5-2.37-48.6-4.19-42.34-25.72,14.69-59.77,25.06-77.26-12.97-130.93-1.77-2.82-3.76-4.7-3-7.34,5.45-6.46,17.4,22.8,8.58-14.36-6.05-14.36-13.96-27.83-17.99-42.9-7.55-26.28-10.07-53.34-9.46-80.62,1.36-8.76-5.32-12.58-11.29-17.24-3.14-2.85-7-5.17-9.27-8.78-1.75-3.44,2.39-2.57,4.41-1.37,24.5,11.95,46.39,30.08,71.72,39.96,12.96,3.85,23.57-.98,35.97-8.62,15.84-10.12,29.44-22.82,43.07-35.66,2.83-3.6,8.46-7.65,6.79-12.71-1-2.24-4.2-3.96-5.48-6.29-2.98-6.64,5.49-3.16,8.21-1.33,2.97,2.02,24.73,11.06,14.98,1.37-4.49-4.82-5.9-11.23-3.37-17.32.77-1.89,1.79-3.88,1.71-5.88-.29-2.91-1.85-5.62-2.06-8.62-.6-3.86.01-7.83-.72-11.4-1.32-5.65-4.89-12.18-3.43-17.14,1.18-6.1,7.65-10.57,9.78-16.35,5.46-13.75,4.01-39.02-10.98-42.08-2.91-.6-6.03-.11-7.88,1.68-7.49,10.21,1.08,25.23-.51,36.79-.98,13.78-9.78,17.7-13.25,28.29-1.21,3.41-2.74,7.24-3.29,10.77-.49,3.4.05,7.21-.32,11-.56,14.04-45.26,35.39-57.84,42.26-8.69,5.32-12.78-2.26-18.14-7.85-5.53-5.7-12.2-12.28-17.72-17.36-9.78-8.78-20.83-15.58-33.22-20.3-2.42-.99-5.21-2.1-6.82-4.18-3.17-4.16,1.85-8.7,6.3-7.27,3.29.59,7.87,2.49,10.67,2.73,2.27.38,3.12-1.84,3.56-3.75,8.35-31.43,26.87-61.42,42.04-90.08,33.33-64.26-8.02-144.28-79.6-155.26-21.68-4.17-43.84-2.2-65.23,2.98-12.81,3.1-25.41,7.39-37.5,12.25-1.31.26-2.91,1.43-4.01.34-.88-2.07,2.41-4.74.99-6.97-.59-.94-1.74-1.47-2.81-1.84-6.39-1.96-13.37-2.57-19.9-1.16-27.25,4.66-22.13,40.67-32.13,59.01-11.62,25.15-43.11,38.86-50.79,66.01-5.37,17.95,6.81,35.8,25.19,38.49,20.33,4.61,42.47,7.69,63.06,6.61,39.46-1.85,92.1-11.69,122.86-38.41.75-.72,1.42-1.44,1.8-2.38.88-2.1-.34-5.01,1.66-6.54,7.39-3.84,20.09-.2,24.53,5.15,1.85,2.14,2.05,6.01-.87,7.26-4.24,1.86-9.85-2.94-14.14-.59-10.24,7.31-20.28,15.48-32.66,21.62-8.1,4.03-16.76,7.2-25.08,10.46-41.83,14.71-88.95,15.19-132.51,9.81-3.47-.54-4.42.44-1.3,2.48,31.65,17.83,68.98,21.11,104.52,24.07,10.41.4,21.13.36,31.63-.58,2.29-.26,6.82.71,3.83,3.15-10,4.34-22.19,3.8-32.72,5.29-1.57.19-3.2.7-4.26,1.79-11.9,44.73-30.98,93.13-43.19,138.07-.29,1.71.64,2.18,2.07,2.31,10.16,1.32,35.14,4.72,48.46,6.43,5.49.69,22.76,2.86,29.01,3.64,5.56.23,10.27,3.58,12.01,9.19,1.64,4.8,1.82,15.42-3.22,18.55-7.45,2.67-38.12,6.31-62.59,9.13-12.71,1.47-21.21,2.38-29.21,3.49-.86.17-1.49.12-2.11.6-.67.74-.58,1.97-.62,2.98.13,4.34.2,10.85.38,15.56v.16ZM285.35,61.46c2.58-.5,5.16-1.89,5.74-4.64.13-.56.02-1.04-.39-1.22-2.98-.5-7.64,3.6-9.36,5.23-.51.68.42,1.68,1.55,1.47.78-.16,1.48-.54,2.25-.78l.2-.06ZM273.6,78.03c5.77,1.64,11.51-4.69,13.3-10,.21-.66.34-1.49-.12-1.99-.45-.51-1.36-.55-2.08-.47-3.96.42-7,3.16-9.01,6.33-.77,1.57-3.99,4.45-2.23,6.06l.12.08ZM73.75,369.51c59.38,6.03,166.19,19.48,226.18,26.08,2.15.11,4.75-.37,6.42-1.96,1.31-1.36,1.59-2,1.38-3-4.65-17.9-34.67-145.31-43.64-181.6-6.19-16.37-61.61-11.11-78.06-14.88-22.32-1.96-76.28-6.51-85.71-7.35-14.57-1.09-32.85-2.56-47.74-4.18-10.28-.03-30.81-6.47-39.71,1.11-10.4,7.16,24.38,102.23,25.9,115.42,3.97,15.91,11.3,40.46,15.59,56.45.85,2.7,1.41,5.9,2.52,8.26,2.79,5.09,10.91,5.11,16.68,5.63l.2.02ZM364.48,253.31c.69-1.05,1-2.29,1.36-3.53,1.02-3.72,3.1-11.1,4.06-14.68.17-.68.29-1.43.06-1.99-.28-.66-1.12-.85-2.35-.91-1.55-.05-3.24,0-4.82-.05-4.75-.06-9.51-1.39-14.35-1.53-24.36-1.22-48-7.84-70.66-18.17-1.33-.59-2.22-1.03-3.23-1.4-1.13-.41-.92.07-.69.98,2.76,11.43,21.91,90.74,24.02,99.44.24,1.09,1.03.3,2.52-.61,16.19-11.38,32.1-30.19,46-43.77,2.39-2.44,5.3-4.47,8.18-6.45,3.41-2.66,7.3-4.04,9.85-7.21l.08-.12ZM673.67,280.19c3.81.22,6.46,3.54,3.1,6.5-1.8,1.49-4.27,1.38-8.36,1.72-2.53.19-5.29.38-7.77.57-4.9.5-12.78-.41-13.81,5.91.34,15.93,37.31,15.34,36.59-.13.17-2.92-1.37-6.3-.45-9.08.38-1.21,1.18-2.29,1.94-3.32,3.83-4.92,5.79-11.38.7-17.37-1.3-1.66-3.43-3.04-3.85-5.15-.18-1.07.38-2.13,1.14-3.32,3.05-4.36,3.64-9.97.96-14.61-7.91-15.21-40.11-9.22-40.09,8.67.03,1.77.86,3.81,2.97,3.5,7.49-2.41,16.41-3.01,24.31-2.65,1.33.04,2.76.17,3.99.64,4.76,1.77,3.44,7.94-1.56,8.18-3.98.44-9.12-.23-13.53.77-3.01.6-6.05,1.7-8.57,3.43-5.74,3.88-7.14,10.69-1.75,13.86,3.2,1.89,6.03,1.93,9.94,1.89,4.05.03,10.42-.17,13.95-.02l.17.02ZM344.21,284.53c-4.04,3.26-7.39,7.65-10.86,11.52-8.12,8.77-18.37,19.43-29.02,25.33-1.22.7-2.95,1.54-3.35,2.69-.28.73-.18,1.61,0,2.45,1.41,6.1,3.42,15.19,5.39,20.31,1.05,3.92,2.28,10.28,3.27,14.29.19.69.42,1.33.83,1.81,1.78,1.62,5.17-1.04,7-1.89,6.1-3.45,12.9-6.85,15.4-13.86,6.98-25.14,16.37-49.16,25.16-74.28-.21-1.44-2.11.24-2.78.66-4.28,3.14-7.24,7.24-10.88,10.82l-.14.13ZM525.39,493.94c-3.87-2.96-4.66-.82-4.1,2.99,1.31,6.74,3.77,13.36,6.07,19.7,15.48,42.58,6.8,58.92,20.59,62.41,15.64,3.96,28.86-39.81,31.4-40.01M326.9,372.1c.45-.23.5-.91.64-2.03.21-1.77.6-4.43.68-5.49.07-.87-.7-.16-1.07.16-2.78,2.47-6.01,3.71-9.22,5.28-2.07,1.04.13,1.54,1.95,1.84,2.03.28,5.15.59,6.91.3l.11-.05ZM155.79,390.92c2.04-.49,3.59-2.33,5.03-3.72.58-.68-.11-.63-1.12-.75-23.97-2.76-74.75-9.13-96.24-11.6-1.29-.2-1.59,1.67-2.18,2.79-2.13,3.95-.92,10.01,2.92,12.47,1.74,1.09,3.25,1.46,4.83,1.63,7.26.81,57.3,6.5,64.54,7.29,1.27-.05,1.45-.88,2.5-2.25,3.3-5.39,9.47-8.41,15.62-6.28,1.28.38,2.65.73,3.95.45l.16-.03ZM322.66,384.01c6.25.83,19.02,2.83,26.09,3.88.68.12,1.8.33,2.03.8-.45,2.13-8.52,1.47-10.94,1.59-7.48.02-15.06-.79-22.49-1.76-2.71-.2-3.38,2.44-3.38,5.08-.03,1.33.1,3.04,1.01,3.65.89.77,2.46.76,3.79.66,25.71-2.57,63.66-6.63,90.05-10.09.31-.15-.33-.3-1.74-.48-3.94-.48-9.26-1.12-13.29-1.29-4.98.09-8.78-.98-13.54-1.54-14.5-1.05-29.1-3.91-43.49-4.5-3.24-.11-6.58-1.03-9.62-1.38-3.72-.21-7.99-1.02-11.59-1.37-3.39-.22-2.71,2.44-1.02,4.01,2.09,2.04,5.57,2.37,7.99,2.72l.14.02ZM307.31,417.28c.85-2.39.34-5.37.02-7.83-.48-3.11-1.58-5.43-4.57-5.91-31.42-3.88-94.88-12.87-126.32-15.4-.22.26,0,.72.52,1.35,1.2,1.27,2.59,3.03,4.3,3.68,2.48.85,4.7-1.24,7.5-1.77,3.22-.72,6.63-.21,9.58,1.25,3.62,1.77,6.67,4.96,8.25,9.06.86,1.99,1.38,5.12,3.74,5.6,19.96,2.23,75.62,10.53,94.45,11.22,1,.05,2-.12,2.47-1.14l.05-.11ZM167.64,420.22c3.5,4.07,9.21,5.61,14.98,4.92.97-.14,2.13-.43,2.49-1.28.25-.61-.02-1.43-.57-2.36-1.98-3.09-4.04-6.39-5.07-9.97-1.51-4.1.14-8.92-1.98-12.87-4.63-8.26-15.98-6.53-17.17,3.15-1.06,6.85,2.55,13.57,7.19,18.29l.13.14ZM372.56,411.35c8.89-1.08,29.84-3.63,38.33-4.66,3.97-.58,8.35-.14,9.85-4.89.63-2.52.78-6.93-1.62-8.36-22.78,1.07-77.63,8.31-101.82,10.57-1.03.13-2.35.15-2.95.96-.46.65-.57,1.54-.61,2.37-.09,2.13.01,5.69.03,7.73.11.89-.26,2.73,1.01,2.62,5.32-.55,45.17-4.96,57.74-6.33h.05ZM158.94,419.68c.59-1.07-.54-2.11-1.07-3.55-.82-1.75-1.66-4.03-2.25-6.19-2.14-7.9-1.09-13.67-6.21-13.98-3.44-.31-6.52,2.33-7.3,5.64-2.12,7.77,3.87,14.99,11.71,17.6,2,.6,4.07,1.19,5.06.54l.06-.06ZM221.73,425.54c2.1-1.27,16.33-7.33,8.64-8.73-8.24-1.56-16.45-1.34-24.64-1.87-.93-.22-1.64-.95-2.07-1.85-.65-1.35-1.35-3.59-2.13-5.69-1.17-2.98-1.72-5.88-3.86-8-3.44-3.64-10.33-2.72-12.44,1.91-1.19,2.62-.65,5.86.2,8.55,4.57,14.72,22.19,23.48,36.1,15.78l.18-.09ZM287.43,677.39c-.77,14.71,18.2,9.15,26.03,4.54,8.98-5.39,17.08-12.18,26.43-16.97,6.84-2.94,15.23-5.23,22.35-2.02,3.03,1.35,5.16,3.79,8.01,5.56,5.59,3.74,16.6,4.63,19.95-1.78,4.02-9.08-4.22-11.6-10.81-16.79-2.15-1.74-3.87-4-5.07-6.45-11.28-23.4-17.55-54.08-5.23-76.15,1.53-2.75,3.95-4.8,6.47-6.63,1.09-.74,2.43-2.17,2.3-3.34-.04-1.05-1.34-2.2-2.26-2.95-1.67-1.4-3.45-2.78-5.03-4.32-5.42-5.06-10.61-11.11-15.64-16.61-5.51-7.63-11.26-15.79-16.19-23.97-1.83-3.46-3.67-1.61-6.02.89-45.81,51.02-15.15,76.66,5.15,129.62-.44,1.01-2.31.38-3.32.1-13.22-4.11-28.12-5.83-41.62-7.98-5.21-.78-10.78-1.4-15.92.42-5.82,2.15-2.5,7.12,4.74,8.35,1.22.21,2.54.33,3.74.39,5.15.2,11.99.37,17.49,1.05,4.11.73,3.58,4.28.35,5.49-7.4,3.29-20.89,1.92-29.98,1.08-1.85-.15-3.66-.19-5.49.19-5.76,1.15-11.98,7.13-9.43,13.16,3.01,5.97,11.27,7.36,17.16,5.49,3.54-1.17,6.62-3.42,9.95-5.17,10.01-5.15,18.88-7.89,28.16-7.16,3.48.44,6.76,2.32,3.79,5.64-1.95,1.85-4.53,2.44-7.1,3.37-5.93,2.37-21.93,4.84-22.94,12.78l-.02.18Z"/>
      <path class="cls-4" d="M427.58,145.21c-16.51,2.55-31.16-3.06-41.29-15.02-14.88-17.58-14.91-41.91-.97-60.57,8.93-11.95,24.14-19.14,39.06-17.57,17.11,1.79,31.03,12.6,36.5,28.39,2.46,7.1,3.32,13.59,3.26,21.19-.14,20.78-15.17,40.28-36.57,43.58ZM437.98,131.98c11.62-7.58,16.38-20.46,16.62-32.96-.9-17.2-11.48-32.84-28.64-36.2-7.65-1.49-15.76.21-22.16,3.5,15.24-.63,30.05,5.55,37.67,18.47,6.02,10.19,6.82,21.69,3.43,32.81.07,5.95-5.84,8.87-6.92,14.39ZM390.27,89.38c-.47,4.08,3.51,6.89,6.35,7.17,3.49.34,7.24-2.22,8.14-4.82,1.31-3.8-.75-7.43-3.45-9.11-2.82-1.76-6.74-1.66-8.96,1.27-.95,1.25-1.85,3.41-2.09,5.48Z"/>
      <path class="cls-4" d="M419.48,39.72c-16.92-.41-30.85,8.32-40.41,20.91l-8.22,13.84c-1.23,2.07-.78,5.29-4.59,6.47-.94-7.53,1.16-14.54,4.53-21.53,13.75-28.51,49.17-38.72,75.85-21.52,5.79,3.73,13.73,12.18,12.19,15.15-1.65,3.19-16.78-12.76-39.37-13.31Z"/>
      <path class="cls-4" d="M290.5,149.04c1.1,4.18-5.69,16.41-10.44,15.01-1.76-.51-3.13-2.13-3.44-4.19-.6-4.04,1.31-7.04,3.45-10.63,1.85-3.09,9.25-4.72,10.43-.2Z"/>
      <path class="cls-8" d="M148.8,333.08c-8.72-4.79-4.08-17.92-3.22-28.15,2.05-14.82,3.88-28.83,6.46-43,1.6-7.44,1.74-16.01,6.28-22.36,5.12-6.36,13.55-2.39,13.61,4.57.33,3.79-1.19,10.88-2.03,16.82-1.65,10.55-3.29,21.01-5.01,32.02-1.62,10.36-3.16,20.19-4.23,27.02-.74,6.56-2.94,16.84-11.73,13.15l-.13-.06Z"/>
      <g>
        <g>
          <path class="cls-1" d="M583.55,588.93c-10.6,0-20.84-1.53-30.46-4.56-1.45-.46-2.52-1.7-2.75-3.21-.23-1.51.41-3.01,1.66-3.89,15.85-11.07,23.66-31.68,18.99-50.12-.36-1.43.09-2.95,1.19-3.94.75-.68,1.71-1.04,2.69-1.04.45,0,.91.08,1.35.23,6.47,2.32,12.81,3.47,19.39,3.51h.33c4.89,0,9.6-.76,14-2.26,5.34-1.83,9.93-4.23,14.03-7.35,4.02-3.05,7.34-6.36,10.16-10.13,3.42-4.57,6.11-9.39,8.24-14.75,2.61-6.59,4.14-11.84,4.94-17.02,1.11-7.16,1.74-13.14,1.21-19.12l-1.9-21.61c-.19-2.17-.44-4.37-.68-6.5-.67-5.97-1.37-12.15-.94-18.62.68-10.15,3.22-19.19,7.78-27.64,8.39-15.55,22.18-26.88,38.83-31.89,3.69-1.11,6.83-1.85,10.2-1.85,1.25,0,2.5.11,3.69.32,1.6.29,2.86,1.51,3.2,3.09.34,1.58-.31,3.22-1.64,4.14l-12.18,8.39c-7.59,6.37-12.69,14.78-14.76,24.33-1.75,8.12-1.91,14.48-.48,20.01l5.45,21.2c.03.12.06.24.08.36l.32,1.98c2.4,7.23,4.05,15.18,5.18,25,1.03,8.93,1.1,17.89.2,27.39-.99,10.51-2.71,19.67-5.4,28.84-3.13,10.66-7.31,20.21-12.76,29.19-6.12,10.09-13.15,18.33-21.49,25.17-9.13,7.49-19.41,13.09-30.56,16.62-9.98,3.17-20.14,4.99-31.07,5.56-2.02.11-4.05.16-6.04.16Z"/>
          <path class="cls-4" d="M701.82,351.17c.99,0,1.98.08,2.99.26l-12.33,8.49c-8.29,6.9-13.98,16.18-16.24,26.67-1.54,7.12-2.29,14.7-.45,21.85l5.45,21.2.37,2.31c2.68,7.97,4.14,16.1,5.11,24.5,1.03,8.91,1.04,17.56.19,26.56-.91,9.64-2.52,18.77-5.26,28.08-2.96,10.05-6.95,19.35-12.34,28.25-5.62,9.27-12.32,17.35-20.61,24.15-8.77,7.2-18.57,12.52-29.23,15.9-9.9,3.14-19.76,4.84-30.07,5.38-1.95.1-3.89.16-5.82.16-9.91,0-19.71-1.37-29.26-4.38,16.99-11.86,25.66-34.3,20.58-54.38,6.7,2.4,13.53,3.7,20.71,3.75.12,0,.24,0,.36,0,5.23,0,10.38-.8,15.29-2.48,5.46-1.87,10.5-4.41,15.16-7.94,4.12-3.12,7.8-6.72,10.94-10.92,3.63-4.86,6.51-10.02,8.75-15.68,2.32-5.84,4.2-11.62,5.18-17.89,1.05-6.8,1.83-13.42,1.25-20.08l-1.9-21.61c-.72-8.23-2.17-16.14-1.61-24.51.62-9.32,2.9-17.83,7.31-26.01,7.89-14.63,20.98-25.3,36.46-29.96,3.06-.92,6.02-1.68,9.05-1.68M701.82,343.17c-4.09,0-7.87.97-11.36,2.02-17.67,5.32-32.3,17.33-41.2,33.82-4.84,8.96-7.54,18.54-8.25,29.28-.46,6.83.26,13.19.96,19.34.24,2.11.48,4.28.67,6.4l1.9,21.61c.49,5.57-.12,11.29-1.18,18.15-.76,4.88-2.21,9.86-4.71,16.16-1.99,5.03-4.52,9.55-7.72,13.83-2.59,3.47-5.66,6.52-9.37,9.34-3.76,2.85-7.98,5.06-12.91,6.75-3.97,1.36-8.25,2.05-12.7,2.05h-.3c-6.11-.04-12.02-1.12-18.06-3.28-.88-.32-1.79-.47-2.7-.47-1.96,0-3.88.72-5.38,2.08-2.19,1.99-3.1,5.02-2.38,7.89,4.2,16.6-3.12,35.88-17.41,45.86-2.5,1.75-3.79,4.76-3.33,7.77.46,3.01,2.6,5.5,5.51,6.42,10,3.15,20.66,4.75,31.66,4.75,2.06,0,4.16-.06,6.25-.17,11.27-.6,21.76-2.48,32.07-5.75,11.64-3.69,22.37-9.53,31.89-17.35,8.69-7.13,16.01-15.7,22.37-26.19,5.63-9.29,9.94-19.15,13.18-30.14,2.73-9.29,4.55-18.97,5.55-29.59.92-9.79.86-19.02-.21-28.23-1.15-9.96-2.83-18.08-5.26-25.49l-.27-1.67c-.04-.24-.09-.49-.15-.73l-5.45-21.2c-1.26-4.91-1.1-10.69.52-18.17,1.86-8.61,6.45-16.21,13.28-21.99l12.02-8.28c2.67-1.84,3.97-5.11,3.28-8.28-.68-3.17-3.21-5.61-6.41-6.19-1.43-.26-2.91-.39-4.4-.39h0Z"/>
        </g>
        <path class="cls-7" d="M611.24,527.44c13.22,13.38,16.35,34.53,8.22,51.95-9.9,3.14-19.76,4.84-30.07,5.38,11.16-16.03,14.41-37.49,6.21-54.85,5.36.04,10.62-.76,15.65-2.48Z"/>
        <path class="cls-7" d="M669.29,539.33c-5.62,9.27-12.32,17.35-20.61,24.15,1.57-18.55-6.83-34.72-22.29-43.99,4.12-3.12,7.8-6.72,10.94-10.92,15.03,3.74,27.35,15.33,31.96,30.76Z"/>
        <path class="cls-7" d="M686.89,483c-.91,9.64-2.52,18.77-5.26,28.08-8.16-12-21.58-18.55-35.55-18.19,2.32-5.84,4.2-11.62,5.18-17.89,12.11-3.17,26.1-.47,35.63,7.99Z"/>
        <path class="cls-7" d="M681.6,431.94c2.68,7.97,4.14,16.1,5.11,24.5-10.61-5.5-23.07-6.28-34.2-1.51l-1.9-21.61c9.7-5.17,21.05-5.78,30.99-1.38Z"/>
        <path class="cls-7" d="M676.23,386.59c-1.54,7.12-2.29,14.7-.45,21.85-7.44-2.52-15.14-3.15-22.6-.69-1.49.49-2.78,1.24-4.19,1.06.62-9.32,2.9-17.83,7.31-26.01,6.95-.76,13.91.16,19.92,3.79Z"/>
      </g>
      <path class="cls-3" d="M512.73,499.3s17.35,19.69,22.2,36.74,6.64,41.04,6.64,41.04l12.73,3.48s17.84-11.01,21.25-33.83c3.8-25.44,3.8-17.74-29.51-37.4-19.58-11.55-37.16-32.42-37.16-32.42l3.85,22.39Z"/>
    </g>
  </g>
</svg>