<?xml version="1.0" encoding="UTF-8"?>
<svg id="_Слой_2" data-name="Слой 2" xmlns="http://www.w3.org/2000/svg" viewBox="0 0 1282.41 855.4">
  <defs>
    <style>
      .cls-1 {
        fill: #f9675d;
      }

      .cls-2 {
        fill: #6b2ee5;
      }

      .cls-3 {
        fill: #080808;
      }

      .cls-4 {
        fill: #b1b1b0;
      }

      .cls-5 {
        fill: #1e1e1e;
      }

      .cls-6 {
        fill: #aaff3f;
      }

      .cls-7 {
        fill: #fdfdfd;
      }
    </style>
  </defs>
  <g id="_Слой_1-2" data-name="Слой 1">
    <g>
      <path class="cls-3" d="M819.34,693.1l-14.67,27.86-5.77,11.14-13.47,25.35c-.66,1.24-1.03,2.58-.65,3.83.32,1.05,1.89,2.01,3.49,2.55,16.78,5.69,33.72-8.38,52.45,2.23,7.92,4.49,12.37,12.38,11.8,21.19-.52,8.1-6.02,15.77-14.51,18.59-5.26,1.75-10.44.78-16.78,1.04,7.97,7.31,11.49,17.56,6.63,27.04-4.83,9.44-15.4,13.8-25.84,12.44-10.44-1.36-18.46-7.81-24.28-16.33l-11.02-16.12c-.76,3.82,1.86,6.7,2.78,10.18,2.06,7.81,1.09,15.42-3.63,21.94-8.65,11.96-29.84,12.55-39.85,1.21-5.15-5.83-7.4-13.57-6.03-21.65l5.42-17.72c.26-.86-.37-1.97-.83-1.97-8.7.17-19.67,26.07-44.13,17.92-6.95-2.31-12.1-7.74-14-13.12-2.61-7.38-.91-15.07,3.55-20.96,10.84-14.29,27.14-5.8,36.91-23.23,8-14.27,13.06-30.01,15.65-46.38,1.19-7.56.32-14.83-3.57-21.64-32.92-4.14-63.29-10.88-92.71-26.66-16.34,10.17-33.09,20.96-30.71,40.21,2.12,17.14,6.84,33.43,12.53,49.6.98,2.8,3.12,4.69,5.87,5.45,15.95,4.4,26.46,14.91,23.45,30.54-1.41,7.35-7.46,14.12-15.76,16.68-9.99,3.08-20.37,1.06-27.83-6.24l-12.11-11.86c-3.7-3.62-10.36-1.81-13.62,1.55l-11.35,11.71c-6.31,6.51-11.87,13.4-19.47,18.39-7.95,5.22-17.29,6.95-26.36,4.04-11.58-3.71-17.36-15.24-13.23-27.78-8.88,3.72-16.91,5.85-25.56,3.74-9.22-2.25-16.21-9.35-16.24-19.02-.03-9.15,5.36-17,14.08-20.89-6.61-9.02-3.54-20.06,5.63-25.82,17.44-10.96,36.98,4.94,60.33,4.76-17.6-33.16-39.86-66.03-19.87-101.22,9.22-17.39,21.89-32.16,36.71-45.59-14.76-29.16-20.48-60.51-18.24-92.96-32.22-6.22-61.52-17.18-91.7-27.62l-30.88-4.39c-9.96,9.02-25.32,9.37-34.15-.42-2.56-2.84-3.95-5.59-8.61-3.74-8.72.76-16.9-2.98-20.98-11.48-10.05,1.28-18.8-2.84-24-11.27-4.18-6.95-4.75-14.99-2.51-23.47l-31.76-11.44c-27.84-10.03-56-16.74-85.84-20.79l-.03,45.72c-1.62,20.9-17.09,37.6-38.02,40.34l-127.96-.02c-21.23-3.19-36.59-19.32-38.1-40.56l.39-126.47c.07-21.32,18.41-41.34,40.08-41.41l125.62-.39c21.04,3.47,36.31,20.39,37.93,41.62l.04,52.23,40.11,7.27c31.72,5.75,61.91,17.95,92.07,29.61,8.32-3.57,18.47-6.46,26.2,1.52.44-12.38,7.81-20.86,18.73-23.66,19.95-5.13,40.26,12.54,48.36,31.56,24.63,9.97,59.52,3.24,82.66-9.46,7.54-4.13,12.63-10.68,18.42-16.68l25.53-26.43c10.54-10.91,23.44-18.16,36.51-25.43,6.05-10.67,8.97-23.27,11.41-36.24-27.9-1.05-54.58-3.08-81.6-8.75-39.82-8.34-72.55-23.83-96.18-57.55-24.94-35.6-4.75-72.31,24.65-99.97-4.1-35.37,11.22-72.38,47.97-78.74,6.89-24.09,27.35-40.74,52.12-41.69,13.24-.51,25.44,1.93,37.38,8.39,65.7-26.6,152.41-24.88,208.64,21.07,33.94,27.74,54,68.99,52.31,113.03-1.49,38.69-19.66,71.87-39.29,104.12-20.7,34-34.28,60.14-41.1,100.67,7.35,6.21,13.06,12.73,17.05,20.96l20.27,41.81,12.15,2.52c9.17,1.9,25.39-1.28,30.48-11.02,5.63-12.84,9.9-25.68,22.13-34.27,8.3-5.83,18.2-9.74,28.55-7.5,11.53,2.5,18.95,11.34,18.78,24.04,4.94-3.33,9.85-2.01,14.68-2.07,46.62-18.58,95.15-29.52,145.97-29.86l.26-49.75c.11-20.92,17.98-40.84,39.55-40.94l105.75-.47c7.78-.03,14.87-.85,22.55.6,19.75,3.74,35.32,21.34,35.3,41.98l-.13,126.1c-.02,19.82-17.57,39.75-37.86,39.75h-126.34c-21.12-.02-38.69-19.7-38.8-39.63l-.29-49.15c-44.25,1.51-86.96,10.08-127.99,25.09,1.38,10.02.43,18.88-4.21,26.71-5.38,9.08-15.81,12.98-26.3,9.27-5.56,9.72-16.5,13.28-26.8,8.34l-16.52,20.66c-7.84,9.81-17.32,17.36-28.29,23.55-22.87,12.91-50.23,10.95-70.79-5.61l-14.8,4.07c3.82,44.04,18.02,84.76,52.77,112.59,1.63,1.3,32.55,18.09,34.27,19.34l-30.98,59.74ZM461.13,245.93c18.24,14.59,40.89,22.19,64.45,27.06,30.02,6.2,59.7,8.04,90.46,8.76,28,.66,54.64-1.12,82.9-3.88-15.96,10.08-32.78,14.6-50.53,16.64l-30.86,1.04c-1.55,14.75-5.91,28.14-12.04,41.23l-8.65,18.45c-10.91,23.27-22.28,45.67-30.79,70.02-6.57,18.79-12.2,36.96-15.25,57.28,66.87,14.06,132.38,13.98,198.02-5.24l.1-13.11c-11.66-18.3-20.52-37.69-26.26-58.65-.44-1.63.06-5.79,1.75-4.76,4.93,3,8.04,8.43,10.54,13.36l12.78,25.19c5.7,11.25,11.88,21.56,20.33,31.7,16.36-4.98,31.7-10.93,46.76-18.82l39.18-20.52c-1.24-3.52-1.07-6.07-1.23-9.69-12.73,12.75-33.98,13.72-50.13,6.64-5.29-2.32-7.91-5.97-10.19-11.01l-11.2-24.7c-4.46-9.82-10.55-18.31-17.87-26.07-7.83-8.29-17.37-12.29-29.38-13,6.49-6.1,14.37-5.49,22.2-4.15,6.82-38.18,19.95-64.47,39.18-96.93,9.26-15.62,18.84-30.1,26.09-46.78,8.14-18.74,13.93-37.87,14.08-58.63.23-32.11-12.37-62.91-34.26-86.12-19.48-20.66-44.1-33.54-71.39-40.76-31.96-8.46-64.35-8.62-96.77-1.9-17.48,3.62-33.27,9.65-49.7,16.15-5.95,2.36-12.05,4.37-18.65,4.21,1.7-5.78,6.11-8.35,9.58-12.22-20.2-9.04-43.33-3.42-55.2,14.89-12.04,18.56-8.54,48.75-34.93,75.04l-32.98,32.85c-10.22,10.18-17.75,22.22-20.9,36.05-4.74,20.87,6.46,39.43,26.57,45.33,14.55,4.27,28.59,6.85,44.04,8.09,58.83,4.73,133.65-2.77,186.24-30.24,8.21-4.29,15.58-8.77,22.3-15.03-3.07-.32-6.57-1.59-6.41-4.3,11.95-7.79,29.19-5.4,38.77,4.74,2.94,3.11,4.92,6.93,3.61,10.54-6.79-4.53-12.97-7.94-20.63-9.59-21.22,23.12-57.38,36.46-87.86,44.25-41.22,10.54-82.72,14.92-125.19,12.37-17.24-1.04-33.74-2.85-49.88-6.91-.27.51-.57.85-.8,1.12ZM492.15,75.73l3.2-12.52c-6.63,1.87-11.23,5.36-15.5,10.26,4.85-.48,8.53-.68,12.3,2.26ZM484.41,85.72c-1.56-1.41-3.72-1.89-5.84-.79-4.35,2.25-6.98,7.13-5.81,11.85.57,2.29,2.37,3.78,3.96,4.02,5.13.77,12.16-11.01,7.68-15.08ZM459.93,245.14c.71.33.57-.82,1.38-.6l-1.38.6ZM1087.81,435.95c.03,18.17,14.63,33.95,32.99,33.95l119.82.04c18.21,0,32.78-15.69,32.81-33.73l.19-122c.03-17.47-13.19-35.76-31.63-35.78l-121.79-.12c-18.4-.02-32.33,17.41-32.36,34.79l-.09,47.36,15.83-.1c6.25-14,20.11-21.43,34.78-19.42,13.64,1.87,25.26,12.64,27.75,26.82,2.9,16.48-6.49,31.76-21.53,36.97-15.36,5.33-31.65-1.33-39.63-15.47l-17.2-.04.07,46.72ZM195.14,391.25l-17.31-1.6c-8.11,13.96-24.27,20.32-39.96,14.93-13.56-4.66-23.29-18.53-21.85-33.78,1.39-14.73,12.67-27.33,27.69-29.68s29.52,5.38,35.48,19.99l16.06,1.2-.12-49.84c-.05-20.89-17.51-34.64-37.8-34.61l-116.89.22c-19.11,2.56-32.4,19.03-31.66,38.26l.13,119.69c.02,17.19,13.57,33.83,31.61,33.83h122.8c18.86-.01,31.96-17.79,31.92-35.43l-.1-43.17ZM170.99,383.05c-3.15-6.19-2.63-11.79.76-17.11-2.48-8.79-10.35-14.82-18.37-16.36-9.31-1.78-17.94,1.9-23.44,9.13-9.2,12.08-5.86,28.59,6.61,35.98,12.45,7.37,28.67,2.49,34.43-11.64ZM1111.36,382.48c4.26,8.99,10.64,14.34,20.03,15.35,12.53,1.35,23.74-7.77,25.92-19.6,2.28-12.39-4.9-24.47-17.57-28.13-10.98-3.17-25.57,3.04-27.6,15.27-.85,5.11,3.85,11.56-.79,17.11ZM396.84,402.66c4.76-.25,8.73,9.11,6.34,17.31,10.6.17,18.68,8.49,18.29,19.36,26.45,11.77,52.84,22.47,80.93,30.63,14.74-3.3,28.08-8.61,41.1-16.52,9.06-35.25,23.4-68.01,40.07-101.74-23.11,12.86-46.8,47.87-61.21,56.79-27.24,16.87-71.42,25.06-101.18,10.53-5.51-15.28-17.35-30.82-33.74-31.67-5.43.29-9.6,2.71-12.31,6.41s-3.51,8.53-1.66,13.33c8.27-1.36,16.2,2,20.65,9.85,3.77-5.48-1.62-14.04,2.73-14.27ZM1104.92,380.86c2.74-4.64,2.37-8.37.2-12.35-57.19-1.06-110.74,7.52-164.04,27.95,3.32,3.7,4.99,5.46,7.2,9.62,50.18-18.41,102.61-27,156.64-25.22ZM324.2,416.46l5.67-9.75c-48.69-19.1-99.08-33.86-151.56-37.5-3.9.26-4.16,9.9-.59,11.75,39.06,3.17,77.1,10.55,113.91,23.78l32.58,11.71ZM884.18,403.47c5.64-6.95,14-10.29,23.14-7.04,1.62-4.03,1.54-8.49-1.22-12.61-4.88-7.26-16.42-7.36-24.84-2.14-9.43,5.85-16.51,14.6-19.74,25.71,4.9-2.7,9.03-3.92,14.44-3.12.87-8.52,5.89-14.32,8.93-11.65,2.26,1.99-1.49,6.43-.7,10.85ZM939.18,434.8c4.45-9.96,3.32-22.08-3.43-30.28-2.45-2.98-6.67-4.2-9.84-3.72-2.36.36-7.13,3.08-6.85,5.84,5.32,11.07,7.53,22.43,4.72,34.12,6.37,3.07,12.45.62,15.39-5.96ZM908.1,408.3c-3.13-4.05-8.46-5.03-12.5-2.93-2.97,1.54-6.88,6.01-4.96,10.07,4.82,10.22,6.99,20.46,4.54,31.55,1.67,3.02,6.47,4.38,9.68,3.69,12.51-2.68,14.29-28.1,3.25-42.37ZM346.18,450.06c-1.3-14.08,5.7-24.33,11.85-35.09,1.92-3.36-3.41-7.56-6.01-8.28-11.76-3.25-21.56,13.75-22.03,27.44-.31,9.36,7,16.78,16.19,15.92ZM884.66,450.48c6.05-15.05-1.75-37.01-12.74-37.21-4.53-.08-7.68,3.62-8.99,6.63-3.91,8.94,5.45,13.19,2.14,26.46-1.34,5.38,2.97,9.8,7.43,10.92,5.03,1.26,10.03-1.49,12.17-6.8ZM372.09,459.79c.78-12.77,5.77-23.28,13.43-32.34,2.38-2.81.17-7.07-2.51-9.11-4.26-3.24-10.64-3.03-14.81,1-11.83,11.45-17.78,33.31-7.51,40.16,3.11,2.07,8.83,2.87,11.41.3ZM843.4,643.61c-58.98-22.7-87.42-76.72-92.83-138.31-68.46,18.05-134.01,18.5-202.94,4.51-1.11,10.93-.2,20.83,1.02,31.49,9.52,83.11,79.01,133.12,160.12,142.72l-22.64-26.11c-5.3-6.11-13.02-18.6-10.11-20.32.6-.36,2.23-.29,3.05.48l26.24,24.62c16.04,15.05,32.67,33.74,30.09,56-2.48,21.32-11.9,53.22-28.25,66.32-6.95,5.57-17.29,3.94-24.49,9.41-3.8,2.89-5.87,7.03-4.58,11.65,1.03,3.68,4.64,6.8,9.42,7.52,14.52,2.17,19.33-17.04,35.68-19.34,3.98-.56,7.62.35,10.33,2.66,2.89,2.47,4.52,6.93,3.34,10.94l-4.76,16.12c-1.52,5.14-1.32,10.35,1.8,14.35s8.24,6.04,13.74,5.3c4.08-.55,7.51-2.55,9.29-5.48,2.1-3.47,2.58-7.45,1.1-11.3l-6.86-17.93c-1.83-4.79.75-10.48,4.61-12.69,15.78-9.06,25.15,21.53,36.17,32.56,5.1,5.11,12.08,7.57,18.92,5.19,3.36-1.17,5.68-3.79,6.56-6.32,3.03-8.74-6.04-14.39-14.25-19.02l-21.01-11.85c-3.46-1.95-4.53-5.82-3.28-8.68,1.71-3.89,5.81-5.36,9.95-3.96l32.1,10.88c5.67,1.92,11.92,1.39,16.64-2.45,2.6-2.12,3.49-5.71,3.02-8.67-1.29-8.11-11.9-12.1-21.13-10.54l-16.39,2.76c-8.99,1.51-17.96.11-25.7-4.61-5.73-3.49-7.85-10.33-4.92-16.21l8.28-16.65c12.76-25.65,29.11-47.61,15.57-78.93-4.7-10.88-11.32-20-18.48-29.53l-20.09-26.75c-1.31-1.74-1.21-4.32.12-5.91,4.72-5.64,17.04,9.08,23.51,17.15,10.18,12.7,19.83,25.43,26.23,40.48,10.09,23.73,6.5,42.12-2.93,65.82,8.34,4.34,16.91,6.43,25.83,8.8M408.67,463.61c-10.9.55-4.33-8.23,1.34-18.6,2.48-4.54,2.64-10.34-1.3-13.71-3.33-2.84-9.38-3.37-13.41.21-7.23,6.41-11.7,15.85-13.12,25.63-.94,6.5,2.86,13.19,9.2,14.64,7.25,1.66,13.91-2.59,17.29-8.17ZM419.79,460.19c23.91,10.35,47.01,19.1,71.51,26.79,57.98,18.18,124.07,28.09,184.79,22.81,54.6-4.76,107.37-19.36,155.72-44.54l23.95-12.48c-.87-3.99-.48-7.4.61-12.16l-21.92,11.14c-65.8,34.23-135.7,52.02-210.41,48.43-73.13-3.52-137.96-23.69-204.78-52.54l-4.08,6.98c2.59,1.3,3.37,3.02,4.61,5.57ZM871.11,467.42c-5.56-1.83-8.31-3.14-11.57-7.03-21.92,11.88-43.56,22.39-67.77,31.76,15.92,10.45,35.66,9.21,51.49.28,11.13-6.28,19.91-15.14,27.84-25.01ZM538.07,479.26l1.61-10.64-16.11,6.96c4.64,2.16,9.31,2.95,14.5,3.68ZM544.14,782.47c.49,2.75-.41,5.16-3.05,6.38l-15.68,7.25c-9.31,4.3-20.16,9.95-16.42,19.31,3.32,8.32,17.78,7.13,23.84,1.11l13.54-13.45c5.7-5.66,10.28-12.44,16.98-16.75,9.76-6.29,21.38-5.14,29.17,3.16l9.16,9.75c4.19,4.46,10.76,5.91,16.45,3.84,3.79-1.38,6.47-4.34,7.38-7.44,2.23-7.56-3.78-14.37-13.6-16.54-7.2-1.59-12.71-5.83-15.27-12.82-6.35-17.31-11.48-34.82-13.81-53.16-2.46-23.54,13.5-36.01,30.88-48.55-22.51-14.28-40.58-31.41-54.34-53.35-14.03,13.1-25.55,26.88-33.65,43.3-6.1,12.37-7.03,24.97-1.96,37.97,6.03,18.09,15.11,34.56,24.48,51.17,1.86,3.31,2.83,7.31,1.35,10.83-1.05,2.5-4.39,3.63-7.03,3.8-15.08.96-29.33-2.33-43.47-7.3-11.46-4.03-21.73,1.22-20.72,7.21.37,2.17,2.18,4.11,4.68,4.98,21.64,7.53,38.11.82,40.72,4.67.55.81.55,2.4-.5,3.2-8.31,6.33-21.83,5.56-33.28,4.15-6.41-.79-12.78.75-17.69,4.75-4.33,3.53-6.05,10.47-1.61,14.43,4.72,4.21,11.85,3.82,17.6,1.54l35.73-14.16c8.92-3.53,19.01-5.72,20.15.71Z"/>
      <path class="cls-7" d="M843.4,643.61c-.33,1.46-.13,2.79.58,4.33,12.72,27.56,7.01,59.3-13.48,81.83-8.92-2.37-17.49-4.46-25.83-8.8,9.43-23.71,13.02-42.09,2.93-65.82-6.4-15.04-16.05-27.77-26.23-40.48-6.47-8.07-18.8-22.79-23.51-17.15-1.33,1.59-1.43,4.17-.12,5.91l20.09,26.75c7.16,9.53,13.78,18.66,18.48,29.53,13.55,31.32-2.81,53.28-15.57,78.93l-8.28,16.65c-2.93,5.88-.81,12.72,4.92,16.21,7.74,4.72,16.71,6.12,25.7,4.61l16.39-2.76c9.23-1.55,19.84,2.43,21.13,10.54.47,2.96-.42,6.56-3.02,8.67-4.72,3.84-10.98,4.37-16.64,2.45l-32.1-10.88c-4.14-1.4-8.24.06-9.95,3.96-1.26,2.86-.18,6.73,3.28,8.68l21.01,11.85c8.21,4.63,17.28,10.28,14.25,19.02-.88,2.54-3.2,5.15-6.56,6.32-6.84,2.39-13.82-.08-18.92-5.19-11.02-11.02-20.38-41.61-36.17-32.56-3.86,2.22-6.45,7.9-4.61,12.69l6.86,17.93c1.48,3.86,1,7.84-1.1,11.3-1.78,2.93-5.21,4.93-9.29,5.48-5.5.74-10.69-1.4-13.74-5.3s-3.32-9.2-1.8-14.35l4.76-16.12c1.18-4.01-.44-8.47-3.34-10.94-2.71-2.31-6.36-3.22-10.33-2.66-16.36,2.29-21.16,21.51-35.68,19.34-4.78-.72-8.4-3.83-9.42-7.52-1.29-4.63.77-8.77,4.58-11.65,7.21-5.47,17.54-3.84,24.49-9.41,16.35-13.1,25.77-45,28.25-66.32,2.58-22.26-14.05-40.95-30.09-56l-26.24-24.62c-.82-.77-2.44-.83-3.05-.48-2.91,1.72,4.81,14.21,10.11,20.32l22.64,26.11c-81.11-9.61-150.6-59.61-160.12-142.72-1.22-10.67-2.13-20.56-1.02-31.49,68.93,13.99,134.47,13.54,202.94-4.51,5.41,61.59,33.85,115.62,92.83,138.31Z"/>
      <path class="cls-7" d="M544.14,782.47c-1.14-6.43-11.23-4.25-20.15-.71l-35.73,14.16c-5.75,2.28-12.88,2.67-17.6-1.54-4.44-3.96-2.72-10.91,1.61-14.43,4.91-4,11.28-5.55,17.69-4.75,11.45,1.41,24.97,2.18,33.28-4.15,1.05-.8,1.05-2.39.5-3.2-2.61-3.85-19.09,2.86-40.72-4.67-2.5-.87-4.31-2.81-4.68-4.98-1.01-5.99,9.26-11.24,20.72-7.21,14.14,4.97,28.4,8.26,43.47,7.3,2.64-.17,5.98-1.3,7.03-3.8,1.48-3.52.52-7.52-1.35-10.83-9.37-16.62-18.45-33.09-24.48-51.17-5.07-13-4.14-25.6,1.96-37.97,8.1-16.43,19.62-30.2,33.65-43.3,13.75,21.94,31.82,39.07,54.34,53.35-17.37,12.55-33.33,25.01-30.88,48.55,2.34,18.34,7.47,35.86,13.81,53.16,2.56,6.99,8.07,11.23,15.27,12.82,9.82,2.17,15.83,8.98,13.6,16.54-.91,3.1-3.59,6.05-7.38,7.44-5.69,2.07-12.26.62-16.45-3.84l-9.16-9.75c-7.79-8.3-19.41-9.45-29.17-3.16-6.7,4.32-11.29,11.09-16.98,16.75l-13.54,13.45c-6.05,6.02-20.51,7.21-23.84-1.11-3.74-9.36,7.12-15.01,16.42-19.31l15.68-7.25c2.64-1.22,3.54-3.63,3.05-6.38Z"/>
      <path class="cls-4" d="M419.79,460.19c-1.24-2.55-2.03-4.27-4.61-5.57l4.08-6.98c66.82,28.85,131.65,49.02,204.78,52.54,74.71,3.59,144.61-14.19,210.41-48.43l21.92-11.14c-1.08,4.76-1.48,8.17-.61,12.16l-23.95,12.48c-48.35,25.19-101.12,39.79-155.72,44.54-60.72,5.29-126.81-4.62-184.79-22.81-24.5-7.68-47.6-16.44-71.51-26.79Z"/>
      <g>
        <path class="cls-7" d="M396.84,402.66c-4.35.23,1.04,8.78-2.73,14.27-4.45-7.85-12.38-11.2-20.65-9.85-1.85-4.8-1.18-9.45,1.66-13.33s6.88-6.12,12.31-6.41c16.39.85,28.23,16.38,33.74,31.67,29.77,14.52,73.94,6.34,101.18-10.53,14.41-8.92,38.1-43.93,61.21-56.79-16.66,33.74-31.01,66.49-40.07,101.74-13.02,7.92-26.37,13.22-41.1,16.52-28.09-8.16-54.48-18.86-80.93-30.63.4-10.87-7.69-19.18-18.29-19.36,2.39-8.2-1.58-17.56-6.34-17.31Z"/>
        <path class="cls-4" d="M1104.92,380.86c-54.02-1.79-106.46,6.81-156.64,25.22-2.21-4.16-3.88-5.92-7.2-9.62,53.3-20.44,106.85-29.01,164.04-27.95,2.17,3.98,2.54,7.72-.2,12.35Z"/>
        <g>
          <path class="cls-4" d="M324.2,416.46l-32.58-11.71c-36.8-13.23-74.85-20.61-113.91-23.78-3.56-1.86-3.31-11.49.59-11.75,52.49,3.64,102.87,18.41,151.56,37.5l-5.67,9.75Z"/>
          <path class="cls-7" d="M408.67,463.61c-3.38,5.57-10.04,9.82-17.29,8.17-6.34-1.45-10.14-8.13-9.2-14.64,1.42-9.79,5.89-19.22,13.12-25.63,4.03-3.57,10.08-3.05,13.41-.21,3.94,3.36,3.78,9.16,1.3,13.71-5.67,10.38-12.23,19.15-1.34,18.6Z"/>
          <path class="cls-7" d="M372.09,459.79c-2.58,2.57-8.3,1.78-11.41-.3-10.26-6.85-4.31-28.71,7.51-40.16,4.17-4.03,10.55-4.24,14.81-1,2.68,2.04,4.89,6.3,2.51,9.11-7.66,9.06-12.65,19.58-13.43,32.34Z"/>
          <path class="cls-7" d="M346.18,450.06c-9.19.86-16.5-6.57-16.19-15.92.46-13.69,10.26-30.69,22.03-27.44,2.61.72,7.93,4.92,6.01,8.28-6.15,10.76-13.15,21.01-11.85,35.09Z"/>
          <path class="cls-1" d="M195.14,391.25l.1,43.17c.04,17.64-13.06,35.41-31.92,35.42H40.52c-18.05.01-31.6-16.63-31.61-33.82l-.13-119.69c-.74-19.23,12.55-35.69,31.66-38.26l116.89-.22c20.29-.04,37.75,13.72,37.8,34.61l.12,49.84-16.06-1.2c-5.96-14.61-20.41-22.36-35.48-19.99s-26.3,14.96-27.69,29.68c-1.44,15.26,8.3,29.13,21.85,33.78,15.69,5.39,31.85-.97,39.96-14.93l17.31,1.6Z"/>
        </g>
        <path class="cls-6" d="M1087.81,435.95l-.07-46.72,17.2.04c7.98,14.14,24.27,20.8,39.63,15.47,15.04-5.22,24.42-20.49,21.53-36.97-2.49-14.18-14.11-24.95-27.75-26.82-14.67-2.01-28.53,5.42-34.78,19.42l-15.83.1.09-47.36c.03-17.38,13.96-34.8,32.36-34.79l121.79.12c18.45.02,31.66,18.31,31.63,35.78l-.19,122c-.03,18.04-14.6,33.73-32.81,33.73l-119.82-.04c-18.36,0-32.96-15.78-32.99-33.95Z"/>
        <path class="cls-7" d="M871.11,467.42c-7.93,9.87-16.71,18.73-27.84,25.01-15.84,8.93-35.58,10.18-51.49-.28,24.21-9.37,45.84-19.88,67.77-31.76,3.25,3.88,6.01,5.2,11.57,7.03Z"/>
        <path class="cls-7" d="M908.1,408.3c11.04,14.27,9.27,39.7-3.25,42.37-3.21.69-8.01-.67-9.68-3.69,2.45-11.09.28-21.33-4.54-31.55-1.91-4.05,2-8.53,4.96-10.07,4.04-2.1,9.36-1.12,12.5,2.93Z"/>
        <path class="cls-7" d="M884.66,450.48c-2.13,5.31-7.14,8.06-12.17,6.8-4.46-1.12-8.77-5.54-7.43-10.92,3.31-13.26-6.05-17.52-2.14-26.46,1.32-3.01,4.46-6.72,8.99-6.63,10.99.2,18.8,22.16,12.74,37.21Z"/>
        <path class="cls-7" d="M884.18,403.47c-.78-4.42,2.97-8.86.7-10.85-3.03-2.67-8.06,3.13-8.93,11.65-5.41-.8-9.53.42-14.44,3.12,3.23-11.11,10.31-19.85,19.74-25.71,8.42-5.22,19.96-5.12,24.84,2.14,2.77,4.12,2.84,8.58,1.22,12.61-9.13-3.26-17.5.09-23.14,7.04Z"/>
        <path class="cls-7" d="M939.18,434.8c-2.94,6.59-9.02,9.03-15.39,5.96,2.81-11.69.6-23.05-4.72-34.12-.29-2.75,4.49-5.47,6.85-5.84,3.16-.49,7.39.74,9.84,3.72,6.74,8.2,7.87,20.31,3.43,30.28Z"/>
        <path class="cls-7" d="M538.07,479.26c-5.19-.72-9.85-1.51-14.5-3.68l16.11-6.96-1.61,10.64Z"/>
      </g>
      <g>
        <path class="cls-7" d="M461.93,244.81c16.14,4.06,32.64,5.87,49.88,6.91,42.47,2.56,83.96-1.83,125.19-12.37,30.01-7.67,65.52-20.72,86.87-43.18.62-.65,1.54-.95,2.41-.73,5.55,1.38,10.35,3.71,15.26,6.72,2.1,1.29,4.59-.88,3.65-3.16-.71-1.71-1.9-3.36-3.3-4.84-9.01-9.54-24.79-12.22-36.58-6.03-1.8.95-1.74,3.56.07,4.48.03.01.05.03.08.04,1.64.81,1.88,3.06.46,4.22-5.73,4.69-11.93,8.35-18.69,11.88-52.59,27.47-127.42,34.97-186.24,30.24-15.45-1.24-29.48-3.82-44.04-8.09-20.1-5.9-31.31-24.46-26.57-45.33,3.14-13.83,10.68-25.87,20.9-36.05l32.98-32.85c26.39-26.28,22.89-56.48,34.93-75.04,11.16-17.21,32.25-23.2,51.52-16.36,1.8.64,2.3,2.93.92,4.24-1.77,1.67-3.54,3.3-4.92,5.39-1.18,1.79.33,4.11,2.46,3.87,4.96-.56,9.67-2.18,14.29-4.01,16.44-6.51,32.22-12.53,49.7-16.15,32.42-6.72,64.8-6.56,96.77,1.9,27.29,7.22,51.91,20.1,71.39,40.76,21.88,23.21,34.49,54.01,34.26,86.12-.15,20.76-5.94,39.89-14.08,58.63-7.25,16.69-16.83,31.16-26.09,46.78-18.83,31.76-31.8,57.62-38.74,94.49-.25,1.34-1.51,2.24-2.86,2.05-4.46-.64-8.89-.85-13.03.49-2.47.8-2.27,4.41.28,4.89,8.79,1.67,16.11,5.55,22.34,12.15,7.32,7.76,13.41,16.24,17.87,26.07l11.2,24.7c2.28,5.03,4.9,8.68,10.19,11.01,14.64,6.42,33.47,6.22,46.35-3.37,1.57-1.17,3.83-.18,4.01,1.77.09.92.22,1.84.46,2.81.27,1.12-.27,2.27-1.29,2.8l-37.34,19.56c-14.55,7.62-29.38,13.44-45.12,18.32-.99.31-2.07-.02-2.72-.82-7.9-9.71-13.79-19.62-19.24-30.38l-12.78-25.19c-2.5-4.93-5.61-10.36-10.54-13.36-1.69-1.03-2.19,3.13-1.75,4.76,5.67,20.73,14.39,39.92,25.86,58.03.26.41.39.88.39,1.36l-.08,10.48c0,1.12-.76,2.11-1.84,2.42-64.25,18.47-128.4,18.64-193.83,5.21-1.33-.27-2.22-1.55-2-2.89,3.13-19.35,8.57-36.83,14.88-54.88,8.51-24.35,19.87-46.75,30.79-70.02l8.65-18.45c5.84-12.44,10.06-25.16,11.8-39.07.15-1.24,1.17-2.19,2.42-2.24l28.57-.97c.07,0,.15,0,.22-.02,13.76-1.59,26.96-4.67,39.63-10.69,2.55-1.21,1.52-5.06-1.29-4.82-23.86,2.1-46.84,3.32-70.82,2.76-30.76-.72-60.44-2.56-90.46-8.76-23.53-4.86-46.15-12.45-64.37-26.99-.05-.04-.11-.08-.16-.12l-1.11-.73c.71.33.57-.82,1.38-.6.2.3.38.45.62.27ZM609.79,74.7c14.72-16.02,34.62-24.6,56.21-23.06,12.3.88,23.12,5.21,33.72,10.72,2.55,1.33,5.02-1.97,2.99-4-12.52-12.54-29.87-18.36-47.13-18.14-25,.55-46.33,14.14-57.44,36.36-2.4,4.81-4.69,9.65-6.01,14.85-.73,2.86,3.17,4.45,4.65,1.9,3.78-6.56,7.59-12.73,13.01-18.63ZM663.39,188.13c21.15-2.33,38.85-15.68,46.66-32.89,9.39-20.67,6.31-42.9-6.6-60.06-11.45-15.21-29.4-23.33-48.22-22.34-18.06.95-33.1,10.22-42.78,25.01-8.45,12.91-12.24,27.13-10.15,42.45,4.12,30.12,30.2,51.24,61.09,47.83ZM483.69,187.43c-3.11-2.31-15.94,3.18-17.46,13.92-.46,3.25.73,6.23,3.08,7.45,9.13,4.74,18.5-18.31,14.38-21.38Z"/>
        <path class="cls-7" d="M484.41,85.72c4.48,4.06-2.55,15.84-7.68,15.08-1.59-.24-3.39-1.73-3.96-4.02-1.17-4.72,1.45-9.61,5.81-11.85,2.12-1.09,4.28-.62,5.84.79Z"/>
        <path class="cls-7" d="M492.15,75.73c-3.77-2.94-7.45-2.74-12.3-2.26,4.27-4.9,8.87-8.39,15.5-10.26l-3.2,12.52Z"/>
        <path class="cls-3" d="M663.39,188.13c-30.89,3.41-56.97-17.71-61.09-47.83-2.09-15.32,1.69-29.54,10.15-42.45,9.68-14.79,24.72-24.06,42.78-25.01,18.82-.99,36.78,7.13,48.22,22.34,12.91,17.16,15.99,39.39,6.6,60.06-7.82,17.21-25.51,30.56-46.66,32.89ZM690.64,132.48c1.1,15.95-5,29.34-15.84,41.69,24.95-10.63,34.58-39.25,23.92-63.36-10.61-24-39.68-33.89-61.98-19.38,10.79-2.7,20.37-2.56,29.77,2.55,14.28,7.76,22.95,21.65,24.13,38.51ZM642.91,120.69c0-5.94-4.81-10.75-10.75-10.75s-10.75,4.81-10.75,10.75,4.81,10.75,10.75,10.75,10.75-4.81,10.75-10.75Z"/>
        <path class="cls-3" d="M609.79,74.7c-8.06,8.78-12.57,18.13-18.7,28.53-.84-10.1,2.94-18.42,7.05-26.65,11.11-22.22,32.44-35.82,57.44-36.36,21.37-.27,42.86,8.72,55.18,28.25-14.28-8.19-28.19-15.65-44.77-16.83-21.59-1.54-41.49,7.04-56.21,23.06Z"/>
        <path class="cls-3" d="M483.69,187.43c4.13,3.07-5.25,26.12-14.38,21.38-2.36-1.23-3.54-4.2-3.08-7.45,1.52-10.75,14.35-16.23,17.46-13.92Z"/>
        <path class="cls-7" d="M690.64,132.48c-1.18-16.86-9.85-30.75-24.13-38.51-9.4-5.11-18.98-5.25-29.77-2.55,22.3-14.51,51.37-4.62,61.98,19.38,10.66,24.11,1.03,52.73-23.92,63.36,10.84-12.35,16.94-25.74,15.84-41.69Z"/>
        <circle class="cls-7" cx="632.16" cy="120.69" r="10.75"/>
      </g>
      <g>
        <g>
          <path class="cls-2" d="M869.77,730.97c-4.12,0-8.37-.14-12.63-.43-18.21-1.21-35.33-5.39-50.88-12.41-1.39-.63-2.3-1.99-2.35-3.51-.05-1.52.77-2.94,2.11-3.66,25.23-13.46,40.33-42.36,36.72-70.28-.19-1.47.44-2.92,1.65-3.77.69-.49,1.5-.74,2.32-.74.61,0,1.22.14,1.79.42,9.05,4.52,18.11,7.31,27.72,8.53,2.85.36,5.71.55,8.51.55,4.41,0,8.78-.46,12.98-1.35,8.15-1.74,15.3-4.46,21.87-8.31,6.42-3.76,11.87-8.03,16.67-13.06,5.78-6.06,10.56-12.63,14.6-20.09,4.94-9.1,8.07-16.47,10.14-23.89,2.85-10.18,4.81-18.76,5.08-27.58l.99-31.27c.1-3.16.12-6.37.14-9.47.06-8.59.12-17.48,1.82-26.5,2.67-14.16,7.77-26.44,15.6-37.55,14.41-20.44,35.69-34.03,59.92-38.26,3.29-.57,6.84-1.11,10.47-1.11,3.2,0,6.1.41,8.87,1.26,1.55.47,2.66,1.84,2.81,3.45.15,1.61-.69,3.16-2.12,3.91l-18.95,9.95c-12.33,8.03-21.34,19.52-26.08,33.24-4,11.59-5.34,20.92-4.21,29.37l4.16,31.28c.02.12.03.25.03.37l.12,3.04c2.19,10.68,3.18,22.27,3.12,36.45-.06,12.83-1.49,25.55-4.38,38.88-3.2,14.76-7.2,27.48-12.58,40.03-6.26,14.58-13.8,27.4-23.05,39.21-10.38,13.24-21.71,23.69-34.64,31.94-14.17,9.04-29.64,15.2-45.99,18.31-10.73,2.04-21.31,3.03-32.36,3.03h0Z"/>
          <path class="cls-5" d="M1055.02,411.24c2.58,0,5.13.3,7.69,1.09l-19.11,10.04c-13.05,8.45-22.79,20.76-27.83,35.39-3.43,9.93-5.8,20.65-4.39,31.21l4.16,31.28.13,3.37c2.47,11.87,3.16,23.76,3.1,35.95-.06,12.94-1.53,25.32-4.29,38.05-2.96,13.65-6.83,26.43-12.35,39.3-5.96,13.89-13.27,26.51-22.52,38.32-9.64,12.31-20.62,22.73-33.65,31.04-13.79,8.8-28.74,14.74-44.58,17.75-10.6,2.02-21.05,2.96-31.62,2.96-4.1,0-8.21-.14-12.36-.42-17.14-1.14-33.78-4.97-49.5-12.07,26.35-14.07,42.63-44.7,38.8-74.32,9.18,4.59,18.74,7.62,29,8.92,3.01.38,6.02.58,9.01.58,4.64,0,9.26-.47,13.81-1.44,8.14-1.74,15.79-4.51,23.06-8.77,6.43-3.77,12.32-8.28,17.54-13.76,6.03-6.33,11.04-13.22,15.22-20.94,4.32-7.97,8.01-15.91,10.48-24.72,2.68-9.56,4.93-18.9,5.23-28.53l.99-31.27c.38-11.9-.34-23.48,1.9-35.36,2.49-13.23,7.21-25.02,14.94-35.98,13.81-19.59,34.38-32.62,57.34-36.63,3.33-.58,6.58-1.05,9.78-1.05M1055.02,403.24c-3.93,0-7.69.56-11.16,1.17-25.28,4.42-47.48,18.58-62.5,39.9-8.16,11.58-13.48,24.37-16.26,39.11-1.77,9.38-1.83,18.45-1.89,27.22-.02,3.08-.04,6.26-.14,9.37l-.99,31.27c-.27,8.41-2.17,16.73-4.94,26.63-1.99,7.11-5.02,14.23-9.81,23.06-3.87,7.13-8.44,13.43-13.98,19.23-4.54,4.76-9.7,8.8-15.79,12.37-6.2,3.63-12.96,6.2-20.69,7.85-3.93.84-8.01,1.26-12.14,1.26-2.63,0-5.32-.17-8.01-.51-9.15-1.16-17.79-3.82-26.43-8.14-1.13-.57-2.36-.84-3.58-.84-1.63,0-3.26.5-4.64,1.48-2.41,1.71-3.68,4.61-3.3,7.55,3.4,26.3-10.84,53.54-34.63,66.24-2.69,1.44-4.33,4.27-4.23,7.32.1,3.05,1.92,5.77,4.7,7.03,15.98,7.22,33.57,11.51,52.26,12.76,4.34.29,8.68.44,12.89.44,11.3,0,22.13-1.01,33.11-3.1,16.85-3.2,32.79-9.55,47.39-18.86,13.32-8.5,24.98-19.25,35.64-32.85,9.47-12.08,17.18-25.2,23.57-40.1,5.49-12.79,9.56-25.74,12.82-40.76,2.95-13.61,4.41-26.6,4.47-39.71.06-14.33-.94-26.09-3.14-36.95l-.11-2.71c0-.25-.03-.49-.06-.74l-4.16-31.28c-1.04-7.81.24-16.57,4.03-27.54,4.42-12.81,12.83-23.56,24.32-31.09l18.78-9.87c2.87-1.51,4.55-4.6,4.24-7.83-.3-3.23-2.52-5.95-5.62-6.9-3.16-.97-6.44-1.44-10.04-1.44h0Z"/>
        </g>
        <path class="cls-7" d="M898.55,648.23c16.62,21.42,17.47,52.23,2.84,75.78-14.72,2.8-29.13,3.53-43.98,2.54,18.73-21.03,27.07-51.19,18.31-77.46,7.66.97,15.33.74,22.83-.86Z"/>
        <path class="cls-7" d="M846.53,640.06c5.48,26.55-9.58,59.81-38.62,74.43.83-15.39,17.93-33.99,5.04-41.43,26.08-10.62-26.82-38.01-23.11-65.45,6.45,4.25,49.25,30.58,56.68,32.45Z"/>
        <path class="cls-7" d="M979.62,675.23c-9.64,12.31-20.62,22.73-33.65,31.04,5.44-26.29-3.82-50.88-24.36-66.8,6.43-3.77,12.32-8.28,17.54-13.76,20.88,7.93,36.51,26.64,40.47,49.52Z"/>
        <path class="cls-7" d="M1014.49,597.61c-2.96,13.65-6.83,26.43-12.35,39.3-9.62-18.57-27.71-30.27-47.77-32.14,4.32-7.97,8.01-15.91,10.48-24.72,17.89-2.46,37.45,3.81,49.64,17.56Z"/>
        <path class="cls-7" d="M1015.67,523.6c2.47,11.87,3.16,23.76,3.11,35.95-14.24-9.7-31.95-12.95-48.7-8.03l.99-31.27c14.78-5.74,31.12-4.66,44.6,3.35Z"/>
        <path class="cls-7" d="M1015.77,457.75c-3.43,9.93-5.8,20.65-4.39,31.21-10.22-4.88-21.13-7.11-32.23-4.86-2.22.45-4.2,1.3-6.18.8,2.49-13.23,7.21-25.02,14.94-35.98,10.08.11,19.88,2.62,27.87,8.84Z"/>
      </g>
    </g>
  </g>
</svg>