<?xml version="1.0" encoding="UTF-8"?>
<svg id="_Слой_2" data-name="Слой 2" xmlns="http://www.w3.org/2000/svg" viewBox="0 0 476.25 533.74">
  <defs>
    <style>
      .cls-1 {
        fill: #fff;
      }

      .cls-2 {
        fill: rgba(253, 254, 253, .02);
      }

      .cls-3 {
        fill: #6835df;
      }
    </style>
  </defs>
  <g id="_Слой_1-2" data-name="Слой 1">
    <g>
      <path class="cls-1" d="M43.54,45.35c3.84-15.12,8.14-27.76,22.44-36.42,9.7-5.64,21.78-6.88,32.62-4.28,3.2.57,7.73,2.48,10.93,2.17,3.82-.36,8.01-1.91,11.79-2.88,50.73-13.07,118.39,6.11,135.21,60.83,2.87,9.35,2.3,16.15,9.47,24.27,2.93,3.34,8.13,9.44,11.42,12.21l3.88,3.16c5.61-.37,12.03-.65,17.47-1.74-.4-2.07-.82-3.46-1.44-5.48-6.74,3.99-12.46,5.8-20.05,2.23-6.95-4.36-8.61-10.38-6.28-17.99,1.47-2.74,2.44-4.21,4.66-6.36-4-3.17-6.75-6.68-7.31-12.02-.46-4.25.82-8.5,3.55-11.79,5.52-6.64,13.53-6.4,20.77-3.42.47-5.93,1.48-11.37,6.23-15.56,3.21-2.85,7.44-4.29,11.72-3.99,4.21.24,8.14,2.19,10.87,5.41,3.65,4.3,4.57,9.67,4.53,15.18,5.31-2.03,10.94-3.38,16.42-.87,8.2,3.76,10.21,14.44,6.24,21.98-3.31,6.35-8.32,8.31-14.62,10.45,10.75,16.81,29,47.02,5.47,61.55-5.77,3.56-12.26,5.63-18.64,7.83,2.41,4.17,5.17,8.09,7.69,12.19,3.92,6.45,7.5,13.1,10.72,19.92,17.96,39.17,21.8,83.35,10.89,125.04-.72,2.7-5.09,16.25-4.83,17.94,3.44,3.78,36.01-1.26,43.12,19.51,1.66,4.86,1.53,10.31,1.3,15.37-.13,2.83-.47,5.72-.43,8.56,5.64,1.44,11.97,2.33,15.12,7.86,4.21,7.41.3,15.73-4.61,21.5,5.1,2.84,9.75,5.78,11.56,11.74,1.27,4.26.74,8.85-1.45,12.72-2.22,3.9-6.05,7.02-10.4,8.14-8.97,2.3-14.53-2.33-21.79-4.99-2.32.85-4.15,1.64-6.21,3.06-.78,6.74-1.37,13.63-7.23,18.21-3.5,2.7-7.96,3.83-12.32,3.11-4.21-.67-7.99-2.98-10.49-6.44-4.5-6.25-3.14-13.26-.98-20.02-12.03-11.52-6.74-26.51-3.19-40.74-7.04,1.25-11.33,2.48-18.2,4.53-1.04,3.19-1.21,7.33-1.37,10.59-1.16,23.37,9.23,50,33.96,56.44,33.57,8.75,61.63-16.22,70.22-46.98,15.71-56.29-32.17-108.26-10.86-163.36,2.32-5.88,5.94-13.07,11.78-16.26,2.94-1.92,7.29-1.57,8.69,2.22,3.33,9,.71,19.52,1.5,29.04,2.23,26.59,15.81,50.88,26.21,74.96,7.54,17.46,13.28,36.28,15.99,55.1,2.69,20.69-.39,44.37-7.55,63.92-11.13,30.88-34.16,56.03-63.95,69.82-30.17,13.76-64.58,14.92-95.62,3.23-48.97-18.09-80.89-66.76-82.33-118.49-.23-8.23.19-16.34.74-24.54-6.65-1.49-11.35-1.93-18.09-2.27-.76,13.97-1.08,33.85-10.8,44.58,4.84,5.88,7.98,11.19,7.16,19.19-.42,4.58-2.72,8.79-6.33,11.63-4.12,3.24-9.37,4.66-14.56,3.94-4.64-.62-8.85-3.05-11.71-6.76-4.59-5.97-4.31-12.4-5.11-19.44l-.22.34c-2.59,4.01-4.39,8.39-7.14,12.34-9.16,13.19-31.42,9.42-34.73-6.64-1.99-9.64,1.93-14.78,8.49-20.96-7-.68-13.04-1.3-17.86-7.11-6.39-7.71-5.48-20.24,2.49-26.5,5.62-4.41,12.62-4.71,19.14-2.45.06-14.99,3.87-20.59,19.56-20.57.74-9.99.91-23.47,9.24-30.1,13.15-10.46,32.51-13.58,48.63-14.94-5.41-17.79-1.88-28.79,1.18-46.46.8-4.63,1.34-10.24,1.81-14.96-6.21,8.14-12.63,14.67-23.47,16.03-11.94,1.15-24.16-1.93-35.51-5.45-2.53-.4-7.27-3.69-9.64-2.6-1.38.63-2.85,4.67-3.1,6.19-2.78,16.52-28.53,17.63-31.24.99-.36-2.21.01-5.54-1.56-7.37-1.59-.67-5.76-.22-7.71-.14-11.79.49-19.87-10.7-15.33-21.56,2.23-5.34,10.94-8.38,16.12-10.53-4.15-7.34-12.49-8.91-9.56-20.14,1.17-4.39,4.09-8.09,8.09-10.25,8.81-4.81,13.95-.93,21.27,3.72,2.06-2.37,3.16-5.38,5.16-7.73,5.26-6.2,15.79-6.03,21.68-.91,6.84,5.95,4.87,16.44,2.29,23.91,3.46.21,18.86,1.72,20.16.08,4.92-6.16,12.43-22.8,15.09-30-3.31-7.5-12.48-13.65-19.91-16.49-10.37-3.96-22.34-2.72-33.23-3.06-9.41-.29-18.85-1.08-28.24-1.72-23.48-1.6-47.49-3-69.43-12.29-3.82-1.62-7.87-3.4-11.26-5.8-4.85-3.43-7.5-8.66-11.42-12.95-5.17-5.66-9.66-5.05-13.5-13.55-3.63-8.04-4.84-21.96-1.62-30.28,5.33-13.74,30.4-37.33,41.67-48.31Z"/>
      <path class="cls-1" d="M181.81,168.11l.32.34c3.43,3.59,18.33,14.3,17.73,19.31-1.38,11.59-8.39,24.08-14.91,33.76-1.78,2.39-4.39,7.02-7.6,7.47-6.71.94-13.76-.64-20.55-.73-3.13-.04-7.3-1.35-9.91-2.97-.24-1.35-.51-2.73-.38-3.98.6-5.74,6.63-15.75-.54-19.68-8-4.39-11.73,4.55-10.77,11.11.53,3.6,1.32,9.09-2.72,10.22-.96.28-3.11.19-3.88-.52-5.91-5.5-6.65-12.52-14.85-15.81-6.64,1.34-8.41,3.65-8.83,10.51,1.25,2.92,1.33,2.93,3.81,5.29,4.11,3.91,15.85,5.28,13.92,12.53-.48,1.32-2.32,2.25-3.51,2.54-6.5,1.56-17.09-.68-21.55,5.62-1.93,2.72.72,9.65,4.15,10.72,3.17,1.27,6.29.28,9.31-.75,3.29-1.12,11.09-8.08,14.5-6,8.27,5.03-5.97,15.18-3.13,21.88,1.97,4.66,6.42,5.44,10.59,3.84,2.47-1.09,3.75-2.04,4.88-4.56,2.29-4.53.44-13.48,5.66-15.71,2.74-1.17,7.41.91,10.05,1.87,8.25,3.01,15.26,5.27,23.71,7.07,16.23,3.44,24.62-.18,34.62-13.42,5.14-6.81,9.44-14.66,13.25-22.38,1.48-2.99,3.02-7.91,5.62-10.06l.67-.07c3.97,3.88-5,21.01-5.6,25.69-.84,6.55,1.17,13.35.43,20-1.59,23.09-9.7,34.57-1.35,57.83,3.61,1.15,10.61,3,13.34,5.48l.05.48c-.7.55-2.12.83-2.95.75-15.51-1.44-30.37.45-45.16,4.08-23.97,5.88-24.15,16.01-23.95,38.17.03,3.46,1.83,18.89,1.05,20.86l-.57.33c-4.78-1.38-5.09-17.55-11.55-19.15-4.34-1.08-7.81,1.8-8.92,6.04-1.91,7.69,4.93,12.67,9.87,17.58-2.01,2.5-3.06,3.67-5.73,5.46-7.03-3.4-16.87-11.56-25.16-9-4.85,1.5-6.17,9.06-4.29,13.3,3.47,7.81,13.9,5.18,20.64,5.77,3.36.29,7.92.37,9.55,3.83.44.92.85,2.92.4,3.99-4.7,7.54-22.65,7.74-17.84,21.27,1,2.8,3.25,5.05,6.21,6.3,2.69,1.17,5.75,1.17,8.44,0,10.24-4.56,7.28-24.31,22.16-19.43,11.15,3.73,1.97,20.59,11.61,25.31,4.97,2.43,12.25-1.3,14.27-6.47,3.84-9.22-12.01-14.81-6.69-23.58,2.33-3.84,5.16-4.99,6.4-9.91,2.87-11.3,2.12-23.25,4.4-34.57.73-3.62,3.82-5.44,8.07-5.19,6.42.38,22.74,1.33,26.46,7.59.87,1.47-.08,9.7-.3,12.14,20.86-11.28,40.66-17.74,64.45-9.79,3.74,1.25,7.55,3.37,11.01,5.24.67-2.74,1.31-6.37,4.16-7.63,7.32-3.22,22.4-5.32,30.02-4.07,7.42,1.22-5.54,30.84-1.85,36.85,2.7,4.4,4.53,5.24,7.35,8.48-.79,5.95-5.8,22.47,3.47,23.46,4.98.53,9.49-4.54,9.26-9.56-.15-3.19-1.16-10.25,1.26-12.77,2.43-1.53,12.36-6.49,14.8-6.02,7.44,1.44,12.9,11.65,21.33,5.17,3.32-2.55,3.61-5.47,2.84-9.37l-.28-.35c-2.06-2.54-5.95-4.59-9.87-4.59-5.28,0-16.77-1.46-8.91-9.3,2.91-2.9,12.57-3.91,13.15-10.25.74-5.13-1.85-8.63-6.86-9.26l-.28-.03c-3.46,1.3-3.5,1.61-6.03,4.43-2.44,2.73-8.02,15.32-12.22,14.36-.47-1.93,2.19-6.62,2.8-8.73,3.17-10.89,9.61-28.05,5.75-38.96-4.06-11.46-26.94-13-37.1-12.34-3.18.21-8.87,2.92-10.99,0-1.97-2.88,2.92-11.91,4.08-14.94,2.86-7.27,5.18-14.74,6.94-22.35,6.18-26.95,5.84-55-1.01-81.79-6.32-25.43-18.93-49.69-35.08-70.22-1.84-2.35-7.98-8.8-6.63-11.39,2.6-1.26,6.39,2.98,8.53,4.2,6.67,3.8,15.61.13,21.9-2.64,21.39-9.43,6.98-32.52-.84-46.25-3.3-5.87-9.6-13.45-.38-17.55,3.52-1.72,10.74-2.79,12-7.12,2.35-8.13-4.37-13.02-12.01-8.87-4.48,2.44-8.32,13.92-13.81,6.09-1.77-2.52.15-7.73.62-10.52,2.1-7.63.61-18.98-10.17-14.17-2.21.98-3.74,3.02-4.79,5.29.14,2.95.8,6.47,1.69,9.35.86,2.16,2.84,12.83-1.79,12.03-7.85-1.36-19.45-22.12-24.1-3.93-2.17,8.48,16.62,8.58,16.36,15.12-.23,5.88-14.3,2.03-14.55,10.03-.15,3.06,1.09,4.22,3.23,5.84,5.35-.15,8.29-1.42,13.11-3.69,1.45-.68,5.57-2.52,6.92-1.15,2.56,2.96,8.24,20.39,5.85,23.02-3.8,2.06-24.44,3.47-29.17,2.46-6.66-1.42-15.02-13.11-19.85-17.73-2.08-2-5.33,6.66-6.26,7.62l-.45-.12c-.89-2-1.47-17.59-1.87-21.64-3.15-31.7-24.34-52.63-53-63.75-23.39-9.08-47.1-9.58-71.61-4.73-5.6,1.07-11.1,2.56-16.47,4.46-2.02.71-11.33,4.73-12.49,3.43,1.29-1.84,3.34-2.79,3.25-4.81-.48-.92-1.11-1.27-2.06-1.6-7.46-2.58-19.31-1.03-26.28,2.6-7.91,4.12-13.6,11.33-16.23,19.8-1.6,5.15-2.3,10.23-5.33,14.85-9.67,14.74-34.49,29.85-39.84,46.36-1.23,3.8-1.26,8-.98,11.95.28,3.97.97,8.43,2.89,11.98,3.2,5.9,12.49,8.71,18.51,10.34,34.13,9.24,112.03,3.39,142.18-14.21,1.68-.98,3.44-2.08,4.86-3.42-1.08-.74-3.68-2.24-4.2-3.04.16-.61.12-.74.76-1.03,7.06-3.26,20.97,2.19,24.48,8.62.23.42.44.84.66,1.26-5.79-1.64-8.27-2.82-13.64-5.34-10.77,6.4-19.76,11.77-31.71,16.01-31.9,11.33-90.89,16-123.34,7.88-.73-.18-1.45-.39-2.17-.61,2.83,2.91,5.7,5.34,9.21,7.38,22.06,12.82,61.29,14.11,86.44,15.3,13.07.62,26.25,1.45,39.33,1.64,13.54.09,26.99-2.1,39.81-6.46,3.46-1.18,6.83-2.6,10.1-4.23,1.97-.98,4.31-2.94,6.34-2.44,1.98,3.06-14.27,12.44-17.02,13.64-6.83,2.99-13.82,4.69-21.13,5.86Z"/>
      <path class="cls-1" d="M419.21,434.56l-.21.23c-2.22,2.45-4.26,5.54-6.46,8.11-5.2,6.08-10.22,9.31-17,13.25,13.7,9.93,20.85,22.04,23.59,38.76.39,2.37.63,4.73.98,7.07,18.02-14.58,25.49-24.21,36.18-44.99-.69-1.09-1.43-2.15-2.22-3.17-9.52-12.58-19.63-17.18-34.86-19.25Z"/>
      <path class="cls-1" d="M467.18,406.57c-.35-20.04-3.56-34.23-9.52-53.22-10.05-.47-16.46.6-25.1,6.24,1.56,16.34,3.01,23.81.22,40.53,11.81-.56,24.18-.9,34.4,6.44Z"/>
      <path class="cls-1" d="M338.76,458.06l-.08.26c-1.69,5.84-2.36,10.98-4.44,17.26-5.02,15.16-16.63,29.48-29.48,38.91,26.41,9.97,40.47,11.94,68.33,7.81.36-4.91,1.66-10.25,1.76-15.36.31-15.44-3.52-29.03-11.03-42.26-10.08-.06-16.19-2.26-25.07-6.62Z"/>
      <path class="cls-1" d="M415.09,283.02c-.19,1.97.7,6.36,1.09,8.43,1.17,6.41,2.53,12.78,4.07,19.1.92,3.62,2.43,8.25,3.16,11.69,7.71-4.42,9.93-5.33,18.82-5.59-5.97-11.99-10.73-24.55-14.19-37.49-4.73.53-8.97,1.1-12.96,3.86Z"/>
      <path class="cls-1" d="M240.54,440.64c5.09,13.85,10.85,27.58,19.99,39.32.62.8,2.98,3.78,3.7,4.24,1.43-1.17,4.13-2.83,5.82-3.85,19.13-11.55,33.5-25.88,47.92-42.94-3.88-6.38-5.58-13.05-7.15-20.21-25.15-1.34-47.74,2.97-67.12,20.47-1.07.97-2.12,1.96-3.14,2.98Z"/>
      <path d="M43.54,45.35c3.84-15.12,8.14-27.76,22.44-36.42,9.7-5.64,21.78-6.88,32.62-4.28,3.2.57,7.73,2.48,10.93,2.17,3.82-.36,8.01-1.91,11.79-2.88,50.73-13.07,118.39,6.11,135.21,60.83,2.87,9.35,2.3,16.15,9.47,24.27,2.93,3.34,8.13,9.44,11.42,12.21l3.88,3.16c5.61-.37,12.03-.65,17.47-1.74-.4-2.07-.82-3.46-1.44-5.48-6.74,3.99-12.46,5.8-20.05,2.23-6.95-4.36-8.61-10.38-6.28-17.99,1.47-2.74,2.44-4.21,4.66-6.36-4-3.17-6.75-6.68-7.31-12.02-.46-4.25.82-8.5,3.55-11.79,5.52-6.64,13.53-6.4,20.77-3.42.47-5.93,1.48-11.37,6.23-15.56,3.21-2.85,7.44-4.29,11.72-3.99,4.21.24,8.14,2.19,10.87,5.41,3.65,4.3,4.57,9.67,4.53,15.18,5.31-2.03,10.94-3.38,16.42-.87,8.2,3.76,10.21,14.44,6.24,21.98-3.31,6.35-8.32,8.31-14.62,10.45,10.75,16.81,29,47.02,5.47,61.55-5.77,3.56-12.26,5.63-18.64,7.83,2.41,4.17,5.17,8.09,7.69,12.19,3.92,6.45,7.5,13.1,10.72,19.92,17.96,39.17,21.8,83.35,10.89,125.04-.72,2.7-5.09,16.25-4.83,17.94,3.44,3.78,36.01-1.26,43.12,19.51,1.66,4.86,1.53,10.31,1.3,15.37-.13,2.83-.47,5.72-.43,8.56,5.64,1.44,11.97,2.33,15.12,7.86,4.21,7.41.3,15.73-4.61,21.5,5.1,2.84,9.75,5.78,11.56,11.74,1.27,4.26.74,8.85-1.45,12.72-2.22,3.9-6.05,7.02-10.4,8.14-8.97,2.3-14.53-2.33-21.79-4.99-2.32.85-4.15,1.64-6.21,3.06-.78,6.74-1.37,13.63-7.23,18.21-3.5,2.7-7.96,3.83-12.32,3.11-4.21-.67-7.99-2.98-10.49-6.44-4.5-6.25-3.14-13.26-.98-20.02-12.03-11.52-6.74-26.51-3.19-40.74-7.04,1.25-11.33,2.48-18.2,4.53-1.04,3.19-1.21,7.33-1.37,10.59-1.16,23.37,9.23,50,33.96,56.44,33.57,8.75,61.63-16.22,70.22-46.98,15.71-56.29-32.17-108.26-10.86-163.36,2.32-5.88,5.94-13.07,11.78-16.26,2.94-1.92,7.29-1.57,8.69,2.22,3.33,9,.71,19.52,1.5,29.04,2.23,26.59,15.81,50.88,26.21,74.96,7.54,17.46,13.28,36.28,15.99,55.1,2.69,20.69-.39,44.37-7.55,63.92-11.13,30.88-34.16,56.03-63.95,69.82-30.17,13.76-64.58,14.92-95.62,3.23-48.97-18.09-80.89-66.76-82.33-118.49-.23-8.23.19-16.34.74-24.54-6.65-1.49-11.35-1.93-18.09-2.27-.76,13.97-1.08,33.85-10.8,44.58,4.84,5.88,7.98,11.19,7.16,19.19-.42,4.58-2.72,8.79-6.33,11.63-4.12,3.24-9.37,4.66-14.56,3.94-4.64-.62-8.85-3.05-11.71-6.76-4.59-5.97-4.31-12.4-5.11-19.44l-.22.34c-2.59,4.01-4.39,8.39-7.14,12.34-9.16,13.19-31.42,9.42-34.73-6.64-1.99-9.64,1.93-14.78,8.49-20.96-7-.68-13.04-1.3-17.86-7.11-6.39-7.71-5.48-20.24,2.49-26.5,5.62-4.41,12.62-4.71,19.14-2.45.06-14.99,3.87-20.59,19.56-20.57.74-9.99.91-23.47,9.24-30.1,13.15-10.46,32.51-13.58,48.63-14.94-5.41-17.79-1.88-28.79,1.18-46.46.8-4.63,1.34-10.24,1.81-14.96-6.21,8.14-12.63,14.67-23.47,16.03-11.94,1.15-24.16-1.93-35.51-5.45-2.53-.4-7.27-3.69-9.64-2.6-1.38.63-2.85,4.67-3.1,6.19-2.78,16.52-28.53,17.63-31.24.99-.36-2.21.01-5.54-1.56-7.37-1.59-.67-5.76-.22-7.71-.14-11.79.49-19.87-10.7-15.33-21.56,2.23-5.34,10.94-8.38,16.12-10.53-4.15-7.34-12.49-8.91-9.56-20.14,1.17-4.39,4.09-8.09,8.09-10.25,8.81-4.81,13.95-.93,21.27,3.72,2.06-2.37,3.16-5.38,5.16-7.73,5.26-6.2,15.79-6.03,21.68-.91,6.84,5.95,4.87,16.44,2.29,23.91,3.46.21,18.86,1.72,20.16.08,4.92-6.16,12.43-22.8,15.09-30-3.31-7.5-12.48-13.65-19.91-16.49-10.37-3.96-22.34-2.72-33.23-3.06-9.41-.29-18.85-1.08-28.24-1.72-23.48-1.6-47.49-3-69.43-12.29-3.82-1.62-7.87-3.4-11.26-5.8-4.85-3.43-7.5-8.66-11.42-12.95-5.17-5.66-9.66-5.05-13.5-13.55-3.63-8.04-4.84-21.96-1.62-30.28,5.33-13.74,30.4-37.33,41.67-48.31ZM181.81,168.11l.32.34c3.43,3.59,18.33,14.3,17.73,19.31-1.38,11.59-8.39,24.08-14.91,33.76-1.78,2.39-4.39,7.02-7.6,7.47-6.71.94-13.76-.64-20.55-.73-3.13-.04-7.3-1.35-9.91-2.97-.24-1.35-.51-2.73-.38-3.98.6-5.74,6.63-15.75-.54-19.68-8-4.39-11.73,4.55-10.77,11.11.53,3.6,1.32,9.09-2.72,10.22-.96.28-3.11.19-3.88-.52-5.91-5.5-6.65-12.52-14.85-15.81-6.64,1.34-8.41,3.65-8.83,10.51,1.25,2.92,1.33,2.93,3.81,5.29,4.11,3.91,15.85,5.28,13.92,12.53-.48,1.32-2.32,2.25-3.51,2.54-6.5,1.56-17.09-.68-21.55,5.62-1.93,2.72.72,9.65,4.15,10.72,3.17,1.27,6.29.28,9.31-.75,3.29-1.12,11.09-8.08,14.5-6,8.27,5.03-5.97,15.18-3.13,21.88,1.97,4.66,6.42,5.44,10.59,3.84,2.47-1.09,3.75-2.04,4.88-4.56,2.29-4.53.44-13.48,5.66-15.71,2.74-1.17,7.41.91,10.05,1.87,8.25,3.01,15.26,5.27,23.71,7.07,16.23,3.44,24.62-.18,34.62-13.42,5.14-6.81,9.44-14.66,13.25-22.38,1.48-2.99,3.02-7.91,5.62-10.06l.67-.07c3.97,3.88-5,21.01-5.6,25.69-.84,6.55,1.17,13.35.43,20-1.59,23.09-9.7,34.57-1.35,57.83,3.61,1.15,10.61,3,13.34,5.48l.05.48c-.7.55-2.12.83-2.95.75-15.51-1.44-30.37.45-45.16,4.08-23.97,5.88-24.15,16.01-23.95,38.17.03,3.46,1.83,18.89,1.05,20.86l-.57.33c-4.78-1.38-5.09-17.55-11.55-19.15-4.34-1.08-7.81,1.8-8.92,6.04-1.91,7.69,4.93,12.67,9.87,17.58-2.01,2.5-3.06,3.67-5.73,5.46-7.03-3.4-16.87-11.56-25.16-9-4.85,1.5-6.17,9.06-4.29,13.3,3.47,7.81,13.9,5.18,20.64,5.77,3.36.29,7.92.37,9.55,3.83.44.92.85,2.92.4,3.99-4.7,7.54-22.65,7.74-17.84,21.27,1,2.8,3.25,5.05,6.21,6.3,2.69,1.17,5.75,1.17,8.44,0,10.24-4.56,7.28-24.31,22.16-19.43,11.15,3.73,1.97,20.59,11.61,25.31,4.97,2.43,12.25-1.3,14.27-6.47,3.84-9.22-12.01-14.81-6.69-23.58,2.33-3.84,5.16-4.99,6.4-9.91,2.87-11.3,2.12-23.25,4.4-34.57.73-3.62,3.82-5.44,8.07-5.19,6.42.38,22.74,1.33,26.46,7.59.87,1.47-.08,9.7-.3,12.14,20.86-11.28,40.66-17.74,64.45-9.79,3.74,1.25,7.55,3.37,11.01,5.24.67-2.74,1.31-6.37,4.16-7.63,7.32-3.22,22.4-5.32,30.02-4.07,7.42,1.22-5.54,30.84-1.85,36.85,2.7,4.4,4.53,5.24,7.35,8.48-.79,5.95-5.8,22.47,3.47,23.46,4.98.53,9.49-4.54,9.26-9.56-.15-3.19-1.16-10.25,1.26-12.77,2.43-1.53,12.36-6.49,14.8-6.02,7.44,1.44,12.9,11.65,21.33,5.17,3.32-2.55,3.61-5.47,2.84-9.37l-.28-.35c-2.06-2.54-5.95-4.59-9.87-4.59-5.28,0-16.77-1.46-8.91-9.3,2.91-2.9,12.57-3.91,13.15-10.25.74-5.13-1.85-8.63-6.86-9.26l-.28-.03c-3.46,1.3-3.5,1.61-6.03,4.43-2.44,2.73-8.02,15.32-12.22,14.36-.47-1.93,2.19-6.62,2.8-8.73,3.17-10.89,9.61-28.05,5.75-38.96-4.06-11.46-26.94-13-37.1-12.34-3.18.21-8.87,2.92-10.99,0-1.97-2.88,2.92-11.91,4.08-14.94,2.86-7.27,5.18-14.74,6.94-22.35,6.18-26.95,5.84-55-1.01-81.79-6.32-25.43-18.93-49.69-35.08-70.22-1.84-2.35-7.98-8.8-6.63-11.39,2.6-1.26,6.39,2.98,8.53,4.2,6.67,3.8,15.61.13,21.9-2.64,21.39-9.43,6.98-32.52-.84-46.25-3.3-5.87-9.6-13.45-.38-17.55,3.52-1.72,10.74-2.79,12-7.12,2.35-8.13-4.37-13.02-12.01-8.87-4.48,2.44-8.32,13.92-13.81,6.09-1.77-2.52.15-7.73.62-10.52,2.1-7.63.61-18.98-10.17-14.17-2.21.98-3.74,3.02-4.79,5.29.14,2.95.8,6.47,1.69,9.35.86,2.16,2.84,12.83-1.79,12.03-7.85-1.36-19.45-22.12-24.1-3.93-2.17,8.48,16.62,8.58,16.36,15.12-.23,5.88-14.3,2.03-14.55,10.03-.15,3.06,1.09,4.22,3.23,5.84,5.35-.15,8.29-1.42,13.11-3.69,1.45-.68,5.57-2.52,6.92-1.15,2.56,2.96,8.24,20.39,5.85,23.02-3.8,2.06-24.44,3.47-29.17,2.46-6.66-1.42-15.02-13.11-19.85-17.73-2.08-2-5.33,6.66-6.26,7.62l-.45-.12c-.89-2-1.47-17.59-1.87-21.64-3.15-31.7-24.34-52.63-53-63.75-23.39-9.08-47.1-9.58-71.61-4.73-5.6,1.07-11.1,2.56-16.47,4.46-2.02.71-11.33,4.73-12.49,3.43,1.29-1.84,3.34-2.79,3.25-4.81-.48-.92-1.11-1.27-2.06-1.6-7.46-2.58-19.31-1.03-26.28,2.6-7.91,4.12-13.6,11.33-16.23,19.8-1.6,5.15-2.3,10.23-5.33,14.85-9.67,14.74-34.49,29.85-39.84,46.36-1.23,3.8-1.26,8-.98,11.95.28,3.97.97,8.43,2.89,11.98,3.2,5.9,12.49,8.71,18.51,10.34,34.13,9.24,112.03,3.39,142.18-14.21,1.68-.98,3.44-2.08,4.86-3.42-1.08-.74-3.68-2.24-4.2-3.04.16-.61.12-.74.76-1.03,7.06-3.26,20.97,2.19,24.48,8.62.23.42.44.84.66,1.26-5.79-1.64-8.27-2.82-13.64-5.34-10.77,6.4-19.76,11.77-31.71,16.01-31.9,11.33-90.89,16-123.34,7.88-.73-.18-1.45-.39-2.17-.61,2.83,2.91,5.7,5.34,9.21,7.38,22.06,12.82,61.29,14.11,86.44,15.3,13.07.62,26.25,1.45,39.33,1.64,13.54.09,26.99-2.1,39.81-6.46,3.46-1.18,6.83-2.6,10.1-4.23,1.97-.98,4.31-2.94,6.34-2.44,1.98,3.06-14.27,12.44-17.02,13.64-6.83,2.99-13.82,4.69-21.13,5.86ZM419.21,434.56l-.21.23c-2.22,2.45-4.26,5.54-6.46,8.11-5.2,6.08-10.22,9.31-17,13.25,13.7,9.93,20.85,22.04,23.59,38.76.39,2.37.63,4.73.98,7.07,18.02-14.58,25.49-24.21,36.18-44.99-.69-1.09-1.43-2.15-2.22-3.17-9.52-12.58-19.63-17.18-34.86-19.25ZM467.18,406.57c-.35-20.04-3.56-34.23-9.52-53.22-10.05-.47-16.46.6-25.1,6.24,1.56,16.34,3.01,23.81.22,40.53,11.81-.56,24.18-.9,34.4,6.44ZM338.76,458.06l-.08.26c-1.69,5.84-2.36,10.98-4.44,17.26-5.02,15.16-16.63,29.48-29.48,38.91,26.41,9.97,40.47,11.94,68.33,7.81.36-4.91,1.66-10.25,1.76-15.36.31-15.44-3.52-29.03-11.03-42.26-10.08-.06-16.19-2.26-25.07-6.62ZM415.09,283.02c-.19,1.97.7,6.36,1.09,8.43,1.17,6.41,2.53,12.78,4.07,19.1.92,3.62,2.43,8.25,3.16,11.69,7.71-4.42,9.93-5.33,18.82-5.59-5.97-11.99-10.73-24.55-14.19-37.49-4.73.53-8.97,1.1-12.96,3.86ZM240.54,440.64c5.09,13.85,10.85,27.58,19.99,39.32.62.8,2.98,3.78,3.7,4.24,1.43-1.17,4.13-2.83,5.82-3.85,19.13-11.55,33.5-25.88,47.92-42.94-3.88-6.38-5.58-13.05-7.15-20.21-25.15-1.34-47.74,2.97-67.12,20.47-1.07.97-2.12,1.96-3.14,2.98Z"/>
      <path d="M142.92,40.54c18.99-1.52,35.64,12.61,37.22,31.6,1.59,18.99-12.48,35.68-31.46,37.34-19.08,1.67-35.88-12.49-37.48-31.58-1.6-19.09,12.62-35.84,31.71-37.36ZM155.15,99.1c-.99,1.08-2.18,2.31-3.07,3.46,7.47-1.73,12.69-5.24,16.84-11.8,4.25-6.69,5.64-14.8,3.85-22.52-3.35-14.29-14.22-21.11-28.3-21.3-6.55.54-8.56,1.2-14.35,4.36,17.4-1.61,32.55,4,34.62,23.8.86,8.2-2.48,15.97-7.85,22.13-.57.64-1.15,1.27-1.75,1.88ZM129.99,75.19c3.33-.26,5.88-3.07,5.81-6.41-.08-3.49-2.98-6.25-6.47-6.15-2.29.06-4.36,1.36-5.41,3.39-1.05,2.03-.93,4.47.34,6.38,1.26,1.91,3.46,2.98,5.74,2.8Z"/>
      <path d="M140.7,24.01c10.63-1.28,23.53,3.16,31.01,10.8,1.61,1.64,3.09,3.61,4.49,5.44-16.1-10.41-29.58-14.62-47.66-6.41-11.66,4.93-16,13.64-23.92,21.88,5.05-19.99,15.72-29.39,36.08-31.7Z"/>
      <path d="M40.07,104.03c.36.16.8.44,1.15.65,1.86,3.12-1.4,9.95-4.2,11.86-1.27.87-2.36.63-3.76.37-6.94-4.96,1.88-11.16,6.8-12.87Z"/>
      <path class="cls-3" d="M234.76,390.5c20.86-11.28,40.66-17.74,64.45-9.79,3.74,1.25,7.55,3.37,11.01,5.24-1.07,12.55-1.82,18.4.58,31.25-25.15-1.34-47.74,2.97-67.12,20.47-1.07.97-2.12,1.96-3.14,2.98-4.45-11.07-7.44-38.44-5.78-50.14Z"/>
      <path class="cls-3" d="M317.96,437.4c7.37,10.64,9.68,13.51,20.8,20.66l-.08.26c-1.69,5.84-2.36,10.98-4.44,17.26-5.02,15.16-16.63,29.48-29.48,38.91-3.21-1.09-6.35-2.98-9.37-4.52-12.71-6.5-21.09-16.19-31.17-25.78,1.43-1.17,4.13-2.83,5.82-3.85,19.13-11.55,33.5-25.88,47.92-42.94Z"/>
      <path class="cls-3" d="M363.82,464.68c12.87-.7,20.26-3.13,31.71-8.53,13.7,9.93,20.85,22.04,23.59,38.76.39,2.37.63,4.73.98,7.07-13.39,9.19-30.63,18.41-47.01,20.33.36-4.91,1.66-10.25,1.76-15.36.31-15.44-3.52-29.03-11.03-42.26Z"/>
      <path class="cls-3" d="M432.77,400.13c11.81-.56,24.18-.9,34.4,6.44-.4,3.9-.25,7.91-.64,11.77-1.3,12.8-4.57,27.05-10.26,38.63-.69-1.09-1.43-2.15-2.22-3.17-9.52-12.58-19.63-17.18-34.86-19.25,7.94-11.9,10.55-20.71,13.56-34.42Z"/>
      <path class="cls-3" d="M442.23,316.65c3.2,7.06,6.32,14.16,9.35,21.3,2.1,5.08,3.97,10.39,6.08,15.4-10.05-.47-16.46.6-25.1,6.24-1-4.56-1.69-9.26-2.7-13.87-1.79-7.92-3.94-15.76-6.45-23.49,7.71-4.42,9.93-5.33,18.82-5.59Z"/>
      <path class="cls-3" d="M415.09,283.02c-1.93-15.21,1.82-31.32,8.9-44.8-.48,15.88.54,25.55,4.06,40.93-4.73.53-8.97,1.1-12.96,3.86Z"/>
      <path class="cls-2" d="M266,89.05c1.5-.43,1.48.09,2.59,1.14,1.19-1.64-.74-5.03,1.98-8.75h.44c-2.33,7.61-.67,13.64,6.28,17.99.48.9.62.78.14,1.83-3.29-2.76-8.49-8.87-11.42-12.21Z"/>
    </g>
  </g>
</svg>