<?xml version="1.0" encoding="UTF-8"?>
<svg id="_Слой_2" data-name="Слой 2" xmlns="http://www.w3.org/2000/svg" viewBox="0 0 1271.26 126.59">
  <defs>
    <style>
      .cls-1 {
        fill: #6b2ee5;
      }

      .cls-2 {
        opacity: .5;
      }
    </style>
  </defs>
  <g id="_Слой_1-2" data-name="Слой 1">
    <g class="cls-2">
      <path class="cls-1" d="M531.53,63.55c-12.91-6.88-27.44-2.88-36.53,8.23-5.65,6.9-15.73,14.31-20.21,10.89-1.31-1-1.79-3.42-1.08-5.44,1.01-2.88,3.71-4.72,6.19-6.5,7.63-5.49,10.44-15.77,4.94-23.33-2-2.74-4.32-3.39-7.28-3.33-3.95.09-7.18-3.15-7.49-6.64-.34-3.85,2.34-7.53,6.59-7.88,3.82-.32,7.18,2.23,8.26,6.58.8,3.21,5.53,4.59,8.64,4.41,7.76-.45,13.35-18.44,12.9-23.11s-2.53-8.39,2.18-11.57c3.09-2.09,7.95-1.61,10.06,1.9,2.85,4.74-.02,8.26-3.42,11.68-2.65,2.66-3.39,9.75-2.48,13.28.98,3.8,6.17,3.51,8.85,1.92,5.95-3.55,12.44-6.04,17.73-10.78,2.23-2.01,1.76-6.62,6.16-7.1,3-.33,6.57-.59,8.8,2.83,2.1,3.23,1.28,6.72-.69,9.26-2.43,3.16-6.28,1.63-9.44,2.34-6.21,1.96-11.12,6.82-16.74,10.05-2.76,1.59-5.61,5.14-4.42,8.64,1.32,3.9,7.51,6.69,11.27,5.39,4.24-1.47,8.02-.53,10.13,2.85s.78,7.82-2.26,9.5c-3.85,2.12-9.55,1.62-10.65-4.06Z"/>
      <path class="cls-1" d="M75.62,62.09c-.69,4.12-4.33,6.42-7.64,6.18-3.96-.08-7.13-3.02-7.2-7.57-23.32-18.38-36.42,4.63-53.4,7.59-3.08.54-6.3-.55-7.17-3.42-1.96-6.46,10.42-6.85,15.88-13.27s5.66-15.31-.52-20.88c-4.64-.02-7.97-3.18-7.97-7.29,0-3.95,3.4-7.03,7.21-6.95,4.85.1,7.55,3.37,7.53,8.55-.02,3.05,4.41,5.52,6.72,5.91,8.11,1.36,17.32-14.09,18.46-20.05.86-4.46-.65-8.83,4.86-10.52,3.43-1.06,8.29,0,9.51,4.23,1.41,4.93-1.43,7.79-5.91,10.23-3.01,1.64-4.69,7.7-5.41,11.05-.76,3.55,3.54,6.14,6.85,5.08,6.81-2.18,15.2-2.9,20.97-7.09,3.52-2.55,5.84-7.13,10.84-4.95,4,1.74,6.43,6.5,4.14,10.58-2.1,3.74-7.34,5.44-11.38,2.3-10.35,3.24-28.83,7.95-25.68,15.08,1.33,3.01,5.59,6.82,8.96,7.32,2.86.43,5.46-.49,7.65,1.56,1.26,1.18,3.23,3.26,2.72,6.32Z"/>
      <path class="cls-1" d="M1014.11,70.94c-10.69-5.37-23.16-4.66-31.86,3.58l-13.29,12.61c-2.27,2.16-8.08,4.65-10.81,2.42-3.39-2.78-.55-8.72,2.7-10.49,5.5-3,8.82-7.16,10.3-13.51,1.18-5.06-1.59-13.41-7.28-14.44-4.72-.85-8.44-1.42-9.16-6.83-.46-3.48,2.14-7.71,6.51-8.01,4.06-.28,7.4,2.1,8.26,6.97.52,2.95,5.1,4.42,7.82,4.64,7.18.58,14.17-15.35,14.57-22.96.19-3.65-2.08-7.42,1.63-10.29,2.39-1.85,5.24-2.6,7.72-1.55,2.95,1.24,4.18,3.64,4.39,6.34.29,3.86-2.44,5.05-4.9,7.52-1.96,1.96-5.05,12.79-1.82,15.44,1.54,1.26,4.53,1.66,6.71.46,6.28-3.44,13.21-5.97,18.87-10.69,2.21-1.84,2.07-5.94,5.76-6.51,3.1-.47,6.33-.94,8.76,2.03s1.57,6.74.22,9.06c-2.53,4.34-6.8,2.02-10.35,3-6.26,1.73-11.52,6.04-17.03,9.18-2.86,1.63-6.13,5.42-5.06,8.98s7.1,6.76,10.4,5.77c4.51-1.35,8.33-.75,10.63,3.49,1.72,3.17.19,8.36-4.25,9.69-3.49,1.05-8.48-.47-9.43-5.91Z"/>
      <path class="cls-1" d="M314.29,106.58c-7.65-6.39-20.53-17.18-25.56-12.07-1.93,1.96-2.68,7.41-.66,9.38,3.19,3.12,4.8,6.63,2.69,10.17s-6.63,4.41-9.76,2.33c-3.98-2.21-4.85-7.13-1.63-11-.29-13.22-8.07-23.91-21.04-23.91-6.76,0-12.43-1.43-12.59-6.21-.05-1.66.77-3.31,2.51-4.28,7.98-4.43,22.34,6.41,36.76-4.46,4.04-3.04,8.72-9.14,8.72-14.18,0-4.64-.98-8.4,3.9-10.61,3.5-1.59,8.34-.18,9.78,4.23s-1.18,7.81-5.58,9.72c-1.73,2.51-3.85,7.73-3.61,11.03.59,8.05,19.73,4.31,24.15,1.27,3.34-2.3,5.39-6.06,10.06-4.52,3.51,1.16,6.64,4.76,5.32,9-1.88,6.07-7.7,5.78-12.76,4.18-7.24,1-15.47,2.49-18.52,7.31-3.14,4.97,8.53,15.54,12.57,16.05,5.01.63,8.67,1.28,9.8,6.63.79,3.76-1.97,8.13-6.28,8.47s-8.97-3.11-8.28-8.55Z"/>
      <path class="cls-1" d="M774.37,110.27c-6.06-6.53-20.7-16.88-24.58-12.87-4.24,4.37-2.12,9.7,1.36,13.03,3.04,2.91.76,7.76-1.61,9.35-3.37,2.27-7.1,1.22-9.38-.72-3.92-3.34-1.13-6.85-.53-10.63,1.03-6.52-3.06-14.08-7.74-18.33-5.06-4.59-11.33-4.93-17.88-4.78-3.54.08-9.1-3.13-8.28-6.91,1.14-5.2,7.77-5.43,12.16-4.36,9.43,2.3,18.94,2.41,27.16-3.26,4.43-3.06,9.1-10.02,8.72-15.3-.35-4.98-.64-8.23,4.02-10.31,3.71-1.66,8.29.15,9.64,3.64,2.09,5.41-1.33,7.66-5.01,10.57-2.7,2.13-3.79,8.07-3.85,11.42-.12,7.12,19.18,4.16,24.47.2,3.7-2.77,6.4-6.42,11.47-3.92,3.7,1.83,5.38,7.08,2.98,10.6-3.19,4.65-7.03,3.31-11.8,2.31-4.39-.92-17.87,3.82-19.33,8.49-1.33,4.28,6.73,11.88,12.71,15.08,4.85.8,9.15.38,10.41,6.16.86,3.95-1.65,8.08-6.03,8.64-6.01.77-7.42-3.55-9.06-8.09Z"/>
      <path class="cls-1" d="M1255.53,109.27l-20.8-8.24c-2.34-.11-4.21.27-5.79,1.6-1.46,1.24-1.81,3.54-1.5,5.86.46,3.4,2.08,4.4,4.79,5.95,2.96,1.7,3.06,6.76,1.08,9.48s-6.49,3.61-9.74,1.59c-3.07-1.9-4.04-5.87-2.52-9.74,1.08-2.75-6.39-21.47-24.55-18.47-6.37,1.05-13.08,2.23-14.28-3.3-.43-2,.46-3.91,2.26-5.3,6.31-4.9,23.41,1.96,34.48-11.64,3.1-3.8,6.19-10.91,5.05-15.63-1.08-4.46-3.27-8.43,1.78-11.75,2.74-1.8,7.71-1.76,10.14,2.16s.29,7.27-2.97,10.74c-1.98,2.11-1.87,7.33-2.03,10.22-.5,9.08,14.29,3.92,24.88-1.86.76-4.27,3.76-6.71,7.36-6.76,4-.29,7.63,2.44,8.04,6.69.33,3.37-1.96,5.23-3.46,6.56-2.74,2.42-5.7.15-8.22.7-5.15,1.12-16.39,7.7-16.78,12.35s11.61,11.51,15.09,11.7c3.74.21,6.71-1.86,9.74,1.42,2.29,2.48,3.66,6.16,1.25,9.62-1.62,2.32-4.76,3.58-7.18,2.88-2.88-.84-5.55-2.66-6.15-6.84Z"/>
    </g>
  </g>
</svg>