<?xml version="1.0" encoding="UTF-8"?>
<svg id="_Слой_2" data-name="Слой 2" xmlns="http://www.w3.org/2000/svg" viewBox="0 0 559.42 512">
  <defs>
    <style>
      .cls-1 {
        fill: #6b2ee5;
      }

      .cls-2 {
        fill: #fff;
      }
    </style>
  </defs>
  <g id="_Слой_1-2" data-name="Слой 1">
    <g>
      <path class="cls-1" d="M256.94,256L33.14,131.69C78.23,50.52,164.08,0,256.94,0c140.44,0,256,115.56,256,256s-115.56,256-256,256c-78.3,0-152.42-35.92-200.93-97.37l200.93-158.63Z"/>
      <path class="cls-2" d="M86.39,381.74l78.67,3.36,203.21,59.14,122.75-3.5,59.85-52.73-67.94-126.37-10.96-72.28-27.45-30.83-168-47.18-192.59.49-50.86,19.88S-11.25,202.52,2.73,293.99c8.56,56.06,37.93,99.02,37.93,99.02l45.73-11.28Z"/>
      <path d="M41.5,394.48c-.52-.85-.36-1.95.38-2.62,12.25-11.06,39.13-24.2,56.18-30.19,1.42-.5,1.94-2.24,1.03-3.44-20.79-27.51-32.13-47.82-30.41-90.25.13-3.23,4.75-3.63,5.47-.49,21.69,95.12,69.35,103.28,95,111.37,81.18,25.62,217.19,60.26,287.4,58.54,6.99-.69,13.65-2.06,20.2-3.96,2.36-.69,1.74-4.2-.71-4.06-8.41.46-16.65.72-25.81-.27-67.31-7.3-154.83-37.14-213.85-69.59-13.03-7.2-25.59-15.21-37.6-24-2.42-1.77-5.45-2.5-8.41-2.01-6.13,1.01-11,2.54-16.24,5.11-2,.98-3.93-1.46-2.51-3.18h0c10.44-12.58,30.53-15.7,44.9-8.26,1.95,1.01,1.25,3.93-.94,3.93-.37,0-.74,0-1.12,0-2.16,0-2.88,2.91-.96,3.91,84.79,44.48,177.42,84.6,274.96,85.84.04,0,.07,0,.11,0,7.12-.31,17.3,0,23.51-3.58,20.96-10.92,28.76-48.26,16.87-67.71-20.64-33.76-46.41-65.47-57.44-104.36-.69-2.42-.08-10.72-.17-13.86-1.13-37.93-19.14-62.24-52.66-74-2.1-.74-3.71,1.91-2.12,3.46,13.21,12.81,21.87,27.88,26.64,45.62.59,2.19-2.26,3.6-3.65,1.81-17.18-22.05-38.68-40.41-63.21-53.93-91.24-50.41-244.9-50.85-343.25-22.58,3.5-6.56,10.08-17.37,14.69-23.4.27-.36.66-.61,1.09-.72,73.29-19.07,194.94-18.63,267.41.93,13.99,3.77,27.77,8.31,41.27,13.57,2.83,1.08,5.9,2.21,8.59,3.54,8.72,4.3,19.55,6.37,29.23,7.67,44.88,6.03,82.73,26.41,95.2,73.8,3.85,14.81,4.89,30.21,3.07,45.39-.06.49.06.98.33,1.39,12.39,18.42,24.63,36.94,36.73,55.56,16.08,24.99,33.8,48.47,27.39,79.81-4.33,21.18-16.21,37.15-34.23,49.03-46.78,30.59-121.77,17.71-173.25,7.12-33.53-7.18-66.81-15.49-99.77-24.93-14.6-4.11-29.18-8.31-43.73-12.6-8.66-2.56-17.61-5.09-26.21-7.82-34.57-10.95-72.35-8.08-111.18,7.58-5.97,2.59-9.66,3.82-13.64,7.03"/>
      <path d="M372.22,274.12c.68,16.35-5.15,32.29-16.21,44.35-12.46,13.32-27.71,19.49-45.8,20.66-20.71,1.37-41.11-5.62-56.63-19.39-15.01-13.13-25.43-32.11-26.7-52.18-1.25-16.94,4.38-33.66,15.6-46.41,11.66-13.21,27.84-20.07,45.18-21.57,43.07-1.85,82.99,30.46,84.57,74.53Z"/>
      <path class="cls-2" d="M314.38,218.69c23.43,7.64,42.13,29.72,42.43,54.87.08,7-1.21,12.68-3.62,18.47-.57,1.36-2.6.86-2.49-.61,1.39-19.17-5.5-35.3-21.71-47.96-13.2-9.65-28.45-14.33-44.82-11.8-14.16,2.08-30.82,9.14-39.19,20.75l-3.09,4.33c-.88,1.23-2.78.21-2.25-1.21,10.6-28.47,27.4-34.95,45.64-38.46,9.06-1.74,18.43-1.56,27.28,1.05.6.18,1.21.37,1.82.56Z"/>
      <path d="M504.55,389.49c.42,4.25-5.05,6.56-8.22,5.74-5.43-1.41-13.5-6.26-16.5-12.67-2.68-5.71-1.18-15.31,7.01-14.42,11.07,1.2,16.71,11.12,17.72,21.34Z"/>
      <circle class="cls-2" cx="279.71" cy="256" r="9.33"/>
    </g>
  </g>
</svg>