<?xml version="1.0" encoding="UTF-8"?>
<svg id="_Слой_2" data-name="Слой 2" xmlns="http://www.w3.org/2000/svg" viewBox="0 0 2204.04 543.68">
  <defs>
    <style>
      .cls-1 {
        fill: #6b2ee5;
      }

      .cls-2 {
        fill: #fff;
      }

      .cls-3 {
        fill: #1e1e1e;
      }
    </style>
  </defs>
  <g id="_Слой_1-2" data-name="Слой 1">
    <g>
      <g>
        <path class="cls-1" d="M272.83,271.84L35.19,139.84C83.07,53.64,174.23,0,272.83,0c149.13,0,271.84,122.71,271.84,271.84s-122.71,271.84-271.84,271.84c-83.14,0-161.85-38.14-213.36-103.4l213.36-168.44Z"/>
        <path class="cls-2" d="M91.73,405.36l83.54,3.57,215.78,62.79,130.35-3.71,63.56-55.99-72.15-134.18-11.64-76.75-29.15-32.73-178.39-50.1-204.5.52-54.01,21.11S-11.95,215.05,2.89,312.18c9.09,59.52,40.27,105.15,40.27,105.15l48.56-11.98Z"/>
        <path class="cls-3" d="M44.07,418.89c-.56-.9-.39-2.07.4-2.78,13.01-11.75,41.55-25.7,59.65-32.06,1.51-.53,2.06-2.38,1.1-3.65-22.08-29.21-34.12-50.78-32.29-95.84.14-3.43,5.04-3.86,5.81-.52,23.03,101,73.64,109.67,100.88,118.26,86.2,27.2,230.63,63.98,305.18,62.17,7.42-.74,14.5-2.18,21.45-4.21,2.5-.73,1.85-4.46-.75-4.31-8.93.49-17.68.77-27.41-.29-71.48-7.76-164.41-39.43-227.08-73.89-13.83-7.64-27.17-16.16-39.93-25.48-2.57-1.88-5.79-2.66-8.93-2.14-6.51,1.07-11.68,2.69-17.24,5.43-2.13,1.04-4.17-1.55-2.66-3.38h0c11.09-13.36,32.42-16.67,47.68-8.77,2.07,1.07,1.33,4.18-1,4.17-.4,0-.79,0-1.19,0-2.3,0-3.06,3.09-1.02,4.15,90.03,47.23,188.39,89.83,291.97,91.15.04,0,.08,0,.12,0,7.56-.33,18.38,0,24.96-3.8,22.26-11.6,30.54-51.25,17.91-71.9-21.91-35.84-49.28-69.53-60.99-110.81-.73-2.57-.09-11.38-.18-14.72-1.2-40.28-20.32-66.1-55.92-78.58-2.23-.78-3.94,2.03-2.25,3.68,14.02,13.61,23.22,29.6,28.29,48.44.62,2.32-2.4,3.82-3.88,1.92-18.24-23.41-41.07-42.91-67.13-57.27-96.88-53.53-260.06-54-364.49-23.98,3.72-6.97,10.71-18.45,15.6-24.85.29-.38.7-.65,1.16-.77,77.83-20.25,207-19.78,283.96.99,14.86,4.01,29.48,8.82,43.82,14.41,3.01,1.14,6.26,2.35,9.13,3.76,9.26,4.57,20.76,6.77,31.04,8.15,47.65,6.41,87.85,28.05,101.09,78.37,4.08,15.73,5.19,32.07,3.26,48.2-.06.52.06,1.04.35,1.48,13.16,19.56,26.15,39.23,39,59,17.07,26.54,35.89,51.47,29.09,84.75-4.6,22.49-17.21,39.44-36.35,52.06-49.67,32.48-129.3,18.8-183.97,7.56-35.6-7.63-70.94-16.45-105.94-26.47-15.51-4.36-30.98-8.82-46.43-13.38-9.2-2.72-18.7-5.41-27.83-8.3-36.7-11.63-76.83-8.58-118.06,8.05-6.34,2.75-10.25,4.05-14.48,7.46"/>
        <path class="cls-3" d="M395.25,291.08c.72,17.36-5.47,34.29-17.22,47.1-13.23,14.15-29.43,20.7-48.63,21.94-21.99,1.45-43.65-5.96-60.14-20.59-15.94-13.95-27-34.1-28.36-55.4-1.33-17.99,4.65-35.75,16.57-49.28,12.38-14.03,29.56-21.31,47.97-22.9,45.73-1.96,88.12,32.34,89.8,79.14Z"/>
        <path class="cls-2" d="M333.83,232.22c24.88,8.11,44.74,31.56,45.05,58.26.09,7.43-1.28,13.47-3.85,19.62-.6,1.45-2.76.92-2.64-.65,1.48-20.36-5.84-37.49-23.05-50.93-14.02-10.25-30.21-15.21-47.59-12.53-15.04,2.21-32.73,9.7-41.61,22.04l-3.29,4.6c-.93,1.31-2.95.22-2.39-1.29,11.25-30.23,29.09-37.11,48.46-40.84,9.62-1.85,19.57-1.65,28.97,1.12.64.19,1.28.39,1.93.6Z"/>
        <path class="cls-3" d="M535.77,413.58c.44,4.51-5.36,6.97-8.73,6.1-5.77-1.49-14.33-6.65-17.52-13.45-2.84-6.06-1.26-16.25,7.44-15.31,11.75,1.28,17.75,11.81,18.81,22.66Z"/>
        <circle class="cls-2" cx="297.01" cy="271.84" r="9.9"/>
      </g>
      <g>
        <path class="cls-3" d="M794.16,384.73v-225.2h163.45v36.03h-117.44v189.17h-46.01Z"/>
        <path class="cls-3" d="M972.74,312.82c2.57,28.58,22.52,42.55,43.76,42.55,13.84,0,27.35-4.66,36.36-19.26h45.69c-9.33,24.85-34.43,52.49-81.73,52.49-55.66,0-88.16-40.07-88.16-88.22s35.72-86.66,86.87-86.66,86.55,40.07,84.94,99.09h-127.74ZM973.38,283.31h82.05c-.97-28.27-21.56-38.21-40.22-38.21-16.73,0-38.29,9.94-41.83,38.21Z"/>
        <path class="cls-3" d="M1125.39,384.73v-167.11h44.72v81.07h.32l60.81-81.07h50.19l-65.32,82.31,68.21,84.8h-51.16l-62.74-82h-.32v82h-44.72Z"/>
        <path class="cls-3" d="M1298.44,384.88v-167.11h44.72v81.07h.32l60.81-81.07h50.19l-65.32,82.31,68.21,84.8h-51.16l-62.74-82h-.32v82h-44.72Z"/>
        <path class="cls-3" d="M1452.11,301.48c0-58.71,43.12-87.59,86.87-87.59s86.87,28.89,86.87,87.59-43.12,87.28-86.87,87.28-86.87-28.89-86.87-87.28ZM1497.16,301.48c0,35.1,17.37,53.74,41.83,53.74s41.83-18.64,41.83-53.74-17.37-54.05-41.83-54.05-41.83,18.95-41.83,54.05Z"/>
        <path class="cls-3" d="M1625.86,423.71v-72.69h9.65c16.73,0,25.1-13.98,28.64-83.56l2.25-49.7h132.89v133.26h26.71v72.69h-41.19v-38.83h-117.76v38.83h-41.18ZM1754.88,351.03v-99.4h-48.59l-1.93,30.44c-2.57,34.79-4.83,50.32-17.05,68.96h67.57Z"/>
        <path class="cls-3" d="M1846.1,384.73v-167.11h43.44v114l76.26-114h44.4v167.11h-43.44v-109.96l-76.26,109.96h-44.4Z"/>
        <path class="cls-3" d="M2030.3,301.48c0-58.71,43.12-87.59,86.87-87.59s86.87,28.89,86.87,87.59-43.12,87.28-86.87,87.28-86.87-28.89-86.87-87.28ZM2075.34,301.48c0,35.1,17.37,53.74,41.83,53.74s41.83-18.64,41.83-53.74-17.37-54.05-41.83-54.05-41.83,18.95-41.83,54.05Z"/>
      </g>
    </g>
  </g>
</svg>