<?xml version="1.0" encoding="UTF-8"?>
<svg id="_Слой_2" data-name="Слой 2" xmlns="http://www.w3.org/2000/svg" viewBox="0 0 240.2 240.2">
  <defs>
    <style>
      .cls-1 {
        fill: #fff;
      }

      .cls-1, .cls-2 {
        fill-rule: evenodd;
      }

      .cls-2 {
        fill: #1e1e1e;
      }
    </style>
  </defs>
  <g id="_Слой_1-2" data-name="Слой 1">
    <g>
      <path class="cls-2" d="M16.88,16.88C0,33.77,0,60.94,0,115.3v9.61c0,54.35,0,81.53,16.88,98.41,16.88,16.88,44.06,16.88,98.41,16.88h9.61c54.35,0,81.53,0,98.41-16.88,16.88-16.88,16.88-44.06,16.88-98.41v-9.61c0-54.35,0-81.53-16.88-98.41C206.43,0,179.26,0,124.9,0h-9.61C60.94,0,33.77,0,16.88,16.88Z"/>
      <path class="cls-1" d="M54.4,118.9c35-15.2,58.3-25.3,70-30.2,33.3-13.9,40.3-16.3,44.8-16.4,1,0,3.2.2,4.7,1.4,1.2,1,1.5,2.3,1.7,3.3s.4,3.1.2,4.7c-1.8,19-9.6,65.1-13.6,86.3-1.7,9-5,12-8.2,12.3-7,.6-12.3-4.6-19-9-10.6-6.9-16.5-11.2-26.8-18-11.9-7.8-4.2-12.1,2.6-19.1,1.8-1.8,32.5-29.8,33.1-32.3.1-.3.1-1.5-.6-2.1-.7-.6-1.7-.4-2.5-.2-1.1.2-17.9,11.4-50.6,33.5-4.8,3.3-9.1,4.9-13,4.8-4.3-.1-12.5-2.4-18.7-4.4-7.5-2.4-13.5-3.7-13-7.9.3-2.2,3.3-4.4,8.9-6.7Z"/>
    </g>
  </g>
</svg>