<?xml version="1.0" encoding="UTF-8"?>
<svg id="_Слой_2" data-name="Слой 2" xmlns="http://www.w3.org/2000/svg" viewBox="0 0 100 100">
  <defs>
    <style>
      .cls-1 {
        fill: #fff;
      }

      .cls-1, .cls-2 {
        fill-rule: evenodd;
      }

      .cls-2 {
        fill: #1e1e1e;
      }
    </style>
  </defs>
  <g id="_Слой_1-2" data-name="Слой 1">
    <g>
      <path class="cls-2" d="M7.03,7.03C0,14.06,0,25.37,0,48v4c0,22.63,0,33.94,7.03,40.97,7.03,7.03,18.34,7.03,40.97,7.03h4c22.63,0,33.94,0,40.97-7.03,7.03-7.03,7.03-18.34,7.03-40.97v-4c0-22.63,0-33.94-7.03-40.97C85.94,0,74.63,0,52,0h-4C25.37,0,14.06,0,7.03,7.03Z"/>
      <path class="cls-1" d="M16.88,30.42c.54,26,13.54,41.62,36.33,41.62h1.29v-14.88c8.38.83,14.71,6.96,17.25,14.88h11.83c-3.25-11.83-11.79-18.38-17.13-20.88,5.33-3.08,12.83-10.58,14.62-20.75h-10.75c-2.33,8.25-9.25,15.75-15.83,16.46v-16.46h-10.75v28.83c-6.67-1.67-15.08-9.75-15.46-28.83h-11.42Z"/>
    </g>
  </g>
</svg>