<svg width="758" height="141" viewBox="0 0 758 141" fill="none" xmlns="http://www.w3.org/2000/svg">
<g clip-path="url(#clip0_288_2130)">
<path d="M38.67 70.4602C20.02 70.4602 4.46005 84.7202 2.85005 103.3L-0.449951 141.32H39.03L45.1901 70.4502H38.68L38.67 70.4602Z" fill="#221F20"/>
<path d="M190.59 -0.399902C169.41 -0.399902 152.82 17.8201 154.79 38.9101L164.38 141.33H203.86L190.59 -0.399902Z" fill="#221F20"/>
<path d="M122.29 30.6299C97.47 30.6299 75.24 45.9699 66.43 69.1699L39.03 141.33H78.51L101.71 80.7399L124.91 141.33H164.39L122.3 30.6299H122.29Z" fill="#221F20"/>
<path d="M403.13 112.56C389.41 111.21 378.39 100.73 376.08 87.4698H447.72V82.3198C447.72 59.8598 429.24 41.5898 406.53 41.5898C383.82 41.5898 365.33 59.8598 365.33 82.3198C365.33 95.4498 371.65 107.14 381.43 114.6C381.56 114.7 381.68 114.8 381.81 114.89C381.91 114.97 382.02 115.04 382.12 115.11C388.72 120.01 396.42 122.6 404.2 122.98C404.97 123.02 405.74 123.05 406.52 123.05V123.02C418.11 122.93 429.65 117.95 437.76 108.37L436.46 107.27C433.05 104.38 428.1 104.16 424.46 106.78C419.75 110.17 412.62 113.49 403.12 112.55L403.13 112.56ZM376.08 77.1599C378.57 62.8299 391.28 51.8898 406.52 51.8898C421.76 51.8898 434.47 62.8299 436.96 77.1599H376.08Z" fill="#221F20"/>
<path d="M618.83 112.56C605.11 111.21 594.09 100.73 591.78 87.4698H663.42V82.3198C663.42 59.8598 644.94 41.5898 622.23 41.5898C599.52 41.5898 581.03 59.8598 581.03 82.3198C581.03 95.4498 587.35 107.14 597.13 114.6C597.26 114.7 597.38 114.8 597.51 114.89C597.61 114.97 597.72 115.04 597.82 115.11C604.42 120.01 612.12 122.6 619.9 122.98C620.67 123.02 621.44 123.05 622.22 123.05V123.02C633.81 122.93 645.35 117.95 653.46 108.37L652.16 107.27C648.75 104.38 643.8 104.16 640.16 106.78C635.45 110.17 628.32 113.49 618.82 112.55L618.83 112.56ZM591.78 77.1599C594.27 62.8299 606.98 51.8898 622.22 51.8898C637.46 51.8898 650.17 62.8299 652.66 77.1599H591.78Z" fill="#221F20"/>
<path d="M351.52 49.5199L328.28 104.21L303.08 41.3999C297.67 41.3999 292.79 44.6799 290.75 49.6899L268.57 104.16L242.41 41.1699H242.35C237.07 41.1699 233.48 46.5399 235.51 51.4199L265.26 123.06H272.01L298.57 57.8399L324.73 123.06H331.47L366.27 41.1699H364.15C358.65 41.1699 353.67 44.4599 351.52 49.5199Z" fill="#221F20"/>
<path d="M567.22 49.5199L543.98 104.21L518.78 41.3999C513.37 41.3999 508.49 44.6799 506.45 49.6899L484.27 104.16L458.11 41.1699H458.05C452.77 41.1699 449.18 46.5399 451.21 51.4199L480.96 123.06H487.71L514.27 57.8399L540.43 123.06H547.17L581.97 41.1699H579.85C574.35 41.1699 569.37 44.4599 567.22 49.5199Z" fill="#221F20"/>
<path d="M716.93 41.5601C704.44 41.5601 693.26 47.1001 685.7 55.8001V17.8701C680.01 17.8701 675.39 22.4901 675.39 28.1801V122.8H685.7V108.81C693.26 117.51 704.45 123.05 716.93 123.05C739.65 123.05 758.14 104.77 758.14 82.3001C758.14 59.8301 739.65 41.5501 716.93 41.5501V41.5601ZM716.93 112.75C699.89 112.75 686.03 99.0901 686.03 82.3101C686.03 65.5301 699.89 51.8701 716.93 51.8701C733.97 51.8701 747.83 65.5201 747.83 82.3101C747.83 99.1001 733.97 112.75 716.93 112.75Z" fill="#221F20"/>
</g>
<defs>
<clipPath id="clip0_288_2130">
<rect width="758" height="141" fill="white"/>
</clipPath>
</defs>
</svg>
